M48
; DRILL file {KiCad (6.0.10)} date Sat Feb 18 23:00:29 2023
; FORMAT={-:-/ absolute / metric / decimal}
; #@! TF.CreationDate,2023-02-18T23:00:29-08:00
; #@! TF.GenerationSoftware,Kicad,Pcbnew,(6.0.10)
; #@! TF.FileFunction,NonPlated,1,2,NPTH
FMAT,2
METRIC
; #@! TA.AperFunction,NonPlated,NPTH,ComponentDrill
T1C0.650
; #@! TA.AperFunction,NonPlated,NPTH,ComponentDrill
T2C1.750
; #@! TA.AperFunction,NonPlated,NPTH,ComponentDrill
T3C3.048
; #@! TA.AperFunction,NonPlated,NPTH,ComponentDrill
T4C3.988
%
G90
G05
T1
X205.072Y-49.112
X210.852Y-49.112
T2
X60.008Y-57.15
X62.389Y-133.35
X64.77Y-76.2
X67.151Y-95.25
X70.167Y-57.15
X71.914Y-114.3
X72.549Y-133.35
X74.93Y-76.2
X77.311Y-95.25
X79.057Y-57.15
X82.074Y-114.3
X86.201Y-133.35
X88.582Y-76.2
X89.218Y-57.15
X93.345Y-95.25
X96.361Y-133.35
X98.108Y-57.15
X98.742Y-76.2
X102.87Y-114.3
X103.505Y-95.25
X107.632Y-76.2
X108.267Y-57.15
X110.014Y-133.35
X112.395Y-95.25
X113.03Y-114.3
X117.157Y-57.15
X117.792Y-76.2
X120.174Y-133.35
X121.92Y-114.3
X122.555Y-95.25
X126.682Y-76.2
X127.317Y-57.15
X131.445Y-95.25
X132.08Y-114.3
X136.207Y-57.15
X136.843Y-76.2
X140.97Y-114.3
X141.605Y-95.25
X145.732Y-76.2
X146.368Y-57.15
X150.495Y-95.25
X151.13Y-114.3
X155.257Y-57.15
X155.892Y-76.2
X160.02Y-114.3
X160.655Y-95.25
X164.782Y-76.2
X165.417Y-57.15
X169.545Y-95.25
X170.18Y-114.3
X174.308Y-57.15
X174.942Y-76.2
X179.07Y-114.3
X179.705Y-95.25
X181.451Y-133.35
X183.832Y-76.2
X184.468Y-57.15
X188.595Y-95.25
X189.23Y-114.3
X191.611Y-133.35
X193.357Y-57.15
X193.992Y-76.2
X198.12Y-114.3
X198.755Y-95.25
X202.882Y-76.2
X203.517Y-57.15
X207.645Y-95.25
X208.28Y-114.3
X212.407Y-57.15
X213.042Y-76.2
X217.17Y-114.3
X217.805Y-95.25
X221.932Y-76.2
X222.567Y-57.15
X226.695Y-95.25
X227.33Y-114.3
X231.457Y-57.15
X232.093Y-76.2
X236.22Y-114.3
X236.855Y-95.25
X240.982Y-76.2
X241.617Y-57.15
X245.745Y-95.25
X246.38Y-114.3
X250.507Y-57.15
X251.142Y-76.2
X252.889Y-133.35
X255.27Y-114.3
X255.905Y-95.25
X260.032Y-76.2
X260.667Y-57.15
X263.049Y-133.35
X264.795Y-95.25
X265.43Y-114.3
X269.558Y-57.15
X270.192Y-76.2
X274.32Y-114.3
X274.955Y-95.25
X276.701Y-133.35
X279.082Y-76.2
X279.717Y-57.15
X283.845Y-95.25
X284.48Y-114.3
X286.861Y-133.35
X288.607Y-57.15
X289.243Y-76.2
X294.005Y-95.25
X298.132Y-76.2
X298.767Y-57.15
X300.514Y-114.3
X307.657Y-133.35
X308.292Y-76.2
X310.674Y-114.3
X314.801Y-95.25
X317.183Y-57.15
X317.817Y-133.35
X321.945Y-76.2
X324.961Y-95.25
X326.707Y-114.3
X326.707Y-133.35
X327.342Y-57.15
X332.105Y-76.2
X336.868Y-114.3
X336.868Y-133.35
X345.757Y-57.15
X345.757Y-76.2
X345.757Y-133.35
X355.917Y-57.15
X355.917Y-76.2
X355.917Y-133.35
T3
X65.056Y-107.315
X88.932Y-107.315
X136.531Y-140.335
X236.531Y-140.335
X307.943Y-88.265
X310.325Y-50.165
X331.819Y-88.265
X334.2Y-50.165
T4
X65.056Y-122.555
X65.087Y-57.15
X67.469Y-133.35
X69.85Y-76.2
X72.231Y-95.25
X76.994Y-114.3
X84.138Y-57.15
X88.932Y-122.555
X91.281Y-133.35
X93.662Y-76.2
X98.425Y-95.25
X103.188Y-57.15
X107.95Y-114.3
X112.712Y-76.2
X115.094Y-133.35
X117.475Y-95.25
X122.237Y-57.15
X127.0Y-114.3
X131.762Y-76.2
X136.525Y-95.25
X136.531Y-125.095
X141.287Y-57.15
X146.05Y-114.3
X150.812Y-76.2
X155.575Y-95.25
X160.338Y-57.15
X165.1Y-114.3
X169.862Y-76.2
X174.625Y-95.25
X179.387Y-57.15
X184.15Y-114.3
X186.531Y-133.35
X188.912Y-76.2
X193.675Y-95.25
X198.438Y-57.15
X203.2Y-114.3
X207.962Y-76.2
X212.725Y-95.25
X217.487Y-57.15
X222.25Y-114.3
X227.012Y-76.2
X231.775Y-95.25
X236.531Y-125.095
X236.537Y-57.15
X241.3Y-114.3
X246.062Y-76.2
X250.825Y-95.25
X255.587Y-57.15
X257.969Y-133.35
X260.35Y-114.3
X265.113Y-76.2
X269.875Y-95.25
X274.637Y-57.15
X279.4Y-114.3
X281.781Y-133.35
X284.162Y-76.2
X288.925Y-95.25
X293.688Y-57.15
X303.212Y-76.2
X305.594Y-114.3
X307.943Y-103.505
X310.325Y-65.405
X312.738Y-133.35
X319.881Y-95.25
X322.262Y-57.15
X327.025Y-76.2
X331.787Y-114.3
X331.787Y-133.35
X331.819Y-103.505
X334.2Y-65.405
X350.837Y-57.15
X350.837Y-76.2
X350.837Y-133.35
T0
M30
