%TF.GenerationSoftware,KiCad,Pcbnew,(6.0.10)*%
%TF.CreationDate,2023-02-18T23:00:32-08:00*%
%TF.ProjectId,KeyboardM,4b657962-6f61-4726-944d-2e6b69636164,rev?*%
%TF.SameCoordinates,Original*%
%TF.FileFunction,Drillmap*%
%TF.FilePolarity,Positive*%
%FSLAX45Y45*%
G04 Gerber Fmt 4.5, Leading zero omitted, Abs format (unit mm)*
G04 Created by KiCad (PCBNEW (6.0.10)) date 2023-02-18 23:00:32*
%MOMM*%
%LPD*%
G01*
G04 APERTURE LIST*
%ADD10C,0.100000*%
%ADD11C,0.200000*%
%ADD12C,0.040000*%
%ADD13C,0.060000*%
%ADD14C,0.104000*%
%ADD15C,0.147000*%
G04 APERTURE END LIST*
D10*
X21431250Y-4762500D02*
X35877500Y-4762500D01*
X5715000Y-4762500D02*
X20161250Y-4762500D01*
X21351870Y-4683125D02*
G75*
G03*
X21431250Y-4762500I79380J5D01*
G01*
X35877500Y-14287500D02*
G75*
G03*
X36036250Y-14128750I0J158750D01*
G01*
X21351875Y-4683125D02*
X21351875Y-4365625D01*
X36036250Y-4921250D02*
X36036250Y-14128750D01*
X36036250Y-4921250D02*
G75*
G03*
X35877500Y-4762500I-158750J0D01*
G01*
X5715000Y-4762500D02*
G75*
G03*
X5556250Y-4921250I0J-158750D01*
G01*
X5556250Y-14128750D02*
G75*
G03*
X5715000Y-14287500I158750J0D01*
G01*
X20240625Y-4683125D02*
X20240625Y-4365625D01*
X35877500Y-14287500D02*
X5715000Y-14287500D01*
X5556250Y-14128750D02*
X5556250Y-4921250D01*
X20161250Y-4762495D02*
G75*
G03*
X20240625Y-4683125I0J79375D01*
G01*
X20240625Y-4365625D02*
X21351875Y-4365625D01*
D11*
D12*
X7660000Y-6644000D02*
X7700000Y-6684000D01*
X7700000Y-6644000D02*
X7660000Y-6684000D01*
X7660000Y-9244000D02*
X7700000Y-9284000D01*
X7700000Y-9244000D02*
X7660000Y-9284000D01*
X7966780Y-7223636D02*
X8006780Y-7263636D01*
X8006780Y-7223636D02*
X7966780Y-7263636D01*
X8418432Y-9103544D02*
X8458432Y-9143544D01*
X8458432Y-9103544D02*
X8418432Y-9143544D01*
X9138721Y-12075613D02*
X9178721Y-12115613D01*
X9178721Y-12075613D02*
X9138721Y-12115613D01*
X9346250Y-12071060D02*
X9386250Y-12111060D01*
X9386250Y-12071060D02*
X9346250Y-12111060D01*
X9466120Y-10464841D02*
X9506120Y-10504841D01*
X9506120Y-10464841D02*
X9466120Y-10504841D01*
X9584375Y-12075494D02*
X9624375Y-12115494D01*
X9624375Y-12075494D02*
X9584375Y-12115494D01*
X10260000Y-6644000D02*
X10300000Y-6684000D01*
X10300000Y-6644000D02*
X10260000Y-6684000D01*
X10260000Y-9244000D02*
X10300000Y-9284000D01*
X10300000Y-9244000D02*
X10260000Y-9284000D01*
X10260000Y-11844000D02*
X10300000Y-11884000D01*
X10300000Y-11844000D02*
X10260000Y-11884000D01*
X12860000Y-6644000D02*
X12900000Y-6684000D01*
X12900000Y-6644000D02*
X12860000Y-6684000D01*
X12860000Y-9244000D02*
X12900000Y-9284000D01*
X12900000Y-9244000D02*
X12860000Y-9284000D01*
X15458125Y-13870625D02*
X15498125Y-13910625D01*
X15498125Y-13870625D02*
X15458125Y-13910625D01*
X15460000Y-6644000D02*
X15500000Y-6684000D01*
X15500000Y-6644000D02*
X15460000Y-6684000D01*
X15460000Y-9244000D02*
X15500000Y-9284000D01*
X15500000Y-9244000D02*
X15460000Y-9284000D01*
X15460000Y-11844000D02*
X15500000Y-11884000D01*
X15500000Y-11844000D02*
X15460000Y-11884000D01*
X15696250Y-13870625D02*
X15736250Y-13910625D01*
X15736250Y-13870625D02*
X15696250Y-13910625D01*
X15934375Y-13870625D02*
X15974375Y-13910625D01*
X15974375Y-13870625D02*
X15934375Y-13910625D01*
X16172500Y-13870625D02*
X16212500Y-13910625D01*
X16212500Y-13870625D02*
X16172500Y-13910625D01*
X16410625Y-13870625D02*
X16450625Y-13910625D01*
X16450625Y-13870625D02*
X16410625Y-13910625D01*
X18060000Y-6644000D02*
X18100000Y-6684000D01*
X18100000Y-6644000D02*
X18060000Y-6684000D01*
X18060000Y-9244000D02*
X18100000Y-9284000D01*
X18100000Y-9244000D02*
X18060000Y-9284000D01*
X19188750Y-13076875D02*
X19228750Y-13116875D01*
X19228750Y-13076875D02*
X19188750Y-13116875D01*
X19268125Y-12918125D02*
X19308125Y-12958125D01*
X19308125Y-12918125D02*
X19268125Y-12958125D01*
X19481811Y-12162967D02*
X19521811Y-12202967D01*
X19521811Y-12162967D02*
X19481811Y-12202967D01*
X19681650Y-13568185D02*
X19721650Y-13608185D01*
X19721650Y-13568185D02*
X19681650Y-13608185D01*
X19723219Y-8393750D02*
X19763219Y-8433750D01*
X19763219Y-8393750D02*
X19723219Y-8433750D01*
X19836996Y-8314375D02*
X19876996Y-8354375D01*
X19876996Y-8314375D02*
X19836996Y-8354375D01*
X19836996Y-8473125D02*
X19876996Y-8513125D01*
X19876996Y-8473125D02*
X19836996Y-8513125D01*
X19893600Y-4983800D02*
X19933600Y-5023800D01*
X19933600Y-4983800D02*
X19893600Y-5023800D01*
X19982500Y-13950000D02*
X20022500Y-13990000D01*
X20022500Y-13950000D02*
X19982500Y-13990000D01*
X20097563Y-10298750D02*
X20137563Y-10338750D01*
X20137563Y-10298750D02*
X20097563Y-10338750D01*
X20111419Y-12195437D02*
X20151419Y-12235437D01*
X20151419Y-12195437D02*
X20111419Y-12235437D01*
X20121614Y-6488750D02*
X20161614Y-6528750D01*
X20161614Y-6488750D02*
X20121614Y-6528750D01*
X20122200Y-4856800D02*
X20162200Y-4896800D01*
X20162200Y-4856800D02*
X20122200Y-4896800D01*
X20178529Y-10378493D02*
X20218529Y-10418493D01*
X20218529Y-10378493D02*
X20178529Y-10418493D01*
X20180985Y-10218900D02*
X20220985Y-10258900D01*
X20220985Y-10218900D02*
X20180985Y-10258900D01*
X20220625Y-8314375D02*
X20260625Y-8354375D01*
X20260625Y-8314375D02*
X20220625Y-8354375D01*
X20220625Y-8476396D02*
X20260625Y-8516396D01*
X20260625Y-8476396D02*
X20220625Y-8516396D01*
X20244462Y-6564780D02*
X20284462Y-6604780D01*
X20284462Y-6564780D02*
X20244462Y-6604780D01*
X20246917Y-6405186D02*
X20286917Y-6445186D01*
X20286917Y-6405186D02*
X20246917Y-6445186D01*
X20300000Y-5212400D02*
X20340000Y-5252400D01*
X20340000Y-5212400D02*
X20300000Y-5252400D01*
X20300000Y-8393750D02*
X20340000Y-8433750D01*
X20340000Y-8393750D02*
X20300000Y-8433750D01*
X20313421Y-12431391D02*
X20353421Y-12471391D01*
X20353421Y-12431391D02*
X20313421Y-12471391D01*
X20330235Y-10593394D02*
X20370235Y-10633394D01*
X20370235Y-10593394D02*
X20330235Y-10633394D01*
X20420213Y-12303331D02*
X20460213Y-12343331D01*
X20460213Y-12303331D02*
X20420213Y-12343331D01*
X20473255Y-10736415D02*
X20513255Y-10776415D01*
X20513255Y-10736415D02*
X20473255Y-10776415D01*
X20478896Y-10497783D02*
X20518896Y-10537783D01*
X20518896Y-10497783D02*
X20478896Y-10537783D01*
X20504673Y-10373795D02*
X20544673Y-10413795D01*
X20544673Y-10373795D02*
X20504673Y-10413795D01*
X20507128Y-10214201D02*
X20547128Y-10254201D01*
X20547128Y-10214201D02*
X20507128Y-10254201D01*
X20508136Y-12366042D02*
X20548136Y-12406042D01*
X20548136Y-12366042D02*
X20508136Y-12406042D01*
X20528600Y-4450400D02*
X20568600Y-4490400D01*
X20568600Y-4450400D02*
X20528600Y-4490400D01*
X20543645Y-5784895D02*
X20583645Y-5824895D01*
X20583645Y-5784895D02*
X20543645Y-5824895D01*
X20561086Y-5301383D02*
X20601086Y-5341383D01*
X20601086Y-5301383D02*
X20561086Y-5341383D01*
X20567332Y-6564780D02*
X20607332Y-6604780D01*
X20607332Y-6564780D02*
X20567332Y-6604780D01*
X20597072Y-12191444D02*
X20637072Y-12231444D01*
X20637072Y-12191444D02*
X20597072Y-12231444D01*
X20642879Y-5643194D02*
X20682879Y-5683194D01*
X20682879Y-5643194D02*
X20642879Y-5683194D01*
X20644673Y-6391682D02*
X20684673Y-6431682D01*
X20684673Y-6391682D02*
X20644673Y-6431682D01*
X20651993Y-10670880D02*
X20691993Y-10710880D01*
X20691993Y-10670880D02*
X20651993Y-10710880D01*
X20660000Y-9244000D02*
X20700000Y-9284000D01*
X20700000Y-9244000D02*
X20660000Y-9284000D01*
X20660000Y-11844000D02*
X20700000Y-11884000D01*
X20700000Y-11844000D02*
X20660000Y-11884000D01*
X20684285Y-5414317D02*
X20724285Y-5454317D01*
X20724285Y-5414317D02*
X20684285Y-5454317D01*
X20712962Y-10215429D02*
X20752962Y-10255429D01*
X20752962Y-10215429D02*
X20712962Y-10255429D01*
X20713781Y-10371200D02*
X20753781Y-10411200D01*
X20753781Y-10371200D02*
X20713781Y-10411200D01*
X20747964Y-12109611D02*
X20787964Y-12149611D01*
X20787964Y-12109611D02*
X20747964Y-12149611D01*
X20776250Y-4653600D02*
X20816250Y-4693600D01*
X20816250Y-4653600D02*
X20776250Y-4693600D01*
X20780073Y-10486328D02*
X20820073Y-10526328D01*
X20820073Y-10486328D02*
X20780073Y-10526328D01*
X20846325Y-11886250D02*
X20886325Y-11926250D01*
X20886325Y-11886250D02*
X20846325Y-11926250D01*
X20857055Y-6563552D02*
X20897055Y-6603552D01*
X20897055Y-6563552D02*
X20857055Y-6603552D01*
X20858233Y-10372567D02*
X20898233Y-10412567D01*
X20898233Y-10372567D02*
X20858233Y-10412567D01*
X20860688Y-10212974D02*
X20900688Y-10252974D01*
X20900688Y-10212974D02*
X20860688Y-10252974D01*
X20883225Y-5415352D02*
X20923225Y-5455352D01*
X20923225Y-5415352D02*
X20883225Y-5455352D01*
X20888135Y-5773823D02*
X20928135Y-5813823D01*
X20928135Y-5773823D02*
X20888135Y-5813823D01*
X20912912Y-6380156D02*
X20952912Y-6420156D01*
X20952912Y-6380156D02*
X20912912Y-6420156D01*
X20935000Y-10298750D02*
X20975000Y-10338750D01*
X20975000Y-10298750D02*
X20935000Y-10338750D01*
X20945396Y-10660653D02*
X20985396Y-10700653D01*
X20985396Y-10660653D02*
X20945396Y-10700653D01*
X20961379Y-10575106D02*
X21001379Y-10615106D01*
X21001379Y-10575106D02*
X20961379Y-10615106D01*
X21007295Y-12385870D02*
X21047295Y-12425870D01*
X21047295Y-12385870D02*
X21007295Y-12425870D01*
X21009174Y-12272198D02*
X21049174Y-12312198D01*
X21049174Y-12272198D02*
X21009174Y-12312198D01*
X21009175Y-5299746D02*
X21049175Y-5339746D01*
X21049175Y-5299746D02*
X21009175Y-5339746D01*
X21011200Y-4450400D02*
X21051200Y-4490400D01*
X21051200Y-4450400D02*
X21011200Y-4490400D01*
X21036584Y-10470259D02*
X21076584Y-10510259D01*
X21076584Y-10470259D02*
X21036584Y-10510259D01*
X21044244Y-10754693D02*
X21084244Y-10794693D01*
X21084244Y-10754693D02*
X21044244Y-10794693D01*
X21093989Y-6562324D02*
X21133989Y-6602324D01*
X21133989Y-6562324D02*
X21093989Y-6602324D01*
X21096445Y-6402731D02*
X21136445Y-6442731D01*
X21136445Y-6402731D02*
X21096445Y-6442731D01*
X21110582Y-11969796D02*
X21150582Y-12009796D01*
X21150582Y-11969796D02*
X21110582Y-12009796D01*
X21118766Y-11788651D02*
X21158766Y-11828651D01*
X21158766Y-11788651D02*
X21118766Y-11828651D01*
X21136025Y-13881225D02*
X21176025Y-13921225D01*
X21176025Y-13881225D02*
X21136025Y-13921225D01*
X21139582Y-12224458D02*
X21179582Y-12264458D01*
X21179582Y-12224458D02*
X21139582Y-12264458D01*
X21200710Y-6488750D02*
X21240710Y-6528750D01*
X21240710Y-6488750D02*
X21200710Y-6528750D01*
X21242621Y-11975798D02*
X21282621Y-12015798D01*
X21282621Y-11975798D02*
X21242621Y-12015798D01*
X21341400Y-5212400D02*
X21381400Y-5252400D01*
X21381400Y-5212400D02*
X21341400Y-5252400D01*
X21370981Y-4841854D02*
X21410981Y-4881854D01*
X21410981Y-4841854D02*
X21370981Y-4881854D01*
X21464074Y-11804610D02*
X21504074Y-11844610D01*
X21504074Y-11804610D02*
X21464074Y-11844610D01*
X21517004Y-12033825D02*
X21557004Y-12073825D01*
X21557004Y-12033825D02*
X21517004Y-12073825D01*
X21563142Y-11709838D02*
X21603142Y-11749838D01*
X21603142Y-11709838D02*
X21563142Y-11749838D01*
X21626639Y-11916847D02*
X21666639Y-11956847D01*
X21666639Y-11916847D02*
X21626639Y-11956847D01*
X21649375Y-12045000D02*
X21689375Y-12085000D01*
X21689375Y-12045000D02*
X21649375Y-12085000D01*
X21696700Y-12503697D02*
X21736700Y-12543697D01*
X21736700Y-12503697D02*
X21696700Y-12543697D01*
X21697000Y-5187000D02*
X21737000Y-5227000D01*
X21737000Y-5187000D02*
X21697000Y-5227000D01*
X21728171Y-13156529D02*
X21768171Y-13196529D01*
X21768171Y-13156529D02*
X21728171Y-13196529D01*
X21729719Y-12123359D02*
X21769719Y-12163359D01*
X21769719Y-12123359D02*
X21729719Y-12163359D01*
X21850311Y-11978459D02*
X21890311Y-12018459D01*
X21890311Y-11978459D02*
X21850311Y-12018459D01*
X21951000Y-4933000D02*
X21991000Y-4973000D01*
X21991000Y-4933000D02*
X21951000Y-4973000D01*
X22891297Y-13221067D02*
X22931297Y-13261067D01*
X22931297Y-13221067D02*
X22891297Y-13261067D01*
X22894165Y-13431893D02*
X22934165Y-13471893D01*
X22934165Y-13431893D02*
X22894165Y-13471893D01*
X22975789Y-12509063D02*
X23015789Y-12549063D01*
X23015789Y-12509063D02*
X22975789Y-12549063D01*
X23260000Y-6644000D02*
X23300000Y-6684000D01*
X23300000Y-6644000D02*
X23260000Y-6684000D01*
X23260000Y-9244000D02*
X23300000Y-9284000D01*
X23300000Y-9244000D02*
X23260000Y-9284000D01*
X23260000Y-11844000D02*
X23300000Y-11884000D01*
X23300000Y-11844000D02*
X23260000Y-11884000D01*
X23263297Y-12452274D02*
X23303297Y-12492274D01*
X23303297Y-12452274D02*
X23263297Y-12492274D01*
X23574296Y-13220243D02*
X23614296Y-13260243D01*
X23614296Y-13220243D02*
X23574296Y-13260243D01*
X23648059Y-12124242D02*
X23688059Y-12164242D01*
X23688059Y-12124242D02*
X23648059Y-12164242D01*
X23996524Y-12218412D02*
X24036524Y-12258412D01*
X24036524Y-12218412D02*
X23996524Y-12258412D01*
X24983125Y-13394375D02*
X25023125Y-13434375D01*
X25023125Y-13394375D02*
X24983125Y-13434375D01*
X25062500Y-13473750D02*
X25102500Y-13513750D01*
X25102500Y-13473750D02*
X25062500Y-13513750D01*
X25141875Y-13553125D02*
X25181875Y-13593125D01*
X25181875Y-13553125D02*
X25141875Y-13593125D01*
X25221250Y-13632500D02*
X25261250Y-13672500D01*
X25261250Y-13632500D02*
X25221250Y-13672500D01*
X25300625Y-13711875D02*
X25340625Y-13751875D01*
X25340625Y-13711875D02*
X25300625Y-13751875D01*
X25380000Y-13791250D02*
X25420000Y-13831250D01*
X25420000Y-13791250D02*
X25380000Y-13831250D01*
X25459375Y-13870625D02*
X25499375Y-13910625D01*
X25499375Y-13870625D02*
X25459375Y-13910625D01*
X25860000Y-6644000D02*
X25900000Y-6684000D01*
X25900000Y-6644000D02*
X25860000Y-6684000D01*
X25860000Y-9244000D02*
X25900000Y-9284000D01*
X25900000Y-9244000D02*
X25860000Y-9284000D01*
X26173750Y-14108750D02*
X26213750Y-14148750D01*
X26213750Y-14108750D02*
X26173750Y-14148750D01*
X28460000Y-6644000D02*
X28500000Y-6684000D01*
X28500000Y-6644000D02*
X28460000Y-6684000D01*
X28460000Y-11844000D02*
X28500000Y-11884000D01*
X28500000Y-11844000D02*
X28460000Y-11884000D01*
X31060000Y-9244000D02*
X31100000Y-9284000D01*
X31100000Y-9244000D02*
X31060000Y-9284000D01*
X31060000Y-11844000D02*
X31100000Y-11884000D01*
X31100000Y-11844000D02*
X31060000Y-11884000D01*
X33660000Y-6644000D02*
X33700000Y-6684000D01*
X33700000Y-6644000D02*
X33660000Y-6684000D01*
X33660000Y-9244000D02*
X33700000Y-9284000D01*
X33700000Y-9244000D02*
X33660000Y-9284000D01*
X33660000Y-11844000D02*
X33700000Y-11884000D01*
X33700000Y-11844000D02*
X33660000Y-11884000D01*
D13*
X20394250Y-4546250D02*
G75*
G03*
X20394250Y-4546250I-30000J0D01*
G01*
D11*
X20334250Y-4516250D02*
X20334250Y-4576250D01*
X20394250Y-4516250D02*
X20394250Y-4576250D01*
X20334250Y-4576250D02*
G75*
G03*
X20394250Y-4576250I30000J0D01*
G01*
X20394250Y-4516250D02*
G75*
G03*
X20334250Y-4516250I-30000J0D01*
G01*
D13*
X20394250Y-4964250D02*
G75*
G03*
X20394250Y-4964250I-30000J0D01*
G01*
D11*
X20334250Y-4909250D02*
X20334250Y-5019250D01*
X20394250Y-4909250D02*
X20394250Y-5019250D01*
X20334250Y-5019250D02*
G75*
G03*
X20394250Y-5019250I30000J0D01*
G01*
X20394250Y-4909250D02*
G75*
G03*
X20334250Y-4909250I-30000J0D01*
G01*
D13*
X21258250Y-4546250D02*
G75*
G03*
X21258250Y-4546250I-30000J0D01*
G01*
D11*
X21198250Y-4516250D02*
X21198250Y-4576250D01*
X21258250Y-4516250D02*
X21258250Y-4576250D01*
X21198250Y-4576250D02*
G75*
G03*
X21258250Y-4576250I30000J0D01*
G01*
X21258250Y-4516250D02*
G75*
G03*
X21198250Y-4516250I-30000J0D01*
G01*
D13*
X21258250Y-4964250D02*
G75*
G03*
X21258250Y-4964250I-30000J0D01*
G01*
D11*
X21198250Y-4909250D02*
X21198250Y-5019250D01*
X21258250Y-4909250D02*
X21258250Y-5019250D01*
X21198250Y-5019250D02*
G75*
G03*
X21258250Y-5019250I30000J0D01*
G01*
X21258250Y-4909250D02*
G75*
G03*
X21198250Y-4909250I-30000J0D01*
G01*
D10*
X24095312Y-12396325D02*
X24095312Y-12496325D01*
X24045312Y-12446325D02*
X24145312Y-12446325D01*
X24095312Y-12650325D02*
X24095312Y-12750325D01*
X24045312Y-12700325D02*
X24145312Y-12700325D01*
X24095312Y-12904325D02*
X24095312Y-13004325D01*
X24045312Y-12954325D02*
X24145312Y-12954325D01*
X24349312Y-12396325D02*
X24349312Y-12496325D01*
X24299312Y-12446325D02*
X24399312Y-12446325D01*
X24349312Y-12650325D02*
X24349312Y-12750325D01*
X24299312Y-12700325D02*
X24399312Y-12700325D01*
X24349312Y-12904325D02*
X24349312Y-13004325D01*
X24299312Y-12954325D02*
X24399312Y-12954325D01*
D14*
X6418520Y-6259770D02*
X6418520Y-6186230D01*
X6344980Y-6186230D01*
X6344980Y-6259770D01*
X6418520Y-6259770D01*
X6656645Y-13879770D02*
X6656645Y-13806230D01*
X6583105Y-13806230D01*
X6583105Y-13879770D01*
X6656645Y-13879770D01*
X6672520Y-6259770D02*
X6672520Y-6186230D01*
X6598980Y-6186230D01*
X6598980Y-6259770D01*
X6672520Y-6259770D01*
X6894770Y-8164770D02*
X6894770Y-8091230D01*
X6821230Y-8091230D01*
X6821230Y-8164770D01*
X6894770Y-8164770D01*
X6910645Y-13879770D02*
X6910645Y-13806230D01*
X6837105Y-13806230D01*
X6837105Y-13879770D01*
X6910645Y-13879770D01*
X7132895Y-10069770D02*
X7132895Y-9996230D01*
X7059355Y-9996230D01*
X7059355Y-10069770D01*
X7132895Y-10069770D01*
X7148770Y-8164770D02*
X7148770Y-8091230D01*
X7075230Y-8091230D01*
X7075230Y-8164770D01*
X7148770Y-8164770D01*
X7386895Y-10069770D02*
X7386895Y-9996230D01*
X7313355Y-9996230D01*
X7313355Y-10069770D01*
X7386895Y-10069770D01*
X7609145Y-11974770D02*
X7609145Y-11901230D01*
X7535605Y-11901230D01*
X7535605Y-11974770D01*
X7609145Y-11974770D01*
X7863145Y-11974770D02*
X7863145Y-11901230D01*
X7789605Y-11901230D01*
X7789605Y-11974770D01*
X7863145Y-11974770D01*
X8323520Y-6259770D02*
X8323520Y-6186230D01*
X8249980Y-6186230D01*
X8249980Y-6259770D01*
X8323520Y-6259770D01*
X8577520Y-6259770D02*
X8577520Y-6186230D01*
X8503980Y-6186230D01*
X8503980Y-6259770D01*
X8577520Y-6259770D01*
X9037895Y-13879770D02*
X9037895Y-13806230D01*
X8964355Y-13806230D01*
X8964355Y-13879770D01*
X9037895Y-13879770D01*
X9276020Y-8164770D02*
X9276020Y-8091230D01*
X9202480Y-8091230D01*
X9202480Y-8164770D01*
X9276020Y-8164770D01*
X9291895Y-13879770D02*
X9291895Y-13806230D01*
X9218355Y-13806230D01*
X9218355Y-13879770D01*
X9291895Y-13879770D01*
X9530020Y-8164770D02*
X9530020Y-8091230D01*
X9456480Y-8091230D01*
X9456480Y-8164770D01*
X9530020Y-8164770D01*
X9752270Y-10069770D02*
X9752270Y-9996230D01*
X9678730Y-9996230D01*
X9678730Y-10069770D01*
X9752270Y-10069770D01*
X10006270Y-10069770D02*
X10006270Y-9996230D01*
X9932730Y-9996230D01*
X9932730Y-10069770D01*
X10006270Y-10069770D01*
X10228520Y-6259770D02*
X10228520Y-6186230D01*
X10154980Y-6186230D01*
X10154980Y-6259770D01*
X10228520Y-6259770D01*
X10482520Y-6259770D02*
X10482520Y-6186230D01*
X10408980Y-6186230D01*
X10408980Y-6259770D01*
X10482520Y-6259770D01*
X10704770Y-11974770D02*
X10704770Y-11901230D01*
X10631230Y-11901230D01*
X10631230Y-11974770D01*
X10704770Y-11974770D01*
X10958770Y-11974770D02*
X10958770Y-11901230D01*
X10885230Y-11901230D01*
X10885230Y-11974770D01*
X10958770Y-11974770D01*
X11181020Y-8164770D02*
X11181020Y-8091230D01*
X11107480Y-8091230D01*
X11107480Y-8164770D01*
X11181020Y-8164770D01*
X11419145Y-13879770D02*
X11419145Y-13806230D01*
X11345605Y-13806230D01*
X11345605Y-13879770D01*
X11419145Y-13879770D01*
X11435020Y-8164770D02*
X11435020Y-8091230D01*
X11361480Y-8091230D01*
X11361480Y-8164770D01*
X11435020Y-8164770D01*
X11657270Y-10069770D02*
X11657270Y-9996230D01*
X11583730Y-9996230D01*
X11583730Y-10069770D01*
X11657270Y-10069770D01*
X11673145Y-13879770D02*
X11673145Y-13806230D01*
X11599605Y-13806230D01*
X11599605Y-13879770D01*
X11673145Y-13879770D01*
X11911270Y-10069770D02*
X11911270Y-9996230D01*
X11837730Y-9996230D01*
X11837730Y-10069770D01*
X11911270Y-10069770D01*
X12133520Y-6259770D02*
X12133520Y-6186230D01*
X12059980Y-6186230D01*
X12059980Y-6259770D01*
X12133520Y-6259770D01*
X12387520Y-6259770D02*
X12387520Y-6186230D01*
X12313980Y-6186230D01*
X12313980Y-6259770D01*
X12387520Y-6259770D01*
X12609770Y-11974770D02*
X12609770Y-11901230D01*
X12536230Y-11901230D01*
X12536230Y-11974770D01*
X12609770Y-11974770D01*
X12863770Y-11974770D02*
X12863770Y-11901230D01*
X12790230Y-11901230D01*
X12790230Y-11974770D01*
X12863770Y-11974770D01*
X13086020Y-8164770D02*
X13086020Y-8091230D01*
X13012480Y-8091230D01*
X13012480Y-8164770D01*
X13086020Y-8164770D01*
X13340020Y-8164770D02*
X13340020Y-8091230D01*
X13266480Y-8091230D01*
X13266480Y-8164770D01*
X13340020Y-8164770D01*
X13562270Y-10069770D02*
X13562270Y-9996230D01*
X13488730Y-9996230D01*
X13488730Y-10069770D01*
X13562270Y-10069770D01*
X13816270Y-10069770D02*
X13816270Y-9996230D01*
X13742730Y-9996230D01*
X13742730Y-10069770D01*
X13816270Y-10069770D01*
X14038520Y-6259770D02*
X14038520Y-6186230D01*
X13964980Y-6186230D01*
X13964980Y-6259770D01*
X14038520Y-6259770D01*
X14292520Y-6259770D02*
X14292520Y-6186230D01*
X14218980Y-6186230D01*
X14218980Y-6259770D01*
X14292520Y-6259770D01*
X14514770Y-11974770D02*
X14514770Y-11901230D01*
X14441230Y-11901230D01*
X14441230Y-11974770D01*
X14514770Y-11974770D01*
X14768770Y-11974770D02*
X14768770Y-11901230D01*
X14695230Y-11901230D01*
X14695230Y-11974770D01*
X14768770Y-11974770D01*
X14991020Y-8164770D02*
X14991020Y-8091230D01*
X14917480Y-8091230D01*
X14917480Y-8164770D01*
X14991020Y-8164770D01*
X15245020Y-8164770D02*
X15245020Y-8091230D01*
X15171480Y-8091230D01*
X15171480Y-8164770D01*
X15245020Y-8164770D01*
X15467270Y-10069770D02*
X15467270Y-9996230D01*
X15393730Y-9996230D01*
X15393730Y-10069770D01*
X15467270Y-10069770D01*
X15721270Y-10069770D02*
X15721270Y-9996230D01*
X15647730Y-9996230D01*
X15647730Y-10069770D01*
X15721270Y-10069770D01*
X15943520Y-6259770D02*
X15943520Y-6186230D01*
X15869980Y-6186230D01*
X15869980Y-6259770D01*
X15943520Y-6259770D01*
X16197520Y-6259770D02*
X16197520Y-6186230D01*
X16123980Y-6186230D01*
X16123980Y-6259770D01*
X16197520Y-6259770D01*
X16419770Y-11974770D02*
X16419770Y-11901230D01*
X16346230Y-11901230D01*
X16346230Y-11974770D01*
X16419770Y-11974770D01*
X16673770Y-11974770D02*
X16673770Y-11901230D01*
X16600230Y-11901230D01*
X16600230Y-11974770D01*
X16673770Y-11974770D01*
X16896020Y-8164770D02*
X16896020Y-8091230D01*
X16822480Y-8091230D01*
X16822480Y-8164770D01*
X16896020Y-8164770D01*
X17150020Y-8164770D02*
X17150020Y-8091230D01*
X17076480Y-8091230D01*
X17076480Y-8164770D01*
X17150020Y-8164770D01*
X17372270Y-10069770D02*
X17372270Y-9996230D01*
X17298730Y-9996230D01*
X17298730Y-10069770D01*
X17372270Y-10069770D01*
X17626270Y-10069770D02*
X17626270Y-9996230D01*
X17552730Y-9996230D01*
X17552730Y-10069770D01*
X17626270Y-10069770D01*
X17848520Y-6259770D02*
X17848520Y-6186230D01*
X17774980Y-6186230D01*
X17774980Y-6259770D01*
X17848520Y-6259770D01*
X18102520Y-6259770D02*
X18102520Y-6186230D01*
X18028980Y-6186230D01*
X18028980Y-6259770D01*
X18102520Y-6259770D01*
X18324770Y-11974770D02*
X18324770Y-11901230D01*
X18251230Y-11901230D01*
X18251230Y-11974770D01*
X18324770Y-11974770D01*
X18562895Y-13879770D02*
X18562895Y-13806230D01*
X18489355Y-13806230D01*
X18489355Y-13879770D01*
X18562895Y-13879770D01*
X18578770Y-11974770D02*
X18578770Y-11901230D01*
X18505230Y-11901230D01*
X18505230Y-11974770D01*
X18578770Y-11974770D01*
X18801020Y-8164770D02*
X18801020Y-8091230D01*
X18727480Y-8091230D01*
X18727480Y-8164770D01*
X18801020Y-8164770D01*
X18816895Y-13879770D02*
X18816895Y-13806230D01*
X18743355Y-13806230D01*
X18743355Y-13879770D01*
X18816895Y-13879770D01*
X19055020Y-8164770D02*
X19055020Y-8091230D01*
X18981480Y-8091230D01*
X18981480Y-8164770D01*
X19055020Y-8164770D01*
X19277270Y-10069770D02*
X19277270Y-9996230D01*
X19203730Y-9996230D01*
X19203730Y-10069770D01*
X19277270Y-10069770D01*
X19531270Y-10069770D02*
X19531270Y-9996230D01*
X19457730Y-9996230D01*
X19457730Y-10069770D01*
X19531270Y-10069770D01*
X19753520Y-6259770D02*
X19753520Y-6186230D01*
X19679980Y-6186230D01*
X19679980Y-6259770D01*
X19753520Y-6259770D01*
X20007520Y-6259770D02*
X20007520Y-6186230D01*
X19933980Y-6186230D01*
X19933980Y-6259770D01*
X20007520Y-6259770D01*
X20229770Y-11974770D02*
X20229770Y-11901230D01*
X20156230Y-11901230D01*
X20156230Y-11974770D01*
X20229770Y-11974770D01*
X20483770Y-11974770D02*
X20483770Y-11901230D01*
X20410230Y-11901230D01*
X20410230Y-11974770D01*
X20483770Y-11974770D01*
X20706020Y-8164770D02*
X20706020Y-8091230D01*
X20632480Y-8091230D01*
X20632480Y-8164770D01*
X20706020Y-8164770D01*
X20960020Y-8164770D02*
X20960020Y-8091230D01*
X20886480Y-8091230D01*
X20886480Y-8164770D01*
X20960020Y-8164770D01*
X21182270Y-10069770D02*
X21182270Y-9996230D01*
X21108730Y-9996230D01*
X21108730Y-10069770D01*
X21182270Y-10069770D01*
X21436270Y-10069770D02*
X21436270Y-9996230D01*
X21362730Y-9996230D01*
X21362730Y-10069770D01*
X21436270Y-10069770D01*
X21658520Y-6259770D02*
X21658520Y-6186230D01*
X21584980Y-6186230D01*
X21584980Y-6259770D01*
X21658520Y-6259770D01*
X21912520Y-6259770D02*
X21912520Y-6186230D01*
X21838980Y-6186230D01*
X21838980Y-6259770D01*
X21912520Y-6259770D01*
X22134770Y-11974770D02*
X22134770Y-11901230D01*
X22061230Y-11901230D01*
X22061230Y-11974770D01*
X22134770Y-11974770D01*
X22388770Y-11974770D02*
X22388770Y-11901230D01*
X22315230Y-11901230D01*
X22315230Y-11974770D01*
X22388770Y-11974770D01*
X22611020Y-8164770D02*
X22611020Y-8091230D01*
X22537480Y-8091230D01*
X22537480Y-8164770D01*
X22611020Y-8164770D01*
X22865020Y-8164770D02*
X22865020Y-8091230D01*
X22791480Y-8091230D01*
X22791480Y-8164770D01*
X22865020Y-8164770D01*
X23087270Y-10069770D02*
X23087270Y-9996230D01*
X23013730Y-9996230D01*
X23013730Y-10069770D01*
X23087270Y-10069770D01*
X23341270Y-10069770D02*
X23341270Y-9996230D01*
X23267730Y-9996230D01*
X23267730Y-10069770D01*
X23341270Y-10069770D01*
X23563520Y-6259770D02*
X23563520Y-6186230D01*
X23489980Y-6186230D01*
X23489980Y-6259770D01*
X23563520Y-6259770D01*
X23817520Y-6259770D02*
X23817520Y-6186230D01*
X23743980Y-6186230D01*
X23743980Y-6259770D01*
X23817520Y-6259770D01*
X24039770Y-11974770D02*
X24039770Y-11901230D01*
X23966230Y-11901230D01*
X23966230Y-11974770D01*
X24039770Y-11974770D01*
X24293770Y-11974770D02*
X24293770Y-11901230D01*
X24220230Y-11901230D01*
X24220230Y-11974770D01*
X24293770Y-11974770D01*
X24516020Y-8164770D02*
X24516020Y-8091230D01*
X24442480Y-8091230D01*
X24442480Y-8164770D01*
X24516020Y-8164770D01*
X24770020Y-8164770D02*
X24770020Y-8091230D01*
X24696480Y-8091230D01*
X24696480Y-8164770D01*
X24770020Y-8164770D01*
X24992270Y-10069770D02*
X24992270Y-9996230D01*
X24918730Y-9996230D01*
X24918730Y-10069770D01*
X24992270Y-10069770D01*
X25246270Y-10069770D02*
X25246270Y-9996230D01*
X25172730Y-9996230D01*
X25172730Y-10069770D01*
X25246270Y-10069770D01*
X25468520Y-6259770D02*
X25468520Y-6186230D01*
X25394980Y-6186230D01*
X25394980Y-6259770D01*
X25468520Y-6259770D01*
X25706645Y-13879770D02*
X25706645Y-13806230D01*
X25633105Y-13806230D01*
X25633105Y-13879770D01*
X25706645Y-13879770D01*
X25722520Y-6259770D02*
X25722520Y-6186230D01*
X25648980Y-6186230D01*
X25648980Y-6259770D01*
X25722520Y-6259770D01*
X25944770Y-11974770D02*
X25944770Y-11901230D01*
X25871230Y-11901230D01*
X25871230Y-11974770D01*
X25944770Y-11974770D01*
X25960645Y-13879770D02*
X25960645Y-13806230D01*
X25887105Y-13806230D01*
X25887105Y-13879770D01*
X25960645Y-13879770D01*
X26198770Y-11974770D02*
X26198770Y-11901230D01*
X26125230Y-11901230D01*
X26125230Y-11974770D01*
X26198770Y-11974770D01*
X26421020Y-8164770D02*
X26421020Y-8091230D01*
X26347480Y-8091230D01*
X26347480Y-8164770D01*
X26421020Y-8164770D01*
X26675020Y-8164770D02*
X26675020Y-8091230D01*
X26601480Y-8091230D01*
X26601480Y-8164770D01*
X26675020Y-8164770D01*
X26897270Y-10069770D02*
X26897270Y-9996230D01*
X26823730Y-9996230D01*
X26823730Y-10069770D01*
X26897270Y-10069770D01*
X27151270Y-10069770D02*
X27151270Y-9996230D01*
X27077730Y-9996230D01*
X27077730Y-10069770D01*
X27151270Y-10069770D01*
X27373520Y-6259770D02*
X27373520Y-6186230D01*
X27299980Y-6186230D01*
X27299980Y-6259770D01*
X27373520Y-6259770D01*
X27627520Y-6259770D02*
X27627520Y-6186230D01*
X27553980Y-6186230D01*
X27553980Y-6259770D01*
X27627520Y-6259770D01*
X27849770Y-11974770D02*
X27849770Y-11901230D01*
X27776230Y-11901230D01*
X27776230Y-11974770D01*
X27849770Y-11974770D01*
X28087895Y-13879770D02*
X28087895Y-13806230D01*
X28014355Y-13806230D01*
X28014355Y-13879770D01*
X28087895Y-13879770D01*
X28103770Y-11974770D02*
X28103770Y-11901230D01*
X28030230Y-11901230D01*
X28030230Y-11974770D01*
X28103770Y-11974770D01*
X28326020Y-8164770D02*
X28326020Y-8091230D01*
X28252480Y-8091230D01*
X28252480Y-8164770D01*
X28326020Y-8164770D01*
X28341895Y-13879770D02*
X28341895Y-13806230D01*
X28268355Y-13806230D01*
X28268355Y-13879770D01*
X28341895Y-13879770D01*
X28580020Y-8164770D02*
X28580020Y-8091230D01*
X28506480Y-8091230D01*
X28506480Y-8164770D01*
X28580020Y-8164770D01*
X28802270Y-10069770D02*
X28802270Y-9996230D01*
X28728730Y-9996230D01*
X28728730Y-10069770D01*
X28802270Y-10069770D01*
X29056270Y-10069770D02*
X29056270Y-9996230D01*
X28982730Y-9996230D01*
X28982730Y-10069770D01*
X29056270Y-10069770D01*
X29278520Y-6259770D02*
X29278520Y-6186230D01*
X29204980Y-6186230D01*
X29204980Y-6259770D01*
X29278520Y-6259770D01*
X29532520Y-6259770D02*
X29532520Y-6186230D01*
X29458980Y-6186230D01*
X29458980Y-6259770D01*
X29532520Y-6259770D01*
X30231020Y-8164770D02*
X30231020Y-8091230D01*
X30157480Y-8091230D01*
X30157480Y-8164770D01*
X30231020Y-8164770D01*
X30469145Y-11974770D02*
X30469145Y-11901230D01*
X30395605Y-11901230D01*
X30395605Y-11974770D01*
X30469145Y-11974770D01*
X30485020Y-8164770D02*
X30485020Y-8091230D01*
X30411480Y-8091230D01*
X30411480Y-8164770D01*
X30485020Y-8164770D01*
X30723145Y-11974770D02*
X30723145Y-11901230D01*
X30649605Y-11901230D01*
X30649605Y-11974770D01*
X30723145Y-11974770D01*
X31183520Y-13879770D02*
X31183520Y-13806230D01*
X31109980Y-13806230D01*
X31109980Y-13879770D01*
X31183520Y-13879770D01*
X31437520Y-13879770D02*
X31437520Y-13806230D01*
X31363980Y-13806230D01*
X31363980Y-13879770D01*
X31437520Y-13879770D01*
X31897895Y-10069770D02*
X31897895Y-9996230D01*
X31824355Y-9996230D01*
X31824355Y-10069770D01*
X31897895Y-10069770D01*
X32136020Y-6259770D02*
X32136020Y-6186230D01*
X32062480Y-6186230D01*
X32062480Y-6259770D01*
X32136020Y-6259770D01*
X32151895Y-10069770D02*
X32151895Y-9996230D01*
X32078355Y-9996230D01*
X32078355Y-10069770D01*
X32151895Y-10069770D01*
X32390020Y-6259770D02*
X32390020Y-6186230D01*
X32316480Y-6186230D01*
X32316480Y-6259770D01*
X32390020Y-6259770D01*
X32612270Y-8164770D02*
X32612270Y-8091230D01*
X32538730Y-8091230D01*
X32538730Y-8164770D01*
X32612270Y-8164770D01*
X32866270Y-8164770D02*
X32866270Y-8091230D01*
X32792730Y-8091230D01*
X32792730Y-8164770D01*
X32866270Y-8164770D01*
X33088520Y-11974770D02*
X33088520Y-11901230D01*
X33014980Y-11901230D01*
X33014980Y-11974770D01*
X33088520Y-11974770D01*
X33088520Y-13879770D02*
X33088520Y-13806230D01*
X33014980Y-13806230D01*
X33014980Y-13879770D01*
X33088520Y-13879770D01*
X33342520Y-11974770D02*
X33342520Y-11901230D01*
X33268980Y-11901230D01*
X33268980Y-11974770D01*
X33342520Y-11974770D01*
X33342520Y-13879770D02*
X33342520Y-13806230D01*
X33268980Y-13806230D01*
X33268980Y-13879770D01*
X33342520Y-13879770D01*
X34993520Y-6259770D02*
X34993520Y-6186230D01*
X34919980Y-6186230D01*
X34919980Y-6259770D01*
X34993520Y-6259770D01*
X34993520Y-8164770D02*
X34993520Y-8091230D01*
X34919980Y-8091230D01*
X34919980Y-8164770D01*
X34993520Y-8164770D01*
X34993520Y-13879770D02*
X34993520Y-13806230D01*
X34919980Y-13806230D01*
X34919980Y-13879770D01*
X34993520Y-13879770D01*
X35247520Y-6259770D02*
X35247520Y-6186230D01*
X35173980Y-6186230D01*
X35173980Y-6259770D01*
X35247520Y-6259770D01*
X35247520Y-8164770D02*
X35247520Y-8091230D01*
X35173980Y-8091230D01*
X35173980Y-8164770D01*
X35247520Y-8164770D01*
X35247520Y-13879770D02*
X35247520Y-13806230D01*
X35173980Y-13806230D01*
X35173980Y-13879770D01*
X35247520Y-13879770D01*
D15*
X6127750Y-5534500D02*
X6201250Y-5461000D01*
X6127750Y-5387500D01*
X6054250Y-5461000D01*
X6127750Y-5534500D01*
X6365875Y-13154500D02*
X6439375Y-13081000D01*
X6365875Y-13007500D01*
X6292375Y-13081000D01*
X6365875Y-13154500D01*
X6604000Y-7439500D02*
X6677500Y-7366000D01*
X6604000Y-7292500D01*
X6530500Y-7366000D01*
X6604000Y-7439500D01*
X6762750Y-5280500D02*
X6836250Y-5207000D01*
X6762750Y-5133500D01*
X6689250Y-5207000D01*
X6762750Y-5280500D01*
X6842125Y-9344500D02*
X6915625Y-9271000D01*
X6842125Y-9197500D01*
X6768625Y-9271000D01*
X6842125Y-9344500D01*
X7000875Y-12900500D02*
X7074375Y-12827000D01*
X7000875Y-12753500D01*
X6927375Y-12827000D01*
X7000875Y-12900500D01*
X7239000Y-7185500D02*
X7312500Y-7112000D01*
X7239000Y-7038500D01*
X7165500Y-7112000D01*
X7239000Y-7185500D01*
X7318375Y-11249500D02*
X7391875Y-11176000D01*
X7318375Y-11102500D01*
X7244875Y-11176000D01*
X7318375Y-11249500D01*
X7477125Y-9090500D02*
X7550625Y-9017000D01*
X7477125Y-8943500D01*
X7403625Y-9017000D01*
X7477125Y-9090500D01*
X7953375Y-10995500D02*
X8026875Y-10922000D01*
X7953375Y-10848500D01*
X7879875Y-10922000D01*
X7953375Y-10995500D01*
X8032750Y-5534500D02*
X8106250Y-5461000D01*
X8032750Y-5387500D01*
X7959250Y-5461000D01*
X8032750Y-5534500D01*
X8667750Y-5280500D02*
X8741250Y-5207000D01*
X8667750Y-5133500D01*
X8594250Y-5207000D01*
X8667750Y-5280500D01*
X8747125Y-13154500D02*
X8820625Y-13081000D01*
X8747125Y-13007500D01*
X8673625Y-13081000D01*
X8747125Y-13154500D01*
X8985250Y-7439500D02*
X9058750Y-7366000D01*
X8985250Y-7292500D01*
X8911750Y-7366000D01*
X8985250Y-7439500D01*
X9382125Y-12900500D02*
X9455625Y-12827000D01*
X9382125Y-12753500D01*
X9308625Y-12827000D01*
X9382125Y-12900500D01*
X9461500Y-9344500D02*
X9535000Y-9271000D01*
X9461500Y-9197500D01*
X9388000Y-9271000D01*
X9461500Y-9344500D01*
X9620250Y-7185500D02*
X9693750Y-7112000D01*
X9620250Y-7038500D01*
X9546750Y-7112000D01*
X9620250Y-7185500D01*
X9937750Y-5534500D02*
X10011250Y-5461000D01*
X9937750Y-5387500D01*
X9864250Y-5461000D01*
X9937750Y-5534500D01*
X10096500Y-9090500D02*
X10170000Y-9017000D01*
X10096500Y-8943500D01*
X10023000Y-9017000D01*
X10096500Y-9090500D01*
X10414000Y-11249500D02*
X10487500Y-11176000D01*
X10414000Y-11102500D01*
X10340500Y-11176000D01*
X10414000Y-11249500D01*
X10572750Y-5280500D02*
X10646250Y-5207000D01*
X10572750Y-5133500D01*
X10499250Y-5207000D01*
X10572750Y-5280500D01*
X10890250Y-7439500D02*
X10963750Y-7366000D01*
X10890250Y-7292500D01*
X10816750Y-7366000D01*
X10890250Y-7439500D01*
X11049000Y-10995500D02*
X11122500Y-10922000D01*
X11049000Y-10848500D01*
X10975500Y-10922000D01*
X11049000Y-10995500D01*
X11128375Y-13154500D02*
X11201875Y-13081000D01*
X11128375Y-13007500D01*
X11054875Y-13081000D01*
X11128375Y-13154500D01*
X11366500Y-9344500D02*
X11440000Y-9271000D01*
X11366500Y-9197500D01*
X11293000Y-9271000D01*
X11366500Y-9344500D01*
X11525250Y-7185500D02*
X11598750Y-7112000D01*
X11525250Y-7038500D01*
X11451750Y-7112000D01*
X11525250Y-7185500D01*
X11763375Y-12900500D02*
X11836875Y-12827000D01*
X11763375Y-12753500D01*
X11689875Y-12827000D01*
X11763375Y-12900500D01*
X11842750Y-5534500D02*
X11916250Y-5461000D01*
X11842750Y-5387500D01*
X11769250Y-5461000D01*
X11842750Y-5534500D01*
X12001500Y-9090500D02*
X12075000Y-9017000D01*
X12001500Y-8943500D01*
X11928000Y-9017000D01*
X12001500Y-9090500D01*
X12319000Y-11249500D02*
X12392500Y-11176000D01*
X12319000Y-11102500D01*
X12245500Y-11176000D01*
X12319000Y-11249500D01*
X12477750Y-5280500D02*
X12551250Y-5207000D01*
X12477750Y-5133500D01*
X12404250Y-5207000D01*
X12477750Y-5280500D01*
X12795250Y-7439500D02*
X12868750Y-7366000D01*
X12795250Y-7292500D01*
X12721750Y-7366000D01*
X12795250Y-7439500D01*
X12954000Y-10995500D02*
X13027500Y-10922000D01*
X12954000Y-10848500D01*
X12880500Y-10922000D01*
X12954000Y-10995500D01*
X13271500Y-9344500D02*
X13345000Y-9271000D01*
X13271500Y-9197500D01*
X13198000Y-9271000D01*
X13271500Y-9344500D01*
X13430250Y-7185500D02*
X13503750Y-7112000D01*
X13430250Y-7038500D01*
X13356750Y-7112000D01*
X13430250Y-7185500D01*
X13747750Y-5534500D02*
X13821250Y-5461000D01*
X13747750Y-5387500D01*
X13674250Y-5461000D01*
X13747750Y-5534500D01*
X13906500Y-9090500D02*
X13980000Y-9017000D01*
X13906500Y-8943500D01*
X13833000Y-9017000D01*
X13906500Y-9090500D01*
X14224000Y-11249500D02*
X14297500Y-11176000D01*
X14224000Y-11102500D01*
X14150500Y-11176000D01*
X14224000Y-11249500D01*
X14382750Y-5280500D02*
X14456250Y-5207000D01*
X14382750Y-5133500D01*
X14309250Y-5207000D01*
X14382750Y-5280500D01*
X14700250Y-7439500D02*
X14773750Y-7366000D01*
X14700250Y-7292500D01*
X14626750Y-7366000D01*
X14700250Y-7439500D01*
X14859000Y-10995500D02*
X14932500Y-10922000D01*
X14859000Y-10848500D01*
X14785500Y-10922000D01*
X14859000Y-10995500D01*
X15176500Y-9344500D02*
X15250000Y-9271000D01*
X15176500Y-9197500D01*
X15103000Y-9271000D01*
X15176500Y-9344500D01*
X15335250Y-7185500D02*
X15408750Y-7112000D01*
X15335250Y-7038500D01*
X15261750Y-7112000D01*
X15335250Y-7185500D01*
X15652750Y-5534500D02*
X15726250Y-5461000D01*
X15652750Y-5387500D01*
X15579250Y-5461000D01*
X15652750Y-5534500D01*
X15811500Y-9090500D02*
X15885000Y-9017000D01*
X15811500Y-8943500D01*
X15738000Y-9017000D01*
X15811500Y-9090500D01*
X16129000Y-11249500D02*
X16202500Y-11176000D01*
X16129000Y-11102500D01*
X16055500Y-11176000D01*
X16129000Y-11249500D01*
X16287750Y-5280500D02*
X16361250Y-5207000D01*
X16287750Y-5133500D01*
X16214250Y-5207000D01*
X16287750Y-5280500D01*
X16605250Y-7439500D02*
X16678750Y-7366000D01*
X16605250Y-7292500D01*
X16531750Y-7366000D01*
X16605250Y-7439500D01*
X16764000Y-10995500D02*
X16837500Y-10922000D01*
X16764000Y-10848500D01*
X16690500Y-10922000D01*
X16764000Y-10995500D01*
X17081500Y-9344500D02*
X17155000Y-9271000D01*
X17081500Y-9197500D01*
X17008000Y-9271000D01*
X17081500Y-9344500D01*
X17240250Y-7185500D02*
X17313750Y-7112000D01*
X17240250Y-7038500D01*
X17166750Y-7112000D01*
X17240250Y-7185500D01*
X17557750Y-5534500D02*
X17631250Y-5461000D01*
X17557750Y-5387500D01*
X17484250Y-5461000D01*
X17557750Y-5534500D01*
X17716500Y-9090500D02*
X17790000Y-9017000D01*
X17716500Y-8943500D01*
X17643000Y-9017000D01*
X17716500Y-9090500D01*
X18034000Y-11249500D02*
X18107500Y-11176000D01*
X18034000Y-11102500D01*
X17960500Y-11176000D01*
X18034000Y-11249500D01*
X18192750Y-5280500D02*
X18266250Y-5207000D01*
X18192750Y-5133500D01*
X18119250Y-5207000D01*
X18192750Y-5280500D01*
X18272125Y-13154500D02*
X18345625Y-13081000D01*
X18272125Y-13007500D01*
X18198625Y-13081000D01*
X18272125Y-13154500D01*
X18510250Y-7439500D02*
X18583750Y-7366000D01*
X18510250Y-7292500D01*
X18436750Y-7366000D01*
X18510250Y-7439500D01*
X18669000Y-10995500D02*
X18742500Y-10922000D01*
X18669000Y-10848500D01*
X18595500Y-10922000D01*
X18669000Y-10995500D01*
X18907125Y-12900500D02*
X18980625Y-12827000D01*
X18907125Y-12753500D01*
X18833625Y-12827000D01*
X18907125Y-12900500D01*
X18986500Y-9344500D02*
X19060000Y-9271000D01*
X18986500Y-9197500D01*
X18913000Y-9271000D01*
X18986500Y-9344500D01*
X19145250Y-7185500D02*
X19218750Y-7112000D01*
X19145250Y-7038500D01*
X19071750Y-7112000D01*
X19145250Y-7185500D01*
X19462750Y-5534500D02*
X19536250Y-5461000D01*
X19462750Y-5387500D01*
X19389250Y-5461000D01*
X19462750Y-5534500D01*
X19621500Y-9090500D02*
X19695000Y-9017000D01*
X19621500Y-8943500D01*
X19548000Y-9017000D01*
X19621500Y-9090500D01*
X19939000Y-11249500D02*
X20012500Y-11176000D01*
X19939000Y-11102500D01*
X19865500Y-11176000D01*
X19939000Y-11249500D01*
X20097750Y-5280500D02*
X20171250Y-5207000D01*
X20097750Y-5133500D01*
X20024250Y-5207000D01*
X20097750Y-5280500D01*
X20415250Y-7439500D02*
X20488750Y-7366000D01*
X20415250Y-7292500D01*
X20341750Y-7366000D01*
X20415250Y-7439500D01*
X20574000Y-10995500D02*
X20647500Y-10922000D01*
X20574000Y-10848500D01*
X20500500Y-10922000D01*
X20574000Y-10995500D01*
X20891500Y-9344500D02*
X20965000Y-9271000D01*
X20891500Y-9197500D01*
X20818000Y-9271000D01*
X20891500Y-9344500D01*
X21050250Y-7185500D02*
X21123750Y-7112000D01*
X21050250Y-7038500D01*
X20976750Y-7112000D01*
X21050250Y-7185500D01*
X21367750Y-5534500D02*
X21441250Y-5461000D01*
X21367750Y-5387500D01*
X21294250Y-5461000D01*
X21367750Y-5534500D01*
X21526500Y-9090500D02*
X21600000Y-9017000D01*
X21526500Y-8943500D01*
X21453000Y-9017000D01*
X21526500Y-9090500D01*
X21844000Y-11249500D02*
X21917500Y-11176000D01*
X21844000Y-11102500D01*
X21770500Y-11176000D01*
X21844000Y-11249500D01*
X22002750Y-5280500D02*
X22076250Y-5207000D01*
X22002750Y-5133500D01*
X21929250Y-5207000D01*
X22002750Y-5280500D01*
X22320250Y-7439500D02*
X22393750Y-7366000D01*
X22320250Y-7292500D01*
X22246750Y-7366000D01*
X22320250Y-7439500D01*
X22479000Y-10995500D02*
X22552500Y-10922000D01*
X22479000Y-10848500D01*
X22405500Y-10922000D01*
X22479000Y-10995500D01*
X22796500Y-9344500D02*
X22870000Y-9271000D01*
X22796500Y-9197500D01*
X22723000Y-9271000D01*
X22796500Y-9344500D01*
X22955250Y-7185500D02*
X23028750Y-7112000D01*
X22955250Y-7038500D01*
X22881750Y-7112000D01*
X22955250Y-7185500D01*
X23272750Y-5534500D02*
X23346250Y-5461000D01*
X23272750Y-5387500D01*
X23199250Y-5461000D01*
X23272750Y-5534500D01*
X23431500Y-9090500D02*
X23505000Y-9017000D01*
X23431500Y-8943500D01*
X23358000Y-9017000D01*
X23431500Y-9090500D01*
X23749000Y-11249500D02*
X23822500Y-11176000D01*
X23749000Y-11102500D01*
X23675500Y-11176000D01*
X23749000Y-11249500D01*
X23907750Y-5280500D02*
X23981250Y-5207000D01*
X23907750Y-5133500D01*
X23834250Y-5207000D01*
X23907750Y-5280500D01*
X24225250Y-7439500D02*
X24298750Y-7366000D01*
X24225250Y-7292500D01*
X24151750Y-7366000D01*
X24225250Y-7439500D01*
X24384000Y-10995500D02*
X24457500Y-10922000D01*
X24384000Y-10848500D01*
X24310500Y-10922000D01*
X24384000Y-10995500D01*
X24701500Y-9344500D02*
X24775000Y-9271000D01*
X24701500Y-9197500D01*
X24628000Y-9271000D01*
X24701500Y-9344500D01*
X24860250Y-7185500D02*
X24933750Y-7112000D01*
X24860250Y-7038500D01*
X24786750Y-7112000D01*
X24860250Y-7185500D01*
X25177750Y-5534500D02*
X25251250Y-5461000D01*
X25177750Y-5387500D01*
X25104250Y-5461000D01*
X25177750Y-5534500D01*
X25336500Y-9090500D02*
X25410000Y-9017000D01*
X25336500Y-8943500D01*
X25263000Y-9017000D01*
X25336500Y-9090500D01*
X25415875Y-13154500D02*
X25489375Y-13081000D01*
X25415875Y-13007500D01*
X25342375Y-13081000D01*
X25415875Y-13154500D01*
X25654000Y-11249500D02*
X25727500Y-11176000D01*
X25654000Y-11102500D01*
X25580500Y-11176000D01*
X25654000Y-11249500D01*
X25812750Y-5280500D02*
X25886250Y-5207000D01*
X25812750Y-5133500D01*
X25739250Y-5207000D01*
X25812750Y-5280500D01*
X26050875Y-12900500D02*
X26124375Y-12827000D01*
X26050875Y-12753500D01*
X25977375Y-12827000D01*
X26050875Y-12900500D01*
X26130250Y-7439500D02*
X26203750Y-7366000D01*
X26130250Y-7292500D01*
X26056750Y-7366000D01*
X26130250Y-7439500D01*
X26289000Y-10995500D02*
X26362500Y-10922000D01*
X26289000Y-10848500D01*
X26215500Y-10922000D01*
X26289000Y-10995500D01*
X26606500Y-9344500D02*
X26680000Y-9271000D01*
X26606500Y-9197500D01*
X26533000Y-9271000D01*
X26606500Y-9344500D01*
X26765250Y-7185500D02*
X26838750Y-7112000D01*
X26765250Y-7038500D01*
X26691750Y-7112000D01*
X26765250Y-7185500D01*
X27082750Y-5534500D02*
X27156250Y-5461000D01*
X27082750Y-5387500D01*
X27009250Y-5461000D01*
X27082750Y-5534500D01*
X27241500Y-9090500D02*
X27315000Y-9017000D01*
X27241500Y-8943500D01*
X27168000Y-9017000D01*
X27241500Y-9090500D01*
X27559000Y-11249500D02*
X27632500Y-11176000D01*
X27559000Y-11102500D01*
X27485500Y-11176000D01*
X27559000Y-11249500D01*
X27717750Y-5280500D02*
X27791250Y-5207000D01*
X27717750Y-5133500D01*
X27644250Y-5207000D01*
X27717750Y-5280500D01*
X27797125Y-13154500D02*
X27870625Y-13081000D01*
X27797125Y-13007500D01*
X27723625Y-13081000D01*
X27797125Y-13154500D01*
X28035250Y-7439500D02*
X28108750Y-7366000D01*
X28035250Y-7292500D01*
X27961750Y-7366000D01*
X28035250Y-7439500D01*
X28194000Y-10995500D02*
X28267500Y-10922000D01*
X28194000Y-10848500D01*
X28120500Y-10922000D01*
X28194000Y-10995500D01*
X28432125Y-12900500D02*
X28505625Y-12827000D01*
X28432125Y-12753500D01*
X28358625Y-12827000D01*
X28432125Y-12900500D01*
X28511500Y-9344500D02*
X28585000Y-9271000D01*
X28511500Y-9197500D01*
X28438000Y-9271000D01*
X28511500Y-9344500D01*
X28670250Y-7185500D02*
X28743750Y-7112000D01*
X28670250Y-7038500D01*
X28596750Y-7112000D01*
X28670250Y-7185500D01*
X28987750Y-5534500D02*
X29061250Y-5461000D01*
X28987750Y-5387500D01*
X28914250Y-5461000D01*
X28987750Y-5534500D01*
X29146500Y-9090500D02*
X29220000Y-9017000D01*
X29146500Y-8943500D01*
X29073000Y-9017000D01*
X29146500Y-9090500D01*
X29622750Y-5280500D02*
X29696250Y-5207000D01*
X29622750Y-5133500D01*
X29549250Y-5207000D01*
X29622750Y-5280500D01*
X29940250Y-7439500D02*
X30013750Y-7366000D01*
X29940250Y-7292500D01*
X29866750Y-7366000D01*
X29940250Y-7439500D01*
X30178375Y-11249500D02*
X30251875Y-11176000D01*
X30178375Y-11102500D01*
X30104875Y-11176000D01*
X30178375Y-11249500D01*
X30575250Y-7185500D02*
X30648750Y-7112000D01*
X30575250Y-7038500D01*
X30501750Y-7112000D01*
X30575250Y-7185500D01*
X30813375Y-10995500D02*
X30886875Y-10922000D01*
X30813375Y-10848500D01*
X30739875Y-10922000D01*
X30813375Y-10995500D01*
X30892750Y-13154500D02*
X30966250Y-13081000D01*
X30892750Y-13007500D01*
X30819250Y-13081000D01*
X30892750Y-13154500D01*
X31527750Y-12900500D02*
X31601250Y-12827000D01*
X31527750Y-12753500D01*
X31454250Y-12827000D01*
X31527750Y-12900500D01*
X31607125Y-9344500D02*
X31680625Y-9271000D01*
X31607125Y-9197500D01*
X31533625Y-9271000D01*
X31607125Y-9344500D01*
X31845250Y-5534500D02*
X31918750Y-5461000D01*
X31845250Y-5387500D01*
X31771750Y-5461000D01*
X31845250Y-5534500D01*
X32242125Y-9090500D02*
X32315625Y-9017000D01*
X32242125Y-8943500D01*
X32168625Y-9017000D01*
X32242125Y-9090500D01*
X32321500Y-7439500D02*
X32395000Y-7366000D01*
X32321500Y-7292500D01*
X32248000Y-7366000D01*
X32321500Y-7439500D01*
X32480250Y-5280500D02*
X32553750Y-5207000D01*
X32480250Y-5133500D01*
X32406750Y-5207000D01*
X32480250Y-5280500D01*
X32797750Y-11249500D02*
X32871250Y-11176000D01*
X32797750Y-11102500D01*
X32724250Y-11176000D01*
X32797750Y-11249500D01*
X32797750Y-13154500D02*
X32871250Y-13081000D01*
X32797750Y-13007500D01*
X32724250Y-13081000D01*
X32797750Y-13154500D01*
X32956500Y-7185500D02*
X33030000Y-7112000D01*
X32956500Y-7038500D01*
X32883000Y-7112000D01*
X32956500Y-7185500D01*
X33432750Y-10995500D02*
X33506250Y-10922000D01*
X33432750Y-10848500D01*
X33359250Y-10922000D01*
X33432750Y-10995500D01*
X33432750Y-12900500D02*
X33506250Y-12827000D01*
X33432750Y-12753500D01*
X33359250Y-12827000D01*
X33432750Y-12900500D01*
X34702750Y-5534500D02*
X34776250Y-5461000D01*
X34702750Y-5387500D01*
X34629250Y-5461000D01*
X34702750Y-5534500D01*
X34702750Y-7439500D02*
X34776250Y-7366000D01*
X34702750Y-7292500D01*
X34629250Y-7366000D01*
X34702750Y-7439500D01*
X34702750Y-13154500D02*
X34776250Y-13081000D01*
X34702750Y-13007500D01*
X34629250Y-13081000D01*
X34702750Y-13154500D01*
X35337750Y-5280500D02*
X35411250Y-5207000D01*
X35337750Y-5133500D01*
X35264250Y-5207000D01*
X35337750Y-5280500D01*
X35337750Y-7185500D02*
X35411250Y-7112000D01*
X35337750Y-7038500D01*
X35264250Y-7112000D01*
X35337750Y-7185500D01*
X35337750Y-12900500D02*
X35411250Y-12827000D01*
X35337750Y-12753500D01*
X35264250Y-12827000D01*
X35337750Y-12900500D01*
D11*
X5808869Y-14602976D02*
X5808869Y-14402976D01*
X5856488Y-14402976D01*
X5885059Y-14412500D01*
X5904107Y-14431548D01*
X5913631Y-14450595D01*
X5923155Y-14488690D01*
X5923155Y-14517262D01*
X5913631Y-14555357D01*
X5904107Y-14574405D01*
X5885059Y-14593452D01*
X5856488Y-14602976D01*
X5808869Y-14602976D01*
X6008869Y-14602976D02*
X6008869Y-14469643D01*
X6008869Y-14507738D02*
X6018393Y-14488690D01*
X6027917Y-14479167D01*
X6046964Y-14469643D01*
X6066012Y-14469643D01*
X6132678Y-14602976D02*
X6132678Y-14469643D01*
X6132678Y-14402976D02*
X6123155Y-14412500D01*
X6132678Y-14422024D01*
X6142202Y-14412500D01*
X6132678Y-14402976D01*
X6132678Y-14422024D01*
X6256488Y-14602976D02*
X6237440Y-14593452D01*
X6227917Y-14574405D01*
X6227917Y-14402976D01*
X6361250Y-14602976D02*
X6342202Y-14593452D01*
X6332678Y-14574405D01*
X6332678Y-14402976D01*
X6589821Y-14602976D02*
X6589821Y-14402976D01*
X6656488Y-14545833D01*
X6723155Y-14402976D01*
X6723155Y-14602976D01*
X6904107Y-14602976D02*
X6904107Y-14498214D01*
X6894583Y-14479167D01*
X6875536Y-14469643D01*
X6837440Y-14469643D01*
X6818393Y-14479167D01*
X6904107Y-14593452D02*
X6885059Y-14602976D01*
X6837440Y-14602976D01*
X6818393Y-14593452D01*
X6808869Y-14574405D01*
X6808869Y-14555357D01*
X6818393Y-14536309D01*
X6837440Y-14526786D01*
X6885059Y-14526786D01*
X6904107Y-14517262D01*
X6999345Y-14469643D02*
X6999345Y-14669643D01*
X6999345Y-14479167D02*
X7018393Y-14469643D01*
X7056488Y-14469643D01*
X7075536Y-14479167D01*
X7085059Y-14488690D01*
X7094583Y-14507738D01*
X7094583Y-14564881D01*
X7085059Y-14583928D01*
X7075536Y-14593452D01*
X7056488Y-14602976D01*
X7018393Y-14602976D01*
X6999345Y-14593452D01*
X7180298Y-14583928D02*
X7189821Y-14593452D01*
X7180298Y-14602976D01*
X7170774Y-14593452D01*
X7180298Y-14583928D01*
X7180298Y-14602976D01*
X7180298Y-14479167D02*
X7189821Y-14488690D01*
X7180298Y-14498214D01*
X7170774Y-14488690D01*
X7180298Y-14479167D01*
X7180298Y-14498214D01*
D12*
X5511250Y-14912500D02*
X5551250Y-14952500D01*
X5551250Y-14912500D02*
X5511250Y-14952500D01*
D11*
X5846964Y-14822976D02*
X5866012Y-14822976D01*
X5885059Y-14832500D01*
X5894583Y-14842024D01*
X5904107Y-14861071D01*
X5913631Y-14899167D01*
X5913631Y-14946786D01*
X5904107Y-14984881D01*
X5894583Y-15003928D01*
X5885059Y-15013452D01*
X5866012Y-15022976D01*
X5846964Y-15022976D01*
X5827917Y-15013452D01*
X5818393Y-15003928D01*
X5808869Y-14984881D01*
X5799345Y-14946786D01*
X5799345Y-14899167D01*
X5808869Y-14861071D01*
X5818393Y-14842024D01*
X5827917Y-14832500D01*
X5846964Y-14822976D01*
X5999345Y-15003928D02*
X6008869Y-15013452D01*
X5999345Y-15022976D01*
X5989821Y-15013452D01*
X5999345Y-15003928D01*
X5999345Y-15022976D01*
X6180298Y-14889643D02*
X6180298Y-15022976D01*
X6132678Y-14813452D02*
X6085059Y-14956309D01*
X6208869Y-14956309D01*
X6323155Y-14822976D02*
X6342202Y-14822976D01*
X6361250Y-14832500D01*
X6370774Y-14842024D01*
X6380298Y-14861071D01*
X6389821Y-14899167D01*
X6389821Y-14946786D01*
X6380298Y-14984881D01*
X6370774Y-15003928D01*
X6361250Y-15013452D01*
X6342202Y-15022976D01*
X6323155Y-15022976D01*
X6304107Y-15013452D01*
X6294583Y-15003928D01*
X6285059Y-14984881D01*
X6275536Y-14946786D01*
X6275536Y-14899167D01*
X6285059Y-14861071D01*
X6294583Y-14842024D01*
X6304107Y-14832500D01*
X6323155Y-14822976D01*
X6513631Y-14822976D02*
X6532678Y-14822976D01*
X6551726Y-14832500D01*
X6561250Y-14842024D01*
X6570774Y-14861071D01*
X6580298Y-14899167D01*
X6580298Y-14946786D01*
X6570774Y-14984881D01*
X6561250Y-15003928D01*
X6551726Y-15013452D01*
X6532678Y-15022976D01*
X6513631Y-15022976D01*
X6494583Y-15013452D01*
X6485059Y-15003928D01*
X6475536Y-14984881D01*
X6466012Y-14946786D01*
X6466012Y-14899167D01*
X6475536Y-14861071D01*
X6485059Y-14842024D01*
X6494583Y-14832500D01*
X6513631Y-14822976D01*
X6666012Y-15022976D02*
X6666012Y-14889643D01*
X6666012Y-14908690D02*
X6675536Y-14899167D01*
X6694583Y-14889643D01*
X6723155Y-14889643D01*
X6742202Y-14899167D01*
X6751726Y-14918214D01*
X6751726Y-15022976D01*
X6751726Y-14918214D02*
X6761250Y-14899167D01*
X6780298Y-14889643D01*
X6808869Y-14889643D01*
X6827917Y-14899167D01*
X6837440Y-14918214D01*
X6837440Y-15022976D01*
X6932678Y-15022976D02*
X6932678Y-14889643D01*
X6932678Y-14908690D02*
X6942202Y-14899167D01*
X6961250Y-14889643D01*
X6989821Y-14889643D01*
X7008869Y-14899167D01*
X7018393Y-14918214D01*
X7018393Y-15022976D01*
X7018393Y-14918214D02*
X7027917Y-14899167D01*
X7046964Y-14889643D01*
X7075536Y-14889643D01*
X7094583Y-14899167D01*
X7104107Y-14918214D01*
X7104107Y-15022976D01*
X7494583Y-14813452D02*
X7323155Y-15070595D01*
X7751726Y-14822976D02*
X7770774Y-14822976D01*
X7789821Y-14832500D01*
X7799345Y-14842024D01*
X7808869Y-14861071D01*
X7818393Y-14899167D01*
X7818393Y-14946786D01*
X7808869Y-14984881D01*
X7799345Y-15003928D01*
X7789821Y-15013452D01*
X7770774Y-15022976D01*
X7751726Y-15022976D01*
X7732678Y-15013452D01*
X7723155Y-15003928D01*
X7713631Y-14984881D01*
X7704107Y-14946786D01*
X7704107Y-14899167D01*
X7713631Y-14861071D01*
X7723155Y-14842024D01*
X7732678Y-14832500D01*
X7751726Y-14822976D01*
X7904107Y-15003928D02*
X7913631Y-15013452D01*
X7904107Y-15022976D01*
X7894583Y-15013452D01*
X7904107Y-15003928D01*
X7904107Y-15022976D01*
X8037440Y-14822976D02*
X8056488Y-14822976D01*
X8075536Y-14832500D01*
X8085059Y-14842024D01*
X8094583Y-14861071D01*
X8104107Y-14899167D01*
X8104107Y-14946786D01*
X8094583Y-14984881D01*
X8085059Y-15003928D01*
X8075536Y-15013452D01*
X8056488Y-15022976D01*
X8037440Y-15022976D01*
X8018393Y-15013452D01*
X8008869Y-15003928D01*
X7999345Y-14984881D01*
X7989821Y-14946786D01*
X7989821Y-14899167D01*
X7999345Y-14861071D01*
X8008869Y-14842024D01*
X8018393Y-14832500D01*
X8037440Y-14822976D01*
X8294583Y-15022976D02*
X8180298Y-15022976D01*
X8237440Y-15022976D02*
X8237440Y-14822976D01*
X8218393Y-14851548D01*
X8199345Y-14870595D01*
X8180298Y-14880119D01*
X8475536Y-14822976D02*
X8380298Y-14822976D01*
X8370774Y-14918214D01*
X8380298Y-14908690D01*
X8399345Y-14899167D01*
X8446964Y-14899167D01*
X8466012Y-14908690D01*
X8475536Y-14918214D01*
X8485060Y-14937262D01*
X8485060Y-14984881D01*
X8475536Y-15003928D01*
X8466012Y-15013452D01*
X8446964Y-15022976D01*
X8399345Y-15022976D01*
X8380298Y-15013452D01*
X8370774Y-15003928D01*
X8551726Y-14822976D02*
X8685060Y-14822976D01*
X8599345Y-15022976D01*
X8751726Y-14822976D02*
X8751726Y-14861071D01*
X8827917Y-14822976D02*
X8827917Y-14861071D01*
X9123155Y-15099167D02*
X9113631Y-15089643D01*
X9094583Y-15061071D01*
X9085060Y-15042024D01*
X9075536Y-15013452D01*
X9066012Y-14965833D01*
X9066012Y-14927738D01*
X9075536Y-14880119D01*
X9085060Y-14851548D01*
X9094583Y-14832500D01*
X9113631Y-14803928D01*
X9123155Y-14794405D01*
X9304107Y-15022976D02*
X9189821Y-15022976D01*
X9246964Y-15022976D02*
X9246964Y-14822976D01*
X9227917Y-14851548D01*
X9208869Y-14870595D01*
X9189821Y-14880119D01*
X9370774Y-14822976D02*
X9494583Y-14822976D01*
X9427917Y-14899167D01*
X9456488Y-14899167D01*
X9475536Y-14908690D01*
X9485060Y-14918214D01*
X9494583Y-14937262D01*
X9494583Y-14984881D01*
X9485060Y-15003928D01*
X9475536Y-15013452D01*
X9456488Y-15022976D01*
X9399345Y-15022976D01*
X9380298Y-15013452D01*
X9370774Y-15003928D01*
X9570774Y-14842024D02*
X9580298Y-14832500D01*
X9599345Y-14822976D01*
X9646964Y-14822976D01*
X9666012Y-14832500D01*
X9675536Y-14842024D01*
X9685060Y-14861071D01*
X9685060Y-14880119D01*
X9675536Y-14908690D01*
X9561250Y-15022976D01*
X9685060Y-15022976D01*
X9923155Y-15022976D02*
X9923155Y-14822976D01*
X10008869Y-15022976D02*
X10008869Y-14918214D01*
X9999345Y-14899167D01*
X9980298Y-14889643D01*
X9951726Y-14889643D01*
X9932679Y-14899167D01*
X9923155Y-14908690D01*
X10132679Y-15022976D02*
X10113631Y-15013452D01*
X10104107Y-15003928D01*
X10094583Y-14984881D01*
X10094583Y-14927738D01*
X10104107Y-14908690D01*
X10113631Y-14899167D01*
X10132679Y-14889643D01*
X10161250Y-14889643D01*
X10180298Y-14899167D01*
X10189821Y-14908690D01*
X10199345Y-14927738D01*
X10199345Y-14984881D01*
X10189821Y-15003928D01*
X10180298Y-15013452D01*
X10161250Y-15022976D01*
X10132679Y-15022976D01*
X10313631Y-15022976D02*
X10294583Y-15013452D01*
X10285060Y-14994405D01*
X10285060Y-14822976D01*
X10466012Y-15013452D02*
X10446964Y-15022976D01*
X10408869Y-15022976D01*
X10389821Y-15013452D01*
X10380298Y-14994405D01*
X10380298Y-14918214D01*
X10389821Y-14899167D01*
X10408869Y-14889643D01*
X10446964Y-14889643D01*
X10466012Y-14899167D01*
X10475536Y-14918214D01*
X10475536Y-14937262D01*
X10380298Y-14956309D01*
X10551726Y-15013452D02*
X10570774Y-15022976D01*
X10608869Y-15022976D01*
X10627917Y-15013452D01*
X10637440Y-14994405D01*
X10637440Y-14984881D01*
X10627917Y-14965833D01*
X10608869Y-14956309D01*
X10580298Y-14956309D01*
X10561250Y-14946786D01*
X10551726Y-14927738D01*
X10551726Y-14918214D01*
X10561250Y-14899167D01*
X10580298Y-14889643D01*
X10608869Y-14889643D01*
X10627917Y-14899167D01*
X10704107Y-15099167D02*
X10713631Y-15089643D01*
X10732679Y-15061071D01*
X10742202Y-15042024D01*
X10751726Y-15013452D01*
X10761250Y-14965833D01*
X10761250Y-14927738D01*
X10751726Y-14880119D01*
X10742202Y-14851548D01*
X10732679Y-14832500D01*
X10713631Y-14803928D01*
X10704107Y-14794405D01*
D13*
X5551250Y-15196500D02*
G75*
G03*
X5551250Y-15196500I-30000J0D01*
G01*
D11*
X5846964Y-15086976D02*
X5866012Y-15086976D01*
X5885059Y-15096500D01*
X5894583Y-15106024D01*
X5904107Y-15125071D01*
X5913631Y-15163167D01*
X5913631Y-15210786D01*
X5904107Y-15248881D01*
X5894583Y-15267928D01*
X5885059Y-15277452D01*
X5866012Y-15286976D01*
X5846964Y-15286976D01*
X5827917Y-15277452D01*
X5818393Y-15267928D01*
X5808869Y-15248881D01*
X5799345Y-15210786D01*
X5799345Y-15163167D01*
X5808869Y-15125071D01*
X5818393Y-15106024D01*
X5827917Y-15096500D01*
X5846964Y-15086976D01*
X5999345Y-15267928D02*
X6008869Y-15277452D01*
X5999345Y-15286976D01*
X5989821Y-15277452D01*
X5999345Y-15267928D01*
X5999345Y-15286976D01*
X6180298Y-15086976D02*
X6142202Y-15086976D01*
X6123155Y-15096500D01*
X6113631Y-15106024D01*
X6094583Y-15134595D01*
X6085059Y-15172690D01*
X6085059Y-15248881D01*
X6094583Y-15267928D01*
X6104107Y-15277452D01*
X6123155Y-15286976D01*
X6161250Y-15286976D01*
X6180298Y-15277452D01*
X6189821Y-15267928D01*
X6199345Y-15248881D01*
X6199345Y-15201262D01*
X6189821Y-15182214D01*
X6180298Y-15172690D01*
X6161250Y-15163167D01*
X6123155Y-15163167D01*
X6104107Y-15172690D01*
X6094583Y-15182214D01*
X6085059Y-15201262D01*
X6323155Y-15086976D02*
X6342202Y-15086976D01*
X6361250Y-15096500D01*
X6370774Y-15106024D01*
X6380298Y-15125071D01*
X6389821Y-15163167D01*
X6389821Y-15210786D01*
X6380298Y-15248881D01*
X6370774Y-15267928D01*
X6361250Y-15277452D01*
X6342202Y-15286976D01*
X6323155Y-15286976D01*
X6304107Y-15277452D01*
X6294583Y-15267928D01*
X6285059Y-15248881D01*
X6275536Y-15210786D01*
X6275536Y-15163167D01*
X6285059Y-15125071D01*
X6294583Y-15106024D01*
X6304107Y-15096500D01*
X6323155Y-15086976D01*
X6513631Y-15086976D02*
X6532678Y-15086976D01*
X6551726Y-15096500D01*
X6561250Y-15106024D01*
X6570774Y-15125071D01*
X6580298Y-15163167D01*
X6580298Y-15210786D01*
X6570774Y-15248881D01*
X6561250Y-15267928D01*
X6551726Y-15277452D01*
X6532678Y-15286976D01*
X6513631Y-15286976D01*
X6494583Y-15277452D01*
X6485059Y-15267928D01*
X6475536Y-15248881D01*
X6466012Y-15210786D01*
X6466012Y-15163167D01*
X6475536Y-15125071D01*
X6485059Y-15106024D01*
X6494583Y-15096500D01*
X6513631Y-15086976D01*
X6666012Y-15286976D02*
X6666012Y-15153643D01*
X6666012Y-15172690D02*
X6675536Y-15163167D01*
X6694583Y-15153643D01*
X6723155Y-15153643D01*
X6742202Y-15163167D01*
X6751726Y-15182214D01*
X6751726Y-15286976D01*
X6751726Y-15182214D02*
X6761250Y-15163167D01*
X6780298Y-15153643D01*
X6808869Y-15153643D01*
X6827917Y-15163167D01*
X6837440Y-15182214D01*
X6837440Y-15286976D01*
X6932678Y-15286976D02*
X6932678Y-15153643D01*
X6932678Y-15172690D02*
X6942202Y-15163167D01*
X6961250Y-15153643D01*
X6989821Y-15153643D01*
X7008869Y-15163167D01*
X7018393Y-15182214D01*
X7018393Y-15286976D01*
X7018393Y-15182214D02*
X7027917Y-15163167D01*
X7046964Y-15153643D01*
X7075536Y-15153643D01*
X7094583Y-15163167D01*
X7104107Y-15182214D01*
X7104107Y-15286976D01*
X7494583Y-15077452D02*
X7323155Y-15334595D01*
X7751726Y-15086976D02*
X7770774Y-15086976D01*
X7789821Y-15096500D01*
X7799345Y-15106024D01*
X7808869Y-15125071D01*
X7818393Y-15163167D01*
X7818393Y-15210786D01*
X7808869Y-15248881D01*
X7799345Y-15267928D01*
X7789821Y-15277452D01*
X7770774Y-15286976D01*
X7751726Y-15286976D01*
X7732678Y-15277452D01*
X7723155Y-15267928D01*
X7713631Y-15248881D01*
X7704107Y-15210786D01*
X7704107Y-15163167D01*
X7713631Y-15125071D01*
X7723155Y-15106024D01*
X7732678Y-15096500D01*
X7751726Y-15086976D01*
X7904107Y-15267928D02*
X7913631Y-15277452D01*
X7904107Y-15286976D01*
X7894583Y-15277452D01*
X7904107Y-15267928D01*
X7904107Y-15286976D01*
X8037440Y-15086976D02*
X8056488Y-15086976D01*
X8075536Y-15096500D01*
X8085059Y-15106024D01*
X8094583Y-15125071D01*
X8104107Y-15163167D01*
X8104107Y-15210786D01*
X8094583Y-15248881D01*
X8085059Y-15267928D01*
X8075536Y-15277452D01*
X8056488Y-15286976D01*
X8037440Y-15286976D01*
X8018393Y-15277452D01*
X8008869Y-15267928D01*
X7999345Y-15248881D01*
X7989821Y-15210786D01*
X7989821Y-15163167D01*
X7999345Y-15125071D01*
X8008869Y-15106024D01*
X8018393Y-15096500D01*
X8037440Y-15086976D01*
X8180298Y-15106024D02*
X8189821Y-15096500D01*
X8208869Y-15086976D01*
X8256488Y-15086976D01*
X8275536Y-15096500D01*
X8285059Y-15106024D01*
X8294583Y-15125071D01*
X8294583Y-15144119D01*
X8285059Y-15172690D01*
X8170774Y-15286976D01*
X8294583Y-15286976D01*
X8361250Y-15086976D02*
X8485060Y-15086976D01*
X8418393Y-15163167D01*
X8446964Y-15163167D01*
X8466012Y-15172690D01*
X8475536Y-15182214D01*
X8485060Y-15201262D01*
X8485060Y-15248881D01*
X8475536Y-15267928D01*
X8466012Y-15277452D01*
X8446964Y-15286976D01*
X8389821Y-15286976D01*
X8370774Y-15277452D01*
X8361250Y-15267928D01*
X8656488Y-15086976D02*
X8618393Y-15086976D01*
X8599345Y-15096500D01*
X8589821Y-15106024D01*
X8570774Y-15134595D01*
X8561250Y-15172690D01*
X8561250Y-15248881D01*
X8570774Y-15267928D01*
X8580298Y-15277452D01*
X8599345Y-15286976D01*
X8637440Y-15286976D01*
X8656488Y-15277452D01*
X8666012Y-15267928D01*
X8675536Y-15248881D01*
X8675536Y-15201262D01*
X8666012Y-15182214D01*
X8656488Y-15172690D01*
X8637440Y-15163167D01*
X8599345Y-15163167D01*
X8580298Y-15172690D01*
X8570774Y-15182214D01*
X8561250Y-15201262D01*
X8751726Y-15086976D02*
X8751726Y-15125071D01*
X8827917Y-15086976D02*
X8827917Y-15125071D01*
X9123155Y-15363167D02*
X9113631Y-15353643D01*
X9094583Y-15325071D01*
X9085060Y-15306024D01*
X9075536Y-15277452D01*
X9066012Y-15229833D01*
X9066012Y-15191738D01*
X9075536Y-15144119D01*
X9085060Y-15115548D01*
X9094583Y-15096500D01*
X9113631Y-15067928D01*
X9123155Y-15058405D01*
X9237440Y-15086976D02*
X9256488Y-15086976D01*
X9275536Y-15096500D01*
X9285060Y-15106024D01*
X9294583Y-15125071D01*
X9304107Y-15163167D01*
X9304107Y-15210786D01*
X9294583Y-15248881D01*
X9285060Y-15267928D01*
X9275536Y-15277452D01*
X9256488Y-15286976D01*
X9237440Y-15286976D01*
X9218393Y-15277452D01*
X9208869Y-15267928D01*
X9199345Y-15248881D01*
X9189821Y-15210786D01*
X9189821Y-15163167D01*
X9199345Y-15125071D01*
X9208869Y-15106024D01*
X9218393Y-15096500D01*
X9237440Y-15086976D01*
X9542202Y-15286976D02*
X9542202Y-15086976D01*
X9627917Y-15286976D02*
X9627917Y-15182214D01*
X9618393Y-15163167D01*
X9599345Y-15153643D01*
X9570774Y-15153643D01*
X9551726Y-15163167D01*
X9542202Y-15172690D01*
X9751726Y-15286976D02*
X9732679Y-15277452D01*
X9723155Y-15267928D01*
X9713631Y-15248881D01*
X9713631Y-15191738D01*
X9723155Y-15172690D01*
X9732679Y-15163167D01*
X9751726Y-15153643D01*
X9780298Y-15153643D01*
X9799345Y-15163167D01*
X9808869Y-15172690D01*
X9818393Y-15191738D01*
X9818393Y-15248881D01*
X9808869Y-15267928D01*
X9799345Y-15277452D01*
X9780298Y-15286976D01*
X9751726Y-15286976D01*
X9932679Y-15286976D02*
X9913631Y-15277452D01*
X9904107Y-15258405D01*
X9904107Y-15086976D01*
X10085060Y-15277452D02*
X10066012Y-15286976D01*
X10027917Y-15286976D01*
X10008869Y-15277452D01*
X9999345Y-15258405D01*
X9999345Y-15182214D01*
X10008869Y-15163167D01*
X10027917Y-15153643D01*
X10066012Y-15153643D01*
X10085060Y-15163167D01*
X10094583Y-15182214D01*
X10094583Y-15201262D01*
X9999345Y-15220309D01*
X10170774Y-15277452D02*
X10189821Y-15286976D01*
X10227917Y-15286976D01*
X10246964Y-15277452D01*
X10256488Y-15258405D01*
X10256488Y-15248881D01*
X10246964Y-15229833D01*
X10227917Y-15220309D01*
X10199345Y-15220309D01*
X10180298Y-15210786D01*
X10170774Y-15191738D01*
X10170774Y-15182214D01*
X10180298Y-15163167D01*
X10199345Y-15153643D01*
X10227917Y-15153643D01*
X10246964Y-15163167D01*
X10494583Y-15210786D02*
X10646964Y-15210786D01*
X10570774Y-15286976D02*
X10570774Y-15134595D01*
X10980298Y-15153643D02*
X10980298Y-15286976D01*
X10932679Y-15077452D02*
X10885060Y-15220309D01*
X11008869Y-15220309D01*
X11227917Y-15277452D02*
X11246964Y-15286976D01*
X11285059Y-15286976D01*
X11304107Y-15277452D01*
X11313631Y-15258405D01*
X11313631Y-15248881D01*
X11304107Y-15229833D01*
X11285059Y-15220309D01*
X11256488Y-15220309D01*
X11237440Y-15210786D01*
X11227917Y-15191738D01*
X11227917Y-15182214D01*
X11237440Y-15163167D01*
X11256488Y-15153643D01*
X11285059Y-15153643D01*
X11304107Y-15163167D01*
X11427917Y-15286976D02*
X11408869Y-15277452D01*
X11399345Y-15258405D01*
X11399345Y-15086976D01*
X11532678Y-15286976D02*
X11513631Y-15277452D01*
X11504107Y-15267928D01*
X11494583Y-15248881D01*
X11494583Y-15191738D01*
X11504107Y-15172690D01*
X11513631Y-15163167D01*
X11532678Y-15153643D01*
X11561250Y-15153643D01*
X11580298Y-15163167D01*
X11589821Y-15172690D01*
X11599345Y-15191738D01*
X11599345Y-15248881D01*
X11589821Y-15267928D01*
X11580298Y-15277452D01*
X11561250Y-15286976D01*
X11532678Y-15286976D01*
X11656488Y-15153643D02*
X11732678Y-15153643D01*
X11685059Y-15086976D02*
X11685059Y-15258405D01*
X11694583Y-15277452D01*
X11713631Y-15286976D01*
X11732678Y-15286976D01*
X11789821Y-15277452D02*
X11808869Y-15286976D01*
X11846964Y-15286976D01*
X11866012Y-15277452D01*
X11875536Y-15258405D01*
X11875536Y-15248881D01*
X11866012Y-15229833D01*
X11846964Y-15220309D01*
X11818393Y-15220309D01*
X11799345Y-15210786D01*
X11789821Y-15191738D01*
X11789821Y-15182214D01*
X11799345Y-15163167D01*
X11818393Y-15153643D01*
X11846964Y-15153643D01*
X11866012Y-15163167D01*
X11942202Y-15363167D02*
X11951726Y-15353643D01*
X11970774Y-15325071D01*
X11980298Y-15306024D01*
X11989821Y-15277452D01*
X11999345Y-15229833D01*
X11999345Y-15191738D01*
X11989821Y-15144119D01*
X11980298Y-15115548D01*
X11970774Y-15096500D01*
X11951726Y-15067928D01*
X11942202Y-15058405D01*
D10*
X5501250Y-15410500D02*
X5501250Y-15510500D01*
X5451250Y-15460500D02*
X5551250Y-15460500D01*
D11*
X5913631Y-15550976D02*
X5799345Y-15550976D01*
X5856488Y-15550976D02*
X5856488Y-15350976D01*
X5837440Y-15379548D01*
X5818393Y-15398595D01*
X5799345Y-15408119D01*
X5999345Y-15531928D02*
X6008869Y-15541452D01*
X5999345Y-15550976D01*
X5989821Y-15541452D01*
X5999345Y-15531928D01*
X5999345Y-15550976D01*
X6132678Y-15350976D02*
X6151726Y-15350976D01*
X6170774Y-15360500D01*
X6180298Y-15370024D01*
X6189821Y-15389071D01*
X6199345Y-15427167D01*
X6199345Y-15474786D01*
X6189821Y-15512881D01*
X6180298Y-15531928D01*
X6170774Y-15541452D01*
X6151726Y-15550976D01*
X6132678Y-15550976D01*
X6113631Y-15541452D01*
X6104107Y-15531928D01*
X6094583Y-15512881D01*
X6085059Y-15474786D01*
X6085059Y-15427167D01*
X6094583Y-15389071D01*
X6104107Y-15370024D01*
X6113631Y-15360500D01*
X6132678Y-15350976D01*
X6323155Y-15350976D02*
X6342202Y-15350976D01*
X6361250Y-15360500D01*
X6370774Y-15370024D01*
X6380298Y-15389071D01*
X6389821Y-15427167D01*
X6389821Y-15474786D01*
X6380298Y-15512881D01*
X6370774Y-15531928D01*
X6361250Y-15541452D01*
X6342202Y-15550976D01*
X6323155Y-15550976D01*
X6304107Y-15541452D01*
X6294583Y-15531928D01*
X6285059Y-15512881D01*
X6275536Y-15474786D01*
X6275536Y-15427167D01*
X6285059Y-15389071D01*
X6294583Y-15370024D01*
X6304107Y-15360500D01*
X6323155Y-15350976D01*
X6513631Y-15350976D02*
X6532678Y-15350976D01*
X6551726Y-15360500D01*
X6561250Y-15370024D01*
X6570774Y-15389071D01*
X6580298Y-15427167D01*
X6580298Y-15474786D01*
X6570774Y-15512881D01*
X6561250Y-15531928D01*
X6551726Y-15541452D01*
X6532678Y-15550976D01*
X6513631Y-15550976D01*
X6494583Y-15541452D01*
X6485059Y-15531928D01*
X6475536Y-15512881D01*
X6466012Y-15474786D01*
X6466012Y-15427167D01*
X6475536Y-15389071D01*
X6485059Y-15370024D01*
X6494583Y-15360500D01*
X6513631Y-15350976D01*
X6666012Y-15550976D02*
X6666012Y-15417643D01*
X6666012Y-15436690D02*
X6675536Y-15427167D01*
X6694583Y-15417643D01*
X6723155Y-15417643D01*
X6742202Y-15427167D01*
X6751726Y-15446214D01*
X6751726Y-15550976D01*
X6751726Y-15446214D02*
X6761250Y-15427167D01*
X6780298Y-15417643D01*
X6808869Y-15417643D01*
X6827917Y-15427167D01*
X6837440Y-15446214D01*
X6837440Y-15550976D01*
X6932678Y-15550976D02*
X6932678Y-15417643D01*
X6932678Y-15436690D02*
X6942202Y-15427167D01*
X6961250Y-15417643D01*
X6989821Y-15417643D01*
X7008869Y-15427167D01*
X7018393Y-15446214D01*
X7018393Y-15550976D01*
X7018393Y-15446214D02*
X7027917Y-15427167D01*
X7046964Y-15417643D01*
X7075536Y-15417643D01*
X7094583Y-15427167D01*
X7104107Y-15446214D01*
X7104107Y-15550976D01*
X7494583Y-15341452D02*
X7323155Y-15598595D01*
X7751726Y-15350976D02*
X7770774Y-15350976D01*
X7789821Y-15360500D01*
X7799345Y-15370024D01*
X7808869Y-15389071D01*
X7818393Y-15427167D01*
X7818393Y-15474786D01*
X7808869Y-15512881D01*
X7799345Y-15531928D01*
X7789821Y-15541452D01*
X7770774Y-15550976D01*
X7751726Y-15550976D01*
X7732678Y-15541452D01*
X7723155Y-15531928D01*
X7713631Y-15512881D01*
X7704107Y-15474786D01*
X7704107Y-15427167D01*
X7713631Y-15389071D01*
X7723155Y-15370024D01*
X7732678Y-15360500D01*
X7751726Y-15350976D01*
X7904107Y-15531928D02*
X7913631Y-15541452D01*
X7904107Y-15550976D01*
X7894583Y-15541452D01*
X7904107Y-15531928D01*
X7904107Y-15550976D01*
X8037440Y-15350976D02*
X8056488Y-15350976D01*
X8075536Y-15360500D01*
X8085059Y-15370024D01*
X8094583Y-15389071D01*
X8104107Y-15427167D01*
X8104107Y-15474786D01*
X8094583Y-15512881D01*
X8085059Y-15531928D01*
X8075536Y-15541452D01*
X8056488Y-15550976D01*
X8037440Y-15550976D01*
X8018393Y-15541452D01*
X8008869Y-15531928D01*
X7999345Y-15512881D01*
X7989821Y-15474786D01*
X7989821Y-15427167D01*
X7999345Y-15389071D01*
X8008869Y-15370024D01*
X8018393Y-15360500D01*
X8037440Y-15350976D01*
X8170774Y-15350976D02*
X8294583Y-15350976D01*
X8227917Y-15427167D01*
X8256488Y-15427167D01*
X8275536Y-15436690D01*
X8285059Y-15446214D01*
X8294583Y-15465262D01*
X8294583Y-15512881D01*
X8285059Y-15531928D01*
X8275536Y-15541452D01*
X8256488Y-15550976D01*
X8199345Y-15550976D01*
X8180298Y-15541452D01*
X8170774Y-15531928D01*
X8389821Y-15550976D02*
X8427917Y-15550976D01*
X8446964Y-15541452D01*
X8456488Y-15531928D01*
X8475536Y-15503357D01*
X8485060Y-15465262D01*
X8485060Y-15389071D01*
X8475536Y-15370024D01*
X8466012Y-15360500D01*
X8446964Y-15350976D01*
X8408869Y-15350976D01*
X8389821Y-15360500D01*
X8380298Y-15370024D01*
X8370774Y-15389071D01*
X8370774Y-15436690D01*
X8380298Y-15455738D01*
X8389821Y-15465262D01*
X8408869Y-15474786D01*
X8446964Y-15474786D01*
X8466012Y-15465262D01*
X8475536Y-15455738D01*
X8485060Y-15436690D01*
X8656488Y-15417643D02*
X8656488Y-15550976D01*
X8608869Y-15341452D02*
X8561250Y-15484309D01*
X8685060Y-15484309D01*
X8751726Y-15350976D02*
X8751726Y-15389071D01*
X8827917Y-15350976D02*
X8827917Y-15389071D01*
X9123155Y-15627167D02*
X9113631Y-15617643D01*
X9094583Y-15589071D01*
X9085060Y-15570024D01*
X9075536Y-15541452D01*
X9066012Y-15493833D01*
X9066012Y-15455738D01*
X9075536Y-15408119D01*
X9085060Y-15379548D01*
X9094583Y-15360500D01*
X9113631Y-15331928D01*
X9123155Y-15322405D01*
X9285060Y-15350976D02*
X9246964Y-15350976D01*
X9227917Y-15360500D01*
X9218393Y-15370024D01*
X9199345Y-15398595D01*
X9189821Y-15436690D01*
X9189821Y-15512881D01*
X9199345Y-15531928D01*
X9208869Y-15541452D01*
X9227917Y-15550976D01*
X9266012Y-15550976D01*
X9285060Y-15541452D01*
X9294583Y-15531928D01*
X9304107Y-15512881D01*
X9304107Y-15465262D01*
X9294583Y-15446214D01*
X9285060Y-15436690D01*
X9266012Y-15427167D01*
X9227917Y-15427167D01*
X9208869Y-15436690D01*
X9199345Y-15446214D01*
X9189821Y-15465262D01*
X9542202Y-15550976D02*
X9542202Y-15350976D01*
X9627917Y-15550976D02*
X9627917Y-15446214D01*
X9618393Y-15427167D01*
X9599345Y-15417643D01*
X9570774Y-15417643D01*
X9551726Y-15427167D01*
X9542202Y-15436690D01*
X9751726Y-15550976D02*
X9732679Y-15541452D01*
X9723155Y-15531928D01*
X9713631Y-15512881D01*
X9713631Y-15455738D01*
X9723155Y-15436690D01*
X9732679Y-15427167D01*
X9751726Y-15417643D01*
X9780298Y-15417643D01*
X9799345Y-15427167D01*
X9808869Y-15436690D01*
X9818393Y-15455738D01*
X9818393Y-15512881D01*
X9808869Y-15531928D01*
X9799345Y-15541452D01*
X9780298Y-15550976D01*
X9751726Y-15550976D01*
X9932679Y-15550976D02*
X9913631Y-15541452D01*
X9904107Y-15522405D01*
X9904107Y-15350976D01*
X10085060Y-15541452D02*
X10066012Y-15550976D01*
X10027917Y-15550976D01*
X10008869Y-15541452D01*
X9999345Y-15522405D01*
X9999345Y-15446214D01*
X10008869Y-15427167D01*
X10027917Y-15417643D01*
X10066012Y-15417643D01*
X10085060Y-15427167D01*
X10094583Y-15446214D01*
X10094583Y-15465262D01*
X9999345Y-15484309D01*
X10170774Y-15541452D02*
X10189821Y-15550976D01*
X10227917Y-15550976D01*
X10246964Y-15541452D01*
X10256488Y-15522405D01*
X10256488Y-15512881D01*
X10246964Y-15493833D01*
X10227917Y-15484309D01*
X10199345Y-15484309D01*
X10180298Y-15474786D01*
X10170774Y-15455738D01*
X10170774Y-15446214D01*
X10180298Y-15427167D01*
X10199345Y-15417643D01*
X10227917Y-15417643D01*
X10246964Y-15427167D01*
X10323155Y-15627167D02*
X10332679Y-15617643D01*
X10351726Y-15589071D01*
X10361250Y-15570024D01*
X10370774Y-15541452D01*
X10380298Y-15493833D01*
X10380298Y-15455738D01*
X10370774Y-15408119D01*
X10361250Y-15379548D01*
X10351726Y-15360500D01*
X10332679Y-15331928D01*
X10323155Y-15322405D01*
D14*
X5536020Y-15761270D02*
X5536020Y-15687730D01*
X5462480Y-15687730D01*
X5462480Y-15761270D01*
X5536020Y-15761270D01*
D11*
X5913631Y-15814976D02*
X5799345Y-15814976D01*
X5856488Y-15814976D02*
X5856488Y-15614976D01*
X5837440Y-15643548D01*
X5818393Y-15662595D01*
X5799345Y-15672119D01*
X5999345Y-15795928D02*
X6008869Y-15805452D01*
X5999345Y-15814976D01*
X5989821Y-15805452D01*
X5999345Y-15795928D01*
X5999345Y-15814976D01*
X6132678Y-15614976D02*
X6151726Y-15614976D01*
X6170774Y-15624500D01*
X6180298Y-15634024D01*
X6189821Y-15653071D01*
X6199345Y-15691167D01*
X6199345Y-15738786D01*
X6189821Y-15776881D01*
X6180298Y-15795928D01*
X6170774Y-15805452D01*
X6151726Y-15814976D01*
X6132678Y-15814976D01*
X6113631Y-15805452D01*
X6104107Y-15795928D01*
X6094583Y-15776881D01*
X6085059Y-15738786D01*
X6085059Y-15691167D01*
X6094583Y-15653071D01*
X6104107Y-15634024D01*
X6113631Y-15624500D01*
X6132678Y-15614976D01*
X6370774Y-15681643D02*
X6370774Y-15814976D01*
X6323155Y-15605452D02*
X6275536Y-15748309D01*
X6399345Y-15748309D01*
X6513631Y-15614976D02*
X6532678Y-15614976D01*
X6551726Y-15624500D01*
X6561250Y-15634024D01*
X6570774Y-15653071D01*
X6580298Y-15691167D01*
X6580298Y-15738786D01*
X6570774Y-15776881D01*
X6561250Y-15795928D01*
X6551726Y-15805452D01*
X6532678Y-15814976D01*
X6513631Y-15814976D01*
X6494583Y-15805452D01*
X6485059Y-15795928D01*
X6475536Y-15776881D01*
X6466012Y-15738786D01*
X6466012Y-15691167D01*
X6475536Y-15653071D01*
X6485059Y-15634024D01*
X6494583Y-15624500D01*
X6513631Y-15614976D01*
X6666012Y-15814976D02*
X6666012Y-15681643D01*
X6666012Y-15700690D02*
X6675536Y-15691167D01*
X6694583Y-15681643D01*
X6723155Y-15681643D01*
X6742202Y-15691167D01*
X6751726Y-15710214D01*
X6751726Y-15814976D01*
X6751726Y-15710214D02*
X6761250Y-15691167D01*
X6780298Y-15681643D01*
X6808869Y-15681643D01*
X6827917Y-15691167D01*
X6837440Y-15710214D01*
X6837440Y-15814976D01*
X6932678Y-15814976D02*
X6932678Y-15681643D01*
X6932678Y-15700690D02*
X6942202Y-15691167D01*
X6961250Y-15681643D01*
X6989821Y-15681643D01*
X7008869Y-15691167D01*
X7018393Y-15710214D01*
X7018393Y-15814976D01*
X7018393Y-15710214D02*
X7027917Y-15691167D01*
X7046964Y-15681643D01*
X7075536Y-15681643D01*
X7094583Y-15691167D01*
X7104107Y-15710214D01*
X7104107Y-15814976D01*
X7494583Y-15605452D02*
X7323155Y-15862595D01*
X7751726Y-15614976D02*
X7770774Y-15614976D01*
X7789821Y-15624500D01*
X7799345Y-15634024D01*
X7808869Y-15653071D01*
X7818393Y-15691167D01*
X7818393Y-15738786D01*
X7808869Y-15776881D01*
X7799345Y-15795928D01*
X7789821Y-15805452D01*
X7770774Y-15814976D01*
X7751726Y-15814976D01*
X7732678Y-15805452D01*
X7723155Y-15795928D01*
X7713631Y-15776881D01*
X7704107Y-15738786D01*
X7704107Y-15691167D01*
X7713631Y-15653071D01*
X7723155Y-15634024D01*
X7732678Y-15624500D01*
X7751726Y-15614976D01*
X7904107Y-15795928D02*
X7913631Y-15805452D01*
X7904107Y-15814976D01*
X7894583Y-15805452D01*
X7904107Y-15795928D01*
X7904107Y-15814976D01*
X8037440Y-15614976D02*
X8056488Y-15614976D01*
X8075536Y-15624500D01*
X8085059Y-15634024D01*
X8094583Y-15653071D01*
X8104107Y-15691167D01*
X8104107Y-15738786D01*
X8094583Y-15776881D01*
X8085059Y-15795928D01*
X8075536Y-15805452D01*
X8056488Y-15814976D01*
X8037440Y-15814976D01*
X8018393Y-15805452D01*
X8008869Y-15795928D01*
X7999345Y-15776881D01*
X7989821Y-15738786D01*
X7989821Y-15691167D01*
X7999345Y-15653071D01*
X8008869Y-15634024D01*
X8018393Y-15624500D01*
X8037440Y-15614976D01*
X8275536Y-15681643D02*
X8275536Y-15814976D01*
X8227917Y-15605452D02*
X8180298Y-15748309D01*
X8304107Y-15748309D01*
X8418393Y-15614976D02*
X8437440Y-15614976D01*
X8456488Y-15624500D01*
X8466012Y-15634024D01*
X8475536Y-15653071D01*
X8485060Y-15691167D01*
X8485060Y-15738786D01*
X8475536Y-15776881D01*
X8466012Y-15795928D01*
X8456488Y-15805452D01*
X8437440Y-15814976D01*
X8418393Y-15814976D01*
X8399345Y-15805452D01*
X8389821Y-15795928D01*
X8380298Y-15776881D01*
X8370774Y-15738786D01*
X8370774Y-15691167D01*
X8380298Y-15653071D01*
X8389821Y-15634024D01*
X8399345Y-15624500D01*
X8418393Y-15614976D01*
X8580298Y-15814976D02*
X8618393Y-15814976D01*
X8637440Y-15805452D01*
X8646964Y-15795928D01*
X8666012Y-15767357D01*
X8675536Y-15729262D01*
X8675536Y-15653071D01*
X8666012Y-15634024D01*
X8656488Y-15624500D01*
X8637440Y-15614976D01*
X8599345Y-15614976D01*
X8580298Y-15624500D01*
X8570774Y-15634024D01*
X8561250Y-15653071D01*
X8561250Y-15700690D01*
X8570774Y-15719738D01*
X8580298Y-15729262D01*
X8599345Y-15738786D01*
X8637440Y-15738786D01*
X8656488Y-15729262D01*
X8666012Y-15719738D01*
X8675536Y-15700690D01*
X8751726Y-15614976D02*
X8751726Y-15653071D01*
X8827917Y-15614976D02*
X8827917Y-15653071D01*
X9123155Y-15891167D02*
X9113631Y-15881643D01*
X9094583Y-15853071D01*
X9085060Y-15834024D01*
X9075536Y-15805452D01*
X9066012Y-15757833D01*
X9066012Y-15719738D01*
X9075536Y-15672119D01*
X9085060Y-15643548D01*
X9094583Y-15624500D01*
X9113631Y-15595928D01*
X9123155Y-15586405D01*
X9304107Y-15814976D02*
X9189821Y-15814976D01*
X9246964Y-15814976D02*
X9246964Y-15614976D01*
X9227917Y-15643548D01*
X9208869Y-15662595D01*
X9189821Y-15672119D01*
X9370774Y-15614976D02*
X9494583Y-15614976D01*
X9427917Y-15691167D01*
X9456488Y-15691167D01*
X9475536Y-15700690D01*
X9485060Y-15710214D01*
X9494583Y-15729262D01*
X9494583Y-15776881D01*
X9485060Y-15795928D01*
X9475536Y-15805452D01*
X9456488Y-15814976D01*
X9399345Y-15814976D01*
X9380298Y-15805452D01*
X9370774Y-15795928D01*
X9618393Y-15614976D02*
X9637440Y-15614976D01*
X9656488Y-15624500D01*
X9666012Y-15634024D01*
X9675536Y-15653071D01*
X9685060Y-15691167D01*
X9685060Y-15738786D01*
X9675536Y-15776881D01*
X9666012Y-15795928D01*
X9656488Y-15805452D01*
X9637440Y-15814976D01*
X9618393Y-15814976D01*
X9599345Y-15805452D01*
X9589821Y-15795928D01*
X9580298Y-15776881D01*
X9570774Y-15738786D01*
X9570774Y-15691167D01*
X9580298Y-15653071D01*
X9589821Y-15634024D01*
X9599345Y-15624500D01*
X9618393Y-15614976D01*
X9923155Y-15814976D02*
X9923155Y-15614976D01*
X10008869Y-15814976D02*
X10008869Y-15710214D01*
X9999345Y-15691167D01*
X9980298Y-15681643D01*
X9951726Y-15681643D01*
X9932679Y-15691167D01*
X9923155Y-15700690D01*
X10132679Y-15814976D02*
X10113631Y-15805452D01*
X10104107Y-15795928D01*
X10094583Y-15776881D01*
X10094583Y-15719738D01*
X10104107Y-15700690D01*
X10113631Y-15691167D01*
X10132679Y-15681643D01*
X10161250Y-15681643D01*
X10180298Y-15691167D01*
X10189821Y-15700690D01*
X10199345Y-15719738D01*
X10199345Y-15776881D01*
X10189821Y-15795928D01*
X10180298Y-15805452D01*
X10161250Y-15814976D01*
X10132679Y-15814976D01*
X10313631Y-15814976D02*
X10294583Y-15805452D01*
X10285060Y-15786405D01*
X10285060Y-15614976D01*
X10466012Y-15805452D02*
X10446964Y-15814976D01*
X10408869Y-15814976D01*
X10389821Y-15805452D01*
X10380298Y-15786405D01*
X10380298Y-15710214D01*
X10389821Y-15691167D01*
X10408869Y-15681643D01*
X10446964Y-15681643D01*
X10466012Y-15691167D01*
X10475536Y-15710214D01*
X10475536Y-15729262D01*
X10380298Y-15748309D01*
X10551726Y-15805452D02*
X10570774Y-15814976D01*
X10608869Y-15814976D01*
X10627917Y-15805452D01*
X10637440Y-15786405D01*
X10637440Y-15776881D01*
X10627917Y-15757833D01*
X10608869Y-15748309D01*
X10580298Y-15748309D01*
X10561250Y-15738786D01*
X10551726Y-15719738D01*
X10551726Y-15710214D01*
X10561250Y-15691167D01*
X10580298Y-15681643D01*
X10608869Y-15681643D01*
X10627917Y-15691167D01*
X10704107Y-15891167D02*
X10713631Y-15881643D01*
X10732679Y-15853071D01*
X10742202Y-15834024D01*
X10751726Y-15805452D01*
X10761250Y-15757833D01*
X10761250Y-15719738D01*
X10751726Y-15672119D01*
X10742202Y-15643548D01*
X10732679Y-15624500D01*
X10713631Y-15595928D01*
X10704107Y-15586405D01*
D15*
X5477750Y-16062000D02*
X5551250Y-15988500D01*
X5477750Y-15915000D01*
X5404250Y-15988500D01*
X5477750Y-16062000D01*
D11*
X5913631Y-16078976D02*
X5799345Y-16078976D01*
X5856488Y-16078976D02*
X5856488Y-15878976D01*
X5837440Y-15907548D01*
X5818393Y-15926595D01*
X5799345Y-15936119D01*
X5999345Y-16059928D02*
X6008869Y-16069452D01*
X5999345Y-16078976D01*
X5989821Y-16069452D01*
X5999345Y-16059928D01*
X5999345Y-16078976D01*
X6180298Y-15945643D02*
X6180298Y-16078976D01*
X6132678Y-15869452D02*
X6085059Y-16012309D01*
X6208869Y-16012309D01*
X6266012Y-15878976D02*
X6399345Y-15878976D01*
X6313631Y-16078976D01*
X6513631Y-15878976D02*
X6532678Y-15878976D01*
X6551726Y-15888500D01*
X6561250Y-15898024D01*
X6570774Y-15917071D01*
X6580298Y-15955167D01*
X6580298Y-16002786D01*
X6570774Y-16040881D01*
X6561250Y-16059928D01*
X6551726Y-16069452D01*
X6532678Y-16078976D01*
X6513631Y-16078976D01*
X6494583Y-16069452D01*
X6485059Y-16059928D01*
X6475536Y-16040881D01*
X6466012Y-16002786D01*
X6466012Y-15955167D01*
X6475536Y-15917071D01*
X6485059Y-15898024D01*
X6494583Y-15888500D01*
X6513631Y-15878976D01*
X6666012Y-16078976D02*
X6666012Y-15945643D01*
X6666012Y-15964690D02*
X6675536Y-15955167D01*
X6694583Y-15945643D01*
X6723155Y-15945643D01*
X6742202Y-15955167D01*
X6751726Y-15974214D01*
X6751726Y-16078976D01*
X6751726Y-15974214D02*
X6761250Y-15955167D01*
X6780298Y-15945643D01*
X6808869Y-15945643D01*
X6827917Y-15955167D01*
X6837440Y-15974214D01*
X6837440Y-16078976D01*
X6932678Y-16078976D02*
X6932678Y-15945643D01*
X6932678Y-15964690D02*
X6942202Y-15955167D01*
X6961250Y-15945643D01*
X6989821Y-15945643D01*
X7008869Y-15955167D01*
X7018393Y-15974214D01*
X7018393Y-16078976D01*
X7018393Y-15974214D02*
X7027917Y-15955167D01*
X7046964Y-15945643D01*
X7075536Y-15945643D01*
X7094583Y-15955167D01*
X7104107Y-15974214D01*
X7104107Y-16078976D01*
X7494583Y-15869452D02*
X7323155Y-16126595D01*
X7751726Y-15878976D02*
X7770774Y-15878976D01*
X7789821Y-15888500D01*
X7799345Y-15898024D01*
X7808869Y-15917071D01*
X7818393Y-15955167D01*
X7818393Y-16002786D01*
X7808869Y-16040881D01*
X7799345Y-16059928D01*
X7789821Y-16069452D01*
X7770774Y-16078976D01*
X7751726Y-16078976D01*
X7732678Y-16069452D01*
X7723155Y-16059928D01*
X7713631Y-16040881D01*
X7704107Y-16002786D01*
X7704107Y-15955167D01*
X7713631Y-15917071D01*
X7723155Y-15898024D01*
X7732678Y-15888500D01*
X7751726Y-15878976D01*
X7904107Y-16059928D02*
X7913631Y-16069452D01*
X7904107Y-16078976D01*
X7894583Y-16069452D01*
X7904107Y-16059928D01*
X7904107Y-16078976D01*
X8037440Y-15878976D02*
X8056488Y-15878976D01*
X8075536Y-15888500D01*
X8085059Y-15898024D01*
X8094583Y-15917071D01*
X8104107Y-15955167D01*
X8104107Y-16002786D01*
X8094583Y-16040881D01*
X8085059Y-16059928D01*
X8075536Y-16069452D01*
X8056488Y-16078976D01*
X8037440Y-16078976D01*
X8018393Y-16069452D01*
X8008869Y-16059928D01*
X7999345Y-16040881D01*
X7989821Y-16002786D01*
X7989821Y-15955167D01*
X7999345Y-15917071D01*
X8008869Y-15898024D01*
X8018393Y-15888500D01*
X8037440Y-15878976D01*
X8285059Y-15878976D02*
X8189821Y-15878976D01*
X8180298Y-15974214D01*
X8189821Y-15964690D01*
X8208869Y-15955167D01*
X8256488Y-15955167D01*
X8275536Y-15964690D01*
X8285059Y-15974214D01*
X8294583Y-15993262D01*
X8294583Y-16040881D01*
X8285059Y-16059928D01*
X8275536Y-16069452D01*
X8256488Y-16078976D01*
X8208869Y-16078976D01*
X8189821Y-16069452D01*
X8180298Y-16059928D01*
X8361250Y-15878976D02*
X8494583Y-15878976D01*
X8408869Y-16078976D01*
X8580298Y-16078976D02*
X8618393Y-16078976D01*
X8637440Y-16069452D01*
X8646964Y-16059928D01*
X8666012Y-16031357D01*
X8675536Y-15993262D01*
X8675536Y-15917071D01*
X8666012Y-15898024D01*
X8656488Y-15888500D01*
X8637440Y-15878976D01*
X8599345Y-15878976D01*
X8580298Y-15888500D01*
X8570774Y-15898024D01*
X8561250Y-15917071D01*
X8561250Y-15964690D01*
X8570774Y-15983738D01*
X8580298Y-15993262D01*
X8599345Y-16002786D01*
X8637440Y-16002786D01*
X8656488Y-15993262D01*
X8666012Y-15983738D01*
X8675536Y-15964690D01*
X8751726Y-15878976D02*
X8751726Y-15917071D01*
X8827917Y-15878976D02*
X8827917Y-15917071D01*
X9123155Y-16155167D02*
X9113631Y-16145643D01*
X9094583Y-16117071D01*
X9085060Y-16098024D01*
X9075536Y-16069452D01*
X9066012Y-16021833D01*
X9066012Y-15983738D01*
X9075536Y-15936119D01*
X9085060Y-15907548D01*
X9094583Y-15888500D01*
X9113631Y-15859928D01*
X9123155Y-15850405D01*
X9304107Y-16078976D02*
X9189821Y-16078976D01*
X9246964Y-16078976D02*
X9246964Y-15878976D01*
X9227917Y-15907548D01*
X9208869Y-15926595D01*
X9189821Y-15936119D01*
X9370774Y-15878976D02*
X9494583Y-15878976D01*
X9427917Y-15955167D01*
X9456488Y-15955167D01*
X9475536Y-15964690D01*
X9485060Y-15974214D01*
X9494583Y-15993262D01*
X9494583Y-16040881D01*
X9485060Y-16059928D01*
X9475536Y-16069452D01*
X9456488Y-16078976D01*
X9399345Y-16078976D01*
X9380298Y-16069452D01*
X9370774Y-16059928D01*
X9618393Y-15878976D02*
X9637440Y-15878976D01*
X9656488Y-15888500D01*
X9666012Y-15898024D01*
X9675536Y-15917071D01*
X9685060Y-15955167D01*
X9685060Y-16002786D01*
X9675536Y-16040881D01*
X9666012Y-16059928D01*
X9656488Y-16069452D01*
X9637440Y-16078976D01*
X9618393Y-16078976D01*
X9599345Y-16069452D01*
X9589821Y-16059928D01*
X9580298Y-16040881D01*
X9570774Y-16002786D01*
X9570774Y-15955167D01*
X9580298Y-15917071D01*
X9589821Y-15898024D01*
X9599345Y-15888500D01*
X9618393Y-15878976D01*
X9923155Y-16078976D02*
X9923155Y-15878976D01*
X10008869Y-16078976D02*
X10008869Y-15974214D01*
X9999345Y-15955167D01*
X9980298Y-15945643D01*
X9951726Y-15945643D01*
X9932679Y-15955167D01*
X9923155Y-15964690D01*
X10132679Y-16078976D02*
X10113631Y-16069452D01*
X10104107Y-16059928D01*
X10094583Y-16040881D01*
X10094583Y-15983738D01*
X10104107Y-15964690D01*
X10113631Y-15955167D01*
X10132679Y-15945643D01*
X10161250Y-15945643D01*
X10180298Y-15955167D01*
X10189821Y-15964690D01*
X10199345Y-15983738D01*
X10199345Y-16040881D01*
X10189821Y-16059928D01*
X10180298Y-16069452D01*
X10161250Y-16078976D01*
X10132679Y-16078976D01*
X10313631Y-16078976D02*
X10294583Y-16069452D01*
X10285060Y-16050405D01*
X10285060Y-15878976D01*
X10466012Y-16069452D02*
X10446964Y-16078976D01*
X10408869Y-16078976D01*
X10389821Y-16069452D01*
X10380298Y-16050405D01*
X10380298Y-15974214D01*
X10389821Y-15955167D01*
X10408869Y-15945643D01*
X10446964Y-15945643D01*
X10466012Y-15955167D01*
X10475536Y-15974214D01*
X10475536Y-15993262D01*
X10380298Y-16012309D01*
X10551726Y-16069452D02*
X10570774Y-16078976D01*
X10608869Y-16078976D01*
X10627917Y-16069452D01*
X10637440Y-16050405D01*
X10637440Y-16040881D01*
X10627917Y-16021833D01*
X10608869Y-16012309D01*
X10580298Y-16012309D01*
X10561250Y-16002786D01*
X10551726Y-15983738D01*
X10551726Y-15974214D01*
X10561250Y-15955167D01*
X10580298Y-15945643D01*
X10608869Y-15945643D01*
X10627917Y-15955167D01*
X10704107Y-16155167D02*
X10713631Y-16145643D01*
X10732679Y-16117071D01*
X10742202Y-16098024D01*
X10751726Y-16069452D01*
X10761250Y-16021833D01*
X10761250Y-15983738D01*
X10751726Y-15936119D01*
X10742202Y-15907548D01*
X10732679Y-15888500D01*
X10713631Y-15859928D01*
X10704107Y-15850405D01*
M02*
