%TF.GenerationSoftware,KiCad,Pcbnew,(6.0.10)*%
%TF.CreationDate,2023-02-18T23:00:32-08:00*%
%TF.ProjectId,KeyboardM,4b657962-6f61-4726-944d-2e6b69636164,rev?*%
%TF.SameCoordinates,Original*%
%TF.FileFunction,Drillmap*%
%TF.FilePolarity,Positive*%
%FSLAX45Y45*%
G04 Gerber Fmt 4.5, Leading zero omitted, Abs format (unit mm)*
G04 Created by KiCad (PCBNEW (6.0.10)) date 2023-02-18 23:00:32*
%MOMM*%
%LPD*%
G01*
G04 APERTURE LIST*
%ADD10C,0.100000*%
%ADD11C,0.200000*%
%ADD12C,0.065000*%
%ADD13C,0.175000*%
%ADD14C,0.304800*%
%ADD15C,0.398780*%
G04 APERTURE END LIST*
D10*
X21431250Y-4762500D02*
X35877500Y-4762500D01*
X5715000Y-4762500D02*
X20161250Y-4762500D01*
X21351870Y-4683125D02*
G75*
G03*
X21431250Y-4762500I79380J5D01*
G01*
X35877500Y-14287500D02*
G75*
G03*
X36036250Y-14128750I0J158750D01*
G01*
X21351875Y-4683125D02*
X21351875Y-4365625D01*
X36036250Y-4921250D02*
X36036250Y-14128750D01*
X36036250Y-4921250D02*
G75*
G03*
X35877500Y-4762500I-158750J0D01*
G01*
X5715000Y-4762500D02*
G75*
G03*
X5556250Y-4921250I0J-158750D01*
G01*
X5556250Y-14128750D02*
G75*
G03*
X5715000Y-14287500I158750J0D01*
G01*
X20240625Y-4683125D02*
X20240625Y-4365625D01*
X35877500Y-14287500D02*
X5715000Y-14287500D01*
X5556250Y-14128750D02*
X5556250Y-4921250D01*
X20161250Y-4762495D02*
G75*
G03*
X20240625Y-4683125I0J79375D01*
G01*
X20240625Y-4365625D02*
X21351875Y-4365625D01*
D11*
D12*
X20474750Y-4878750D02*
X20539750Y-4943750D01*
X20539750Y-4878750D02*
X20474750Y-4943750D01*
X21052750Y-4878750D02*
X21117750Y-4943750D01*
X21117750Y-4878750D02*
X21052750Y-4943750D01*
D13*
X6088250Y-5715000D02*
G75*
G03*
X6088250Y-5715000I-87500J0D01*
G01*
X6326375Y-13335000D02*
G75*
G03*
X6326375Y-13335000I-87500J0D01*
G01*
X6564500Y-7620000D02*
G75*
G03*
X6564500Y-7620000I-87500J0D01*
G01*
X6802625Y-9525000D02*
G75*
G03*
X6802625Y-9525000I-87500J0D01*
G01*
X7104250Y-5715000D02*
G75*
G03*
X7104250Y-5715000I-87500J0D01*
G01*
X7278875Y-11430000D02*
G75*
G03*
X7278875Y-11430000I-87500J0D01*
G01*
X7342375Y-13335000D02*
G75*
G03*
X7342375Y-13335000I-87500J0D01*
G01*
X7580500Y-7620000D02*
G75*
G03*
X7580500Y-7620000I-87500J0D01*
G01*
X7818625Y-9525000D02*
G75*
G03*
X7818625Y-9525000I-87500J0D01*
G01*
X7993250Y-5715000D02*
G75*
G03*
X7993250Y-5715000I-87500J0D01*
G01*
X8294875Y-11430000D02*
G75*
G03*
X8294875Y-11430000I-87500J0D01*
G01*
X8707625Y-13335000D02*
G75*
G03*
X8707625Y-13335000I-87500J0D01*
G01*
X8945750Y-7620000D02*
G75*
G03*
X8945750Y-7620000I-87500J0D01*
G01*
X9009250Y-5715000D02*
G75*
G03*
X9009250Y-5715000I-87500J0D01*
G01*
X9422000Y-9525000D02*
G75*
G03*
X9422000Y-9525000I-87500J0D01*
G01*
X9723625Y-13335000D02*
G75*
G03*
X9723625Y-13335000I-87500J0D01*
G01*
X9898250Y-5715000D02*
G75*
G03*
X9898250Y-5715000I-87500J0D01*
G01*
X9961750Y-7620000D02*
G75*
G03*
X9961750Y-7620000I-87500J0D01*
G01*
X10374500Y-11430000D02*
G75*
G03*
X10374500Y-11430000I-87500J0D01*
G01*
X10438000Y-9525000D02*
G75*
G03*
X10438000Y-9525000I-87500J0D01*
G01*
X10850750Y-7620000D02*
G75*
G03*
X10850750Y-7620000I-87500J0D01*
G01*
X10914250Y-5715000D02*
G75*
G03*
X10914250Y-5715000I-87500J0D01*
G01*
X11088875Y-13335000D02*
G75*
G03*
X11088875Y-13335000I-87500J0D01*
G01*
X11327000Y-9525000D02*
G75*
G03*
X11327000Y-9525000I-87500J0D01*
G01*
X11390500Y-11430000D02*
G75*
G03*
X11390500Y-11430000I-87500J0D01*
G01*
X11803250Y-5715000D02*
G75*
G03*
X11803250Y-5715000I-87500J0D01*
G01*
X11866750Y-7620000D02*
G75*
G03*
X11866750Y-7620000I-87500J0D01*
G01*
X12104875Y-13335000D02*
G75*
G03*
X12104875Y-13335000I-87500J0D01*
G01*
X12279500Y-11430000D02*
G75*
G03*
X12279500Y-11430000I-87500J0D01*
G01*
X12343000Y-9525000D02*
G75*
G03*
X12343000Y-9525000I-87500J0D01*
G01*
X12755750Y-7620000D02*
G75*
G03*
X12755750Y-7620000I-87500J0D01*
G01*
X12819250Y-5715000D02*
G75*
G03*
X12819250Y-5715000I-87500J0D01*
G01*
X13232000Y-9525000D02*
G75*
G03*
X13232000Y-9525000I-87500J0D01*
G01*
X13295500Y-11430000D02*
G75*
G03*
X13295500Y-11430000I-87500J0D01*
G01*
X13708250Y-5715000D02*
G75*
G03*
X13708250Y-5715000I-87500J0D01*
G01*
X13771750Y-7620000D02*
G75*
G03*
X13771750Y-7620000I-87500J0D01*
G01*
X14184500Y-11430000D02*
G75*
G03*
X14184500Y-11430000I-87500J0D01*
G01*
X14248000Y-9525000D02*
G75*
G03*
X14248000Y-9525000I-87500J0D01*
G01*
X14660750Y-7620000D02*
G75*
G03*
X14660750Y-7620000I-87500J0D01*
G01*
X14724250Y-5715000D02*
G75*
G03*
X14724250Y-5715000I-87500J0D01*
G01*
X15137000Y-9525000D02*
G75*
G03*
X15137000Y-9525000I-87500J0D01*
G01*
X15200500Y-11430000D02*
G75*
G03*
X15200500Y-11430000I-87500J0D01*
G01*
X15613250Y-5715000D02*
G75*
G03*
X15613250Y-5715000I-87500J0D01*
G01*
X15676750Y-7620000D02*
G75*
G03*
X15676750Y-7620000I-87500J0D01*
G01*
X16089500Y-11430000D02*
G75*
G03*
X16089500Y-11430000I-87500J0D01*
G01*
X16153000Y-9525000D02*
G75*
G03*
X16153000Y-9525000I-87500J0D01*
G01*
X16565750Y-7620000D02*
G75*
G03*
X16565750Y-7620000I-87500J0D01*
G01*
X16629250Y-5715000D02*
G75*
G03*
X16629250Y-5715000I-87500J0D01*
G01*
X17042000Y-9525000D02*
G75*
G03*
X17042000Y-9525000I-87500J0D01*
G01*
X17105500Y-11430000D02*
G75*
G03*
X17105500Y-11430000I-87500J0D01*
G01*
X17518250Y-5715000D02*
G75*
G03*
X17518250Y-5715000I-87500J0D01*
G01*
X17581750Y-7620000D02*
G75*
G03*
X17581750Y-7620000I-87500J0D01*
G01*
X17994500Y-11430000D02*
G75*
G03*
X17994500Y-11430000I-87500J0D01*
G01*
X18058000Y-9525000D02*
G75*
G03*
X18058000Y-9525000I-87500J0D01*
G01*
X18232625Y-13335000D02*
G75*
G03*
X18232625Y-13335000I-87500J0D01*
G01*
X18470750Y-7620000D02*
G75*
G03*
X18470750Y-7620000I-87500J0D01*
G01*
X18534250Y-5715000D02*
G75*
G03*
X18534250Y-5715000I-87500J0D01*
G01*
X18947000Y-9525000D02*
G75*
G03*
X18947000Y-9525000I-87500J0D01*
G01*
X19010500Y-11430000D02*
G75*
G03*
X19010500Y-11430000I-87500J0D01*
G01*
X19248625Y-13335000D02*
G75*
G03*
X19248625Y-13335000I-87500J0D01*
G01*
X19423250Y-5715000D02*
G75*
G03*
X19423250Y-5715000I-87500J0D01*
G01*
X19486750Y-7620000D02*
G75*
G03*
X19486750Y-7620000I-87500J0D01*
G01*
X19899500Y-11430000D02*
G75*
G03*
X19899500Y-11430000I-87500J0D01*
G01*
X19963000Y-9525000D02*
G75*
G03*
X19963000Y-9525000I-87500J0D01*
G01*
X20375750Y-7620000D02*
G75*
G03*
X20375750Y-7620000I-87500J0D01*
G01*
X20439250Y-5715000D02*
G75*
G03*
X20439250Y-5715000I-87500J0D01*
G01*
X20852000Y-9525000D02*
G75*
G03*
X20852000Y-9525000I-87500J0D01*
G01*
X20915500Y-11430000D02*
G75*
G03*
X20915500Y-11430000I-87500J0D01*
G01*
X21328250Y-5715000D02*
G75*
G03*
X21328250Y-5715000I-87500J0D01*
G01*
X21391750Y-7620000D02*
G75*
G03*
X21391750Y-7620000I-87500J0D01*
G01*
X21804500Y-11430000D02*
G75*
G03*
X21804500Y-11430000I-87500J0D01*
G01*
X21868000Y-9525000D02*
G75*
G03*
X21868000Y-9525000I-87500J0D01*
G01*
X22280750Y-7620000D02*
G75*
G03*
X22280750Y-7620000I-87500J0D01*
G01*
X22344250Y-5715000D02*
G75*
G03*
X22344250Y-5715000I-87500J0D01*
G01*
X22757000Y-9525000D02*
G75*
G03*
X22757000Y-9525000I-87500J0D01*
G01*
X22820500Y-11430000D02*
G75*
G03*
X22820500Y-11430000I-87500J0D01*
G01*
X23233250Y-5715000D02*
G75*
G03*
X23233250Y-5715000I-87500J0D01*
G01*
X23296750Y-7620000D02*
G75*
G03*
X23296750Y-7620000I-87500J0D01*
G01*
X23709500Y-11430000D02*
G75*
G03*
X23709500Y-11430000I-87500J0D01*
G01*
X23773000Y-9525000D02*
G75*
G03*
X23773000Y-9525000I-87500J0D01*
G01*
X24185750Y-7620000D02*
G75*
G03*
X24185750Y-7620000I-87500J0D01*
G01*
X24249250Y-5715000D02*
G75*
G03*
X24249250Y-5715000I-87500J0D01*
G01*
X24662000Y-9525000D02*
G75*
G03*
X24662000Y-9525000I-87500J0D01*
G01*
X24725500Y-11430000D02*
G75*
G03*
X24725500Y-11430000I-87500J0D01*
G01*
X25138250Y-5715000D02*
G75*
G03*
X25138250Y-5715000I-87500J0D01*
G01*
X25201750Y-7620000D02*
G75*
G03*
X25201750Y-7620000I-87500J0D01*
G01*
X25376375Y-13335000D02*
G75*
G03*
X25376375Y-13335000I-87500J0D01*
G01*
X25614500Y-11430000D02*
G75*
G03*
X25614500Y-11430000I-87500J0D01*
G01*
X25678000Y-9525000D02*
G75*
G03*
X25678000Y-9525000I-87500J0D01*
G01*
X26090750Y-7620000D02*
G75*
G03*
X26090750Y-7620000I-87500J0D01*
G01*
X26154250Y-5715000D02*
G75*
G03*
X26154250Y-5715000I-87500J0D01*
G01*
X26392375Y-13335000D02*
G75*
G03*
X26392375Y-13335000I-87500J0D01*
G01*
X26567000Y-9525000D02*
G75*
G03*
X26567000Y-9525000I-87500J0D01*
G01*
X26630500Y-11430000D02*
G75*
G03*
X26630500Y-11430000I-87500J0D01*
G01*
X27043250Y-5715000D02*
G75*
G03*
X27043250Y-5715000I-87500J0D01*
G01*
X27106750Y-7620000D02*
G75*
G03*
X27106750Y-7620000I-87500J0D01*
G01*
X27519500Y-11430000D02*
G75*
G03*
X27519500Y-11430000I-87500J0D01*
G01*
X27583000Y-9525000D02*
G75*
G03*
X27583000Y-9525000I-87500J0D01*
G01*
X27757625Y-13335000D02*
G75*
G03*
X27757625Y-13335000I-87500J0D01*
G01*
X27995750Y-7620000D02*
G75*
G03*
X27995750Y-7620000I-87500J0D01*
G01*
X28059250Y-5715000D02*
G75*
G03*
X28059250Y-5715000I-87500J0D01*
G01*
X28472000Y-9525000D02*
G75*
G03*
X28472000Y-9525000I-87500J0D01*
G01*
X28535500Y-11430000D02*
G75*
G03*
X28535500Y-11430000I-87500J0D01*
G01*
X28773625Y-13335000D02*
G75*
G03*
X28773625Y-13335000I-87500J0D01*
G01*
X28948250Y-5715000D02*
G75*
G03*
X28948250Y-5715000I-87500J0D01*
G01*
X29011750Y-7620000D02*
G75*
G03*
X29011750Y-7620000I-87500J0D01*
G01*
X29488000Y-9525000D02*
G75*
G03*
X29488000Y-9525000I-87500J0D01*
G01*
X29900750Y-7620000D02*
G75*
G03*
X29900750Y-7620000I-87500J0D01*
G01*
X29964250Y-5715000D02*
G75*
G03*
X29964250Y-5715000I-87500J0D01*
G01*
X30138875Y-11430000D02*
G75*
G03*
X30138875Y-11430000I-87500J0D01*
G01*
X30853250Y-13335000D02*
G75*
G03*
X30853250Y-13335000I-87500J0D01*
G01*
X30916750Y-7620000D02*
G75*
G03*
X30916750Y-7620000I-87500J0D01*
G01*
X31154875Y-11430000D02*
G75*
G03*
X31154875Y-11430000I-87500J0D01*
G01*
X31567625Y-9525000D02*
G75*
G03*
X31567625Y-9525000I-87500J0D01*
G01*
X31805750Y-5715000D02*
G75*
G03*
X31805750Y-5715000I-87500J0D01*
G01*
X31869250Y-13335000D02*
G75*
G03*
X31869250Y-13335000I-87500J0D01*
G01*
X32282000Y-7620000D02*
G75*
G03*
X32282000Y-7620000I-87500J0D01*
G01*
X32583625Y-9525000D02*
G75*
G03*
X32583625Y-9525000I-87500J0D01*
G01*
X32758250Y-11430000D02*
G75*
G03*
X32758250Y-11430000I-87500J0D01*
G01*
X32758250Y-13335000D02*
G75*
G03*
X32758250Y-13335000I-87500J0D01*
G01*
X32821750Y-5715000D02*
G75*
G03*
X32821750Y-5715000I-87500J0D01*
G01*
X33298000Y-7620000D02*
G75*
G03*
X33298000Y-7620000I-87500J0D01*
G01*
X33774250Y-11430000D02*
G75*
G03*
X33774250Y-11430000I-87500J0D01*
G01*
X33774250Y-13335000D02*
G75*
G03*
X33774250Y-13335000I-87500J0D01*
G01*
X34663250Y-5715000D02*
G75*
G03*
X34663250Y-5715000I-87500J0D01*
G01*
X34663250Y-7620000D02*
G75*
G03*
X34663250Y-7620000I-87500J0D01*
G01*
X34663250Y-13335000D02*
G75*
G03*
X34663250Y-13335000I-87500J0D01*
G01*
X35679250Y-5715000D02*
G75*
G03*
X35679250Y-5715000I-87500J0D01*
G01*
X35679250Y-7620000D02*
G75*
G03*
X35679250Y-7620000I-87500J0D01*
G01*
X35679250Y-13335000D02*
G75*
G03*
X35679250Y-13335000I-87500J0D01*
G01*
D14*
X6505575Y-10579100D02*
X6505575Y-10883900D01*
X6353175Y-10731500D02*
X6657975Y-10731500D01*
X8893175Y-10579100D02*
X8893175Y-10883900D01*
X8740775Y-10731500D02*
X9045575Y-10731500D01*
X13653135Y-13881100D02*
X13653135Y-14185900D01*
X13500735Y-14033500D02*
X13805535Y-14033500D01*
X23653115Y-13881100D02*
X23653115Y-14185900D01*
X23500715Y-14033500D02*
X23805515Y-14033500D01*
X30794325Y-8674100D02*
X30794325Y-8978900D01*
X30641925Y-8826500D02*
X30946725Y-8826500D01*
X31032450Y-4864100D02*
X31032450Y-5168900D01*
X30880050Y-5016500D02*
X31184850Y-5016500D01*
X33181925Y-8674100D02*
X33181925Y-8978900D01*
X33029525Y-8826500D02*
X33334325Y-8826500D01*
X33420050Y-4864100D02*
X33420050Y-5168900D01*
X33267650Y-5016500D02*
X33572450Y-5016500D01*
D15*
X6646566Y-12396491D02*
X6646566Y-12114509D01*
X6364584Y-12114509D01*
X6364584Y-12396491D01*
X6646566Y-12396491D01*
X6649741Y-5855991D02*
X6649741Y-5574009D01*
X6367759Y-5574009D01*
X6367759Y-5855991D01*
X6649741Y-5855991D01*
X6887866Y-13475991D02*
X6887866Y-13194009D01*
X6605884Y-13194009D01*
X6605884Y-13475991D01*
X6887866Y-13475991D01*
X7125991Y-7760991D02*
X7125991Y-7479009D01*
X6844009Y-7479009D01*
X6844009Y-7760991D01*
X7125991Y-7760991D01*
X7364116Y-9665991D02*
X7364116Y-9384009D01*
X7082134Y-9384009D01*
X7082134Y-9665991D01*
X7364116Y-9665991D01*
X7840366Y-11570991D02*
X7840366Y-11289009D01*
X7558384Y-11289009D01*
X7558384Y-11570991D01*
X7840366Y-11570991D01*
X8554741Y-5855991D02*
X8554741Y-5574009D01*
X8272759Y-5574009D01*
X8272759Y-5855991D01*
X8554741Y-5855991D01*
X9034166Y-12396491D02*
X9034166Y-12114509D01*
X8752184Y-12114509D01*
X8752184Y-12396491D01*
X9034166Y-12396491D01*
X9269116Y-13475991D02*
X9269116Y-13194009D01*
X8987134Y-13194009D01*
X8987134Y-13475991D01*
X9269116Y-13475991D01*
X9507241Y-7760991D02*
X9507241Y-7479009D01*
X9225259Y-7479009D01*
X9225259Y-7760991D01*
X9507241Y-7760991D01*
X9983491Y-9665991D02*
X9983491Y-9384009D01*
X9701509Y-9384009D01*
X9701509Y-9665991D01*
X9983491Y-9665991D01*
X10459741Y-5855991D02*
X10459741Y-5574009D01*
X10177759Y-5574009D01*
X10177759Y-5855991D01*
X10459741Y-5855991D01*
X10935991Y-11570991D02*
X10935991Y-11289009D01*
X10654009Y-11289009D01*
X10654009Y-11570991D01*
X10935991Y-11570991D01*
X11412241Y-7760991D02*
X11412241Y-7479009D01*
X11130259Y-7479009D01*
X11130259Y-7760991D01*
X11412241Y-7760991D01*
X11650366Y-13475991D02*
X11650366Y-13194009D01*
X11368384Y-13194009D01*
X11368384Y-13475991D01*
X11650366Y-13475991D01*
X11888491Y-9665991D02*
X11888491Y-9384009D01*
X11606509Y-9384009D01*
X11606509Y-9665991D01*
X11888491Y-9665991D01*
X12364741Y-5855991D02*
X12364741Y-5574009D01*
X12082759Y-5574009D01*
X12082759Y-5855991D01*
X12364741Y-5855991D01*
X12840991Y-11570991D02*
X12840991Y-11289009D01*
X12559009Y-11289009D01*
X12559009Y-11570991D01*
X12840991Y-11570991D01*
X13317241Y-7760991D02*
X13317241Y-7479009D01*
X13035259Y-7479009D01*
X13035259Y-7760991D01*
X13317241Y-7760991D01*
X13793491Y-9665991D02*
X13793491Y-9384009D01*
X13511509Y-9384009D01*
X13511509Y-9665991D01*
X13793491Y-9665991D01*
X13794126Y-12650491D02*
X13794126Y-12368509D01*
X13512144Y-12368509D01*
X13512144Y-12650491D01*
X13794126Y-12650491D01*
X14269741Y-5855991D02*
X14269741Y-5574009D01*
X13987759Y-5574009D01*
X13987759Y-5855991D01*
X14269741Y-5855991D01*
X14745991Y-11570991D02*
X14745991Y-11289009D01*
X14464009Y-11289009D01*
X14464009Y-11570991D01*
X14745991Y-11570991D01*
X15222241Y-7760991D02*
X15222241Y-7479009D01*
X14940259Y-7479009D01*
X14940259Y-7760991D01*
X15222241Y-7760991D01*
X15698491Y-9665991D02*
X15698491Y-9384009D01*
X15416509Y-9384009D01*
X15416509Y-9665991D01*
X15698491Y-9665991D01*
X16174741Y-5855991D02*
X16174741Y-5574009D01*
X15892759Y-5574009D01*
X15892759Y-5855991D01*
X16174741Y-5855991D01*
X16650991Y-11570991D02*
X16650991Y-11289009D01*
X16369009Y-11289009D01*
X16369009Y-11570991D01*
X16650991Y-11570991D01*
X17127241Y-7760991D02*
X17127241Y-7479009D01*
X16845259Y-7479009D01*
X16845259Y-7760991D01*
X17127241Y-7760991D01*
X17603491Y-9665991D02*
X17603491Y-9384009D01*
X17321509Y-9384009D01*
X17321509Y-9665991D01*
X17603491Y-9665991D01*
X18079741Y-5855991D02*
X18079741Y-5574009D01*
X17797759Y-5574009D01*
X17797759Y-5855991D01*
X18079741Y-5855991D01*
X18555991Y-11570991D02*
X18555991Y-11289009D01*
X18274009Y-11289009D01*
X18274009Y-11570991D01*
X18555991Y-11570991D01*
X18794116Y-13475991D02*
X18794116Y-13194009D01*
X18512134Y-13194009D01*
X18512134Y-13475991D01*
X18794116Y-13475991D01*
X19032241Y-7760991D02*
X19032241Y-7479009D01*
X18750259Y-7479009D01*
X18750259Y-7760991D01*
X19032241Y-7760991D01*
X19508491Y-9665991D02*
X19508491Y-9384009D01*
X19226509Y-9384009D01*
X19226509Y-9665991D01*
X19508491Y-9665991D01*
X19984741Y-5855991D02*
X19984741Y-5574009D01*
X19702759Y-5574009D01*
X19702759Y-5855991D01*
X19984741Y-5855991D01*
X20460991Y-11570991D02*
X20460991Y-11289009D01*
X20179009Y-11289009D01*
X20179009Y-11570991D01*
X20460991Y-11570991D01*
X20937241Y-7760991D02*
X20937241Y-7479009D01*
X20655259Y-7479009D01*
X20655259Y-7760991D01*
X20937241Y-7760991D01*
X21413491Y-9665991D02*
X21413491Y-9384009D01*
X21131509Y-9384009D01*
X21131509Y-9665991D01*
X21413491Y-9665991D01*
X21889741Y-5855991D02*
X21889741Y-5574009D01*
X21607759Y-5574009D01*
X21607759Y-5855991D01*
X21889741Y-5855991D01*
X22365991Y-11570991D02*
X22365991Y-11289009D01*
X22084009Y-11289009D01*
X22084009Y-11570991D01*
X22365991Y-11570991D01*
X22842241Y-7760991D02*
X22842241Y-7479009D01*
X22560259Y-7479009D01*
X22560259Y-7760991D01*
X22842241Y-7760991D01*
X23318491Y-9665991D02*
X23318491Y-9384009D01*
X23036509Y-9384009D01*
X23036509Y-9665991D01*
X23318491Y-9665991D01*
X23794106Y-12650491D02*
X23794106Y-12368509D01*
X23512124Y-12368509D01*
X23512124Y-12650491D01*
X23794106Y-12650491D01*
X23794741Y-5855991D02*
X23794741Y-5574009D01*
X23512759Y-5574009D01*
X23512759Y-5855991D01*
X23794741Y-5855991D01*
X24270991Y-11570991D02*
X24270991Y-11289009D01*
X23989009Y-11289009D01*
X23989009Y-11570991D01*
X24270991Y-11570991D01*
X24747241Y-7760991D02*
X24747241Y-7479009D01*
X24465259Y-7479009D01*
X24465259Y-7760991D01*
X24747241Y-7760991D01*
X25223491Y-9665991D02*
X25223491Y-9384009D01*
X24941509Y-9384009D01*
X24941509Y-9665991D01*
X25223491Y-9665991D01*
X25699741Y-5855991D02*
X25699741Y-5574009D01*
X25417759Y-5574009D01*
X25417759Y-5855991D01*
X25699741Y-5855991D01*
X25937866Y-13475991D02*
X25937866Y-13194009D01*
X25655884Y-13194009D01*
X25655884Y-13475991D01*
X25937866Y-13475991D01*
X26175991Y-11570991D02*
X26175991Y-11289009D01*
X25894009Y-11289009D01*
X25894009Y-11570991D01*
X26175991Y-11570991D01*
X26652241Y-7760991D02*
X26652241Y-7479009D01*
X26370259Y-7479009D01*
X26370259Y-7760991D01*
X26652241Y-7760991D01*
X27128491Y-9665991D02*
X27128491Y-9384009D01*
X26846509Y-9384009D01*
X26846509Y-9665991D01*
X27128491Y-9665991D01*
X27604741Y-5855991D02*
X27604741Y-5574009D01*
X27322759Y-5574009D01*
X27322759Y-5855991D01*
X27604741Y-5855991D01*
X28080991Y-11570991D02*
X28080991Y-11289009D01*
X27799009Y-11289009D01*
X27799009Y-11570991D01*
X28080991Y-11570991D01*
X28319116Y-13475991D02*
X28319116Y-13194009D01*
X28037134Y-13194009D01*
X28037134Y-13475991D01*
X28319116Y-13475991D01*
X28557241Y-7760991D02*
X28557241Y-7479009D01*
X28275259Y-7479009D01*
X28275259Y-7760991D01*
X28557241Y-7760991D01*
X29033491Y-9665991D02*
X29033491Y-9384009D01*
X28751509Y-9384009D01*
X28751509Y-9665991D01*
X29033491Y-9665991D01*
X29509741Y-5855991D02*
X29509741Y-5574009D01*
X29227759Y-5574009D01*
X29227759Y-5855991D01*
X29509741Y-5855991D01*
X30462241Y-7760991D02*
X30462241Y-7479009D01*
X30180259Y-7479009D01*
X30180259Y-7760991D01*
X30462241Y-7760991D01*
X30700366Y-11570991D02*
X30700366Y-11289009D01*
X30418384Y-11289009D01*
X30418384Y-11570991D01*
X30700366Y-11570991D01*
X30935316Y-10491491D02*
X30935316Y-10209509D01*
X30653334Y-10209509D01*
X30653334Y-10491491D01*
X30935316Y-10491491D01*
X31173441Y-6681491D02*
X31173441Y-6399509D01*
X30891459Y-6399509D01*
X30891459Y-6681491D01*
X31173441Y-6681491D01*
X31414741Y-13475991D02*
X31414741Y-13194009D01*
X31132759Y-13194009D01*
X31132759Y-13475991D01*
X31414741Y-13475991D01*
X32129116Y-9665991D02*
X32129116Y-9384009D01*
X31847134Y-9384009D01*
X31847134Y-9665991D01*
X32129116Y-9665991D01*
X32367241Y-5855991D02*
X32367241Y-5574009D01*
X32085259Y-5574009D01*
X32085259Y-5855991D01*
X32367241Y-5855991D01*
X32843491Y-7760991D02*
X32843491Y-7479009D01*
X32561509Y-7479009D01*
X32561509Y-7760991D01*
X32843491Y-7760991D01*
X33319741Y-11570991D02*
X33319741Y-11289009D01*
X33037759Y-11289009D01*
X33037759Y-11570991D01*
X33319741Y-11570991D01*
X33319741Y-13475991D02*
X33319741Y-13194009D01*
X33037759Y-13194009D01*
X33037759Y-13475991D01*
X33319741Y-13475991D01*
X33322916Y-10491491D02*
X33322916Y-10209509D01*
X33040934Y-10209509D01*
X33040934Y-10491491D01*
X33322916Y-10491491D01*
X33561041Y-6681491D02*
X33561041Y-6399509D01*
X33279059Y-6399509D01*
X33279059Y-6681491D01*
X33561041Y-6681491D01*
X35224741Y-5855991D02*
X35224741Y-5574009D01*
X34942759Y-5574009D01*
X34942759Y-5855991D01*
X35224741Y-5855991D01*
X35224741Y-7760991D02*
X35224741Y-7479009D01*
X34942759Y-7479009D01*
X34942759Y-7760991D01*
X35224741Y-7760991D01*
X35224741Y-13475991D02*
X35224741Y-13194009D01*
X34942759Y-13194009D01*
X34942759Y-13475991D01*
X35224741Y-13475991D01*
D11*
X5808869Y-14602976D02*
X5808869Y-14402976D01*
X5856488Y-14402976D01*
X5885059Y-14412500D01*
X5904107Y-14431548D01*
X5913631Y-14450595D01*
X5923155Y-14488690D01*
X5923155Y-14517262D01*
X5913631Y-14555357D01*
X5904107Y-14574405D01*
X5885059Y-14593452D01*
X5856488Y-14602976D01*
X5808869Y-14602976D01*
X6008869Y-14602976D02*
X6008869Y-14469643D01*
X6008869Y-14507738D02*
X6018393Y-14488690D01*
X6027917Y-14479167D01*
X6046964Y-14469643D01*
X6066012Y-14469643D01*
X6132678Y-14602976D02*
X6132678Y-14469643D01*
X6132678Y-14402976D02*
X6123155Y-14412500D01*
X6132678Y-14422024D01*
X6142202Y-14412500D01*
X6132678Y-14402976D01*
X6132678Y-14422024D01*
X6256488Y-14602976D02*
X6237440Y-14593452D01*
X6227917Y-14574405D01*
X6227917Y-14402976D01*
X6361250Y-14602976D02*
X6342202Y-14593452D01*
X6332678Y-14574405D01*
X6332678Y-14402976D01*
X6589821Y-14602976D02*
X6589821Y-14402976D01*
X6656488Y-14545833D01*
X6723155Y-14402976D01*
X6723155Y-14602976D01*
X6904107Y-14602976D02*
X6904107Y-14498214D01*
X6894583Y-14479167D01*
X6875536Y-14469643D01*
X6837440Y-14469643D01*
X6818393Y-14479167D01*
X6904107Y-14593452D02*
X6885059Y-14602976D01*
X6837440Y-14602976D01*
X6818393Y-14593452D01*
X6808869Y-14574405D01*
X6808869Y-14555357D01*
X6818393Y-14536309D01*
X6837440Y-14526786D01*
X6885059Y-14526786D01*
X6904107Y-14517262D01*
X6999345Y-14469643D02*
X6999345Y-14669643D01*
X6999345Y-14479167D02*
X7018393Y-14469643D01*
X7056488Y-14469643D01*
X7075536Y-14479167D01*
X7085059Y-14488690D01*
X7094583Y-14507738D01*
X7094583Y-14564881D01*
X7085059Y-14583928D01*
X7075536Y-14593452D01*
X7056488Y-14602976D01*
X7018393Y-14602976D01*
X6999345Y-14593452D01*
X7180298Y-14583928D02*
X7189821Y-14593452D01*
X7180298Y-14602976D01*
X7170774Y-14593452D01*
X7180298Y-14583928D01*
X7180298Y-14602976D01*
X7180298Y-14479167D02*
X7189821Y-14488690D01*
X7180298Y-14498214D01*
X7170774Y-14488690D01*
X7180298Y-14479167D01*
X7180298Y-14498214D01*
D12*
X5486250Y-14900000D02*
X5551250Y-14965000D01*
X5551250Y-14900000D02*
X5486250Y-14965000D01*
D11*
X5846964Y-14822976D02*
X5866012Y-14822976D01*
X5885059Y-14832500D01*
X5894583Y-14842024D01*
X5904107Y-14861071D01*
X5913631Y-14899167D01*
X5913631Y-14946786D01*
X5904107Y-14984881D01*
X5894583Y-15003928D01*
X5885059Y-15013452D01*
X5866012Y-15022976D01*
X5846964Y-15022976D01*
X5827917Y-15013452D01*
X5818393Y-15003928D01*
X5808869Y-14984881D01*
X5799345Y-14946786D01*
X5799345Y-14899167D01*
X5808869Y-14861071D01*
X5818393Y-14842024D01*
X5827917Y-14832500D01*
X5846964Y-14822976D01*
X5999345Y-15003928D02*
X6008869Y-15013452D01*
X5999345Y-15022976D01*
X5989821Y-15013452D01*
X5999345Y-15003928D01*
X5999345Y-15022976D01*
X6180298Y-14822976D02*
X6142202Y-14822976D01*
X6123155Y-14832500D01*
X6113631Y-14842024D01*
X6094583Y-14870595D01*
X6085059Y-14908690D01*
X6085059Y-14984881D01*
X6094583Y-15003928D01*
X6104107Y-15013452D01*
X6123155Y-15022976D01*
X6161250Y-15022976D01*
X6180298Y-15013452D01*
X6189821Y-15003928D01*
X6199345Y-14984881D01*
X6199345Y-14937262D01*
X6189821Y-14918214D01*
X6180298Y-14908690D01*
X6161250Y-14899167D01*
X6123155Y-14899167D01*
X6104107Y-14908690D01*
X6094583Y-14918214D01*
X6085059Y-14937262D01*
X6380298Y-14822976D02*
X6285059Y-14822976D01*
X6275536Y-14918214D01*
X6285059Y-14908690D01*
X6304107Y-14899167D01*
X6351726Y-14899167D01*
X6370774Y-14908690D01*
X6380298Y-14918214D01*
X6389821Y-14937262D01*
X6389821Y-14984881D01*
X6380298Y-15003928D01*
X6370774Y-15013452D01*
X6351726Y-15022976D01*
X6304107Y-15022976D01*
X6285059Y-15013452D01*
X6275536Y-15003928D01*
X6513631Y-14822976D02*
X6532678Y-14822976D01*
X6551726Y-14832500D01*
X6561250Y-14842024D01*
X6570774Y-14861071D01*
X6580298Y-14899167D01*
X6580298Y-14946786D01*
X6570774Y-14984881D01*
X6561250Y-15003928D01*
X6551726Y-15013452D01*
X6532678Y-15022976D01*
X6513631Y-15022976D01*
X6494583Y-15013452D01*
X6485059Y-15003928D01*
X6475536Y-14984881D01*
X6466012Y-14946786D01*
X6466012Y-14899167D01*
X6475536Y-14861071D01*
X6485059Y-14842024D01*
X6494583Y-14832500D01*
X6513631Y-14822976D01*
X6666012Y-15022976D02*
X6666012Y-14889643D01*
X6666012Y-14908690D02*
X6675536Y-14899167D01*
X6694583Y-14889643D01*
X6723155Y-14889643D01*
X6742202Y-14899167D01*
X6751726Y-14918214D01*
X6751726Y-15022976D01*
X6751726Y-14918214D02*
X6761250Y-14899167D01*
X6780298Y-14889643D01*
X6808869Y-14889643D01*
X6827917Y-14899167D01*
X6837440Y-14918214D01*
X6837440Y-15022976D01*
X6932678Y-15022976D02*
X6932678Y-14889643D01*
X6932678Y-14908690D02*
X6942202Y-14899167D01*
X6961250Y-14889643D01*
X6989821Y-14889643D01*
X7008869Y-14899167D01*
X7018393Y-14918214D01*
X7018393Y-15022976D01*
X7018393Y-14918214D02*
X7027917Y-14899167D01*
X7046964Y-14889643D01*
X7075536Y-14889643D01*
X7094583Y-14899167D01*
X7104107Y-14918214D01*
X7104107Y-15022976D01*
X7494583Y-14813452D02*
X7323155Y-15070595D01*
X7751726Y-14822976D02*
X7770774Y-14822976D01*
X7789821Y-14832500D01*
X7799345Y-14842024D01*
X7808869Y-14861071D01*
X7818393Y-14899167D01*
X7818393Y-14946786D01*
X7808869Y-14984881D01*
X7799345Y-15003928D01*
X7789821Y-15013452D01*
X7770774Y-15022976D01*
X7751726Y-15022976D01*
X7732678Y-15013452D01*
X7723155Y-15003928D01*
X7713631Y-14984881D01*
X7704107Y-14946786D01*
X7704107Y-14899167D01*
X7713631Y-14861071D01*
X7723155Y-14842024D01*
X7732678Y-14832500D01*
X7751726Y-14822976D01*
X7904107Y-15003928D02*
X7913631Y-15013452D01*
X7904107Y-15022976D01*
X7894583Y-15013452D01*
X7904107Y-15003928D01*
X7904107Y-15022976D01*
X8037440Y-14822976D02*
X8056488Y-14822976D01*
X8075536Y-14832500D01*
X8085059Y-14842024D01*
X8094583Y-14861071D01*
X8104107Y-14899167D01*
X8104107Y-14946786D01*
X8094583Y-14984881D01*
X8085059Y-15003928D01*
X8075536Y-15013452D01*
X8056488Y-15022976D01*
X8037440Y-15022976D01*
X8018393Y-15013452D01*
X8008869Y-15003928D01*
X7999345Y-14984881D01*
X7989821Y-14946786D01*
X7989821Y-14899167D01*
X7999345Y-14861071D01*
X8008869Y-14842024D01*
X8018393Y-14832500D01*
X8037440Y-14822976D01*
X8180298Y-14842024D02*
X8189821Y-14832500D01*
X8208869Y-14822976D01*
X8256488Y-14822976D01*
X8275536Y-14832500D01*
X8285059Y-14842024D01*
X8294583Y-14861071D01*
X8294583Y-14880119D01*
X8285059Y-14908690D01*
X8170774Y-15022976D01*
X8294583Y-15022976D01*
X8475536Y-14822976D02*
X8380298Y-14822976D01*
X8370774Y-14918214D01*
X8380298Y-14908690D01*
X8399345Y-14899167D01*
X8446964Y-14899167D01*
X8466012Y-14908690D01*
X8475536Y-14918214D01*
X8485060Y-14937262D01*
X8485060Y-14984881D01*
X8475536Y-15003928D01*
X8466012Y-15013452D01*
X8446964Y-15022976D01*
X8399345Y-15022976D01*
X8380298Y-15013452D01*
X8370774Y-15003928D01*
X8656488Y-14822976D02*
X8618393Y-14822976D01*
X8599345Y-14832500D01*
X8589821Y-14842024D01*
X8570774Y-14870595D01*
X8561250Y-14908690D01*
X8561250Y-14984881D01*
X8570774Y-15003928D01*
X8580298Y-15013452D01*
X8599345Y-15022976D01*
X8637440Y-15022976D01*
X8656488Y-15013452D01*
X8666012Y-15003928D01*
X8675536Y-14984881D01*
X8675536Y-14937262D01*
X8666012Y-14918214D01*
X8656488Y-14908690D01*
X8637440Y-14899167D01*
X8599345Y-14899167D01*
X8580298Y-14908690D01*
X8570774Y-14918214D01*
X8561250Y-14937262D01*
X8751726Y-14822976D02*
X8751726Y-14861071D01*
X8827917Y-14822976D02*
X8827917Y-14861071D01*
X9123155Y-15099167D02*
X9113631Y-15089643D01*
X9094583Y-15061071D01*
X9085060Y-15042024D01*
X9075536Y-15013452D01*
X9066012Y-14965833D01*
X9066012Y-14927738D01*
X9075536Y-14880119D01*
X9085060Y-14851548D01*
X9094583Y-14832500D01*
X9113631Y-14803928D01*
X9123155Y-14794405D01*
X9189821Y-14842024D02*
X9199345Y-14832500D01*
X9218393Y-14822976D01*
X9266012Y-14822976D01*
X9285060Y-14832500D01*
X9294583Y-14842024D01*
X9304107Y-14861071D01*
X9304107Y-14880119D01*
X9294583Y-14908690D01*
X9180298Y-15022976D01*
X9304107Y-15022976D01*
X9542202Y-15022976D02*
X9542202Y-14822976D01*
X9627917Y-15022976D02*
X9627917Y-14918214D01*
X9618393Y-14899167D01*
X9599345Y-14889643D01*
X9570774Y-14889643D01*
X9551726Y-14899167D01*
X9542202Y-14908690D01*
X9751726Y-15022976D02*
X9732679Y-15013452D01*
X9723155Y-15003928D01*
X9713631Y-14984881D01*
X9713631Y-14927738D01*
X9723155Y-14908690D01*
X9732679Y-14899167D01*
X9751726Y-14889643D01*
X9780298Y-14889643D01*
X9799345Y-14899167D01*
X9808869Y-14908690D01*
X9818393Y-14927738D01*
X9818393Y-14984881D01*
X9808869Y-15003928D01*
X9799345Y-15013452D01*
X9780298Y-15022976D01*
X9751726Y-15022976D01*
X9932679Y-15022976D02*
X9913631Y-15013452D01*
X9904107Y-14994405D01*
X9904107Y-14822976D01*
X10085060Y-15013452D02*
X10066012Y-15022976D01*
X10027917Y-15022976D01*
X10008869Y-15013452D01*
X9999345Y-14994405D01*
X9999345Y-14918214D01*
X10008869Y-14899167D01*
X10027917Y-14889643D01*
X10066012Y-14889643D01*
X10085060Y-14899167D01*
X10094583Y-14918214D01*
X10094583Y-14937262D01*
X9999345Y-14956309D01*
X10170774Y-15013452D02*
X10189821Y-15022976D01*
X10227917Y-15022976D01*
X10246964Y-15013452D01*
X10256488Y-14994405D01*
X10256488Y-14984881D01*
X10246964Y-14965833D01*
X10227917Y-14956309D01*
X10199345Y-14956309D01*
X10180298Y-14946786D01*
X10170774Y-14927738D01*
X10170774Y-14918214D01*
X10180298Y-14899167D01*
X10199345Y-14889643D01*
X10227917Y-14889643D01*
X10246964Y-14899167D01*
X10323155Y-15099167D02*
X10332679Y-15089643D01*
X10351726Y-15061071D01*
X10361250Y-15042024D01*
X10370774Y-15013452D01*
X10380298Y-14965833D01*
X10380298Y-14927738D01*
X10370774Y-14880119D01*
X10361250Y-14851548D01*
X10351726Y-14832500D01*
X10332679Y-14803928D01*
X10323155Y-14794405D01*
X10685060Y-15099167D02*
X10675536Y-15089643D01*
X10656488Y-15061071D01*
X10646964Y-15042024D01*
X10637440Y-15013452D01*
X10627917Y-14965833D01*
X10627917Y-14927738D01*
X10637440Y-14880119D01*
X10646964Y-14851548D01*
X10656488Y-14832500D01*
X10675536Y-14803928D01*
X10685060Y-14794405D01*
X10761250Y-14889643D02*
X10761250Y-15022976D01*
X10761250Y-14908690D02*
X10770774Y-14899167D01*
X10789821Y-14889643D01*
X10818393Y-14889643D01*
X10837440Y-14899167D01*
X10846964Y-14918214D01*
X10846964Y-15022976D01*
X10970774Y-15022976D02*
X10951726Y-15013452D01*
X10942202Y-15003928D01*
X10932679Y-14984881D01*
X10932679Y-14927738D01*
X10942202Y-14908690D01*
X10951726Y-14899167D01*
X10970774Y-14889643D01*
X10999345Y-14889643D01*
X11018393Y-14899167D01*
X11027917Y-14908690D01*
X11037440Y-14927738D01*
X11037440Y-14984881D01*
X11027917Y-15003928D01*
X11018393Y-15013452D01*
X10999345Y-15022976D01*
X10970774Y-15022976D01*
X11094583Y-14889643D02*
X11170774Y-14889643D01*
X11123155Y-14822976D02*
X11123155Y-14994405D01*
X11132679Y-15013452D01*
X11151726Y-15022976D01*
X11170774Y-15022976D01*
X11389821Y-14889643D02*
X11389821Y-15089643D01*
X11389821Y-14899167D02*
X11408869Y-14889643D01*
X11446964Y-14889643D01*
X11466012Y-14899167D01*
X11475536Y-14908690D01*
X11485059Y-14927738D01*
X11485059Y-14984881D01*
X11475536Y-15003928D01*
X11466012Y-15013452D01*
X11446964Y-15022976D01*
X11408869Y-15022976D01*
X11389821Y-15013452D01*
X11599345Y-15022976D02*
X11580298Y-15013452D01*
X11570774Y-14994405D01*
X11570774Y-14822976D01*
X11761250Y-15022976D02*
X11761250Y-14918214D01*
X11751726Y-14899167D01*
X11732678Y-14889643D01*
X11694583Y-14889643D01*
X11675536Y-14899167D01*
X11761250Y-15013452D02*
X11742202Y-15022976D01*
X11694583Y-15022976D01*
X11675536Y-15013452D01*
X11666012Y-14994405D01*
X11666012Y-14975357D01*
X11675536Y-14956309D01*
X11694583Y-14946786D01*
X11742202Y-14946786D01*
X11761250Y-14937262D01*
X11827917Y-14889643D02*
X11904107Y-14889643D01*
X11856488Y-14822976D02*
X11856488Y-14994405D01*
X11866012Y-15013452D01*
X11885059Y-15022976D01*
X11904107Y-15022976D01*
X12046964Y-15013452D02*
X12027917Y-15022976D01*
X11989821Y-15022976D01*
X11970774Y-15013452D01*
X11961250Y-14994405D01*
X11961250Y-14918214D01*
X11970774Y-14899167D01*
X11989821Y-14889643D01*
X12027917Y-14889643D01*
X12046964Y-14899167D01*
X12056488Y-14918214D01*
X12056488Y-14937262D01*
X11961250Y-14956309D01*
X12227917Y-15022976D02*
X12227917Y-14822976D01*
X12227917Y-15013452D02*
X12208869Y-15022976D01*
X12170774Y-15022976D01*
X12151726Y-15013452D01*
X12142202Y-15003928D01*
X12132678Y-14984881D01*
X12132678Y-14927738D01*
X12142202Y-14908690D01*
X12151726Y-14899167D01*
X12170774Y-14889643D01*
X12208869Y-14889643D01*
X12227917Y-14899167D01*
X12304107Y-15099167D02*
X12313631Y-15089643D01*
X12332678Y-15061071D01*
X12342202Y-15042024D01*
X12351726Y-15013452D01*
X12361250Y-14965833D01*
X12361250Y-14927738D01*
X12351726Y-14880119D01*
X12342202Y-14851548D01*
X12332678Y-14832500D01*
X12313631Y-14803928D01*
X12304107Y-14794405D01*
D13*
X5551250Y-15196500D02*
G75*
G03*
X5551250Y-15196500I-87500J0D01*
G01*
D11*
X5913631Y-15286976D02*
X5799345Y-15286976D01*
X5856488Y-15286976D02*
X5856488Y-15086976D01*
X5837440Y-15115548D01*
X5818393Y-15134595D01*
X5799345Y-15144119D01*
X5999345Y-15267928D02*
X6008869Y-15277452D01*
X5999345Y-15286976D01*
X5989821Y-15277452D01*
X5999345Y-15267928D01*
X5999345Y-15286976D01*
X6075536Y-15086976D02*
X6208869Y-15086976D01*
X6123155Y-15286976D01*
X6380298Y-15086976D02*
X6285059Y-15086976D01*
X6275536Y-15182214D01*
X6285059Y-15172690D01*
X6304107Y-15163167D01*
X6351726Y-15163167D01*
X6370774Y-15172690D01*
X6380298Y-15182214D01*
X6389821Y-15201262D01*
X6389821Y-15248881D01*
X6380298Y-15267928D01*
X6370774Y-15277452D01*
X6351726Y-15286976D01*
X6304107Y-15286976D01*
X6285059Y-15277452D01*
X6275536Y-15267928D01*
X6513631Y-15086976D02*
X6532678Y-15086976D01*
X6551726Y-15096500D01*
X6561250Y-15106024D01*
X6570774Y-15125071D01*
X6580298Y-15163167D01*
X6580298Y-15210786D01*
X6570774Y-15248881D01*
X6561250Y-15267928D01*
X6551726Y-15277452D01*
X6532678Y-15286976D01*
X6513631Y-15286976D01*
X6494583Y-15277452D01*
X6485059Y-15267928D01*
X6475536Y-15248881D01*
X6466012Y-15210786D01*
X6466012Y-15163167D01*
X6475536Y-15125071D01*
X6485059Y-15106024D01*
X6494583Y-15096500D01*
X6513631Y-15086976D01*
X6666012Y-15286976D02*
X6666012Y-15153643D01*
X6666012Y-15172690D02*
X6675536Y-15163167D01*
X6694583Y-15153643D01*
X6723155Y-15153643D01*
X6742202Y-15163167D01*
X6751726Y-15182214D01*
X6751726Y-15286976D01*
X6751726Y-15182214D02*
X6761250Y-15163167D01*
X6780298Y-15153643D01*
X6808869Y-15153643D01*
X6827917Y-15163167D01*
X6837440Y-15182214D01*
X6837440Y-15286976D01*
X6932678Y-15286976D02*
X6932678Y-15153643D01*
X6932678Y-15172690D02*
X6942202Y-15163167D01*
X6961250Y-15153643D01*
X6989821Y-15153643D01*
X7008869Y-15163167D01*
X7018393Y-15182214D01*
X7018393Y-15286976D01*
X7018393Y-15182214D02*
X7027917Y-15163167D01*
X7046964Y-15153643D01*
X7075536Y-15153643D01*
X7094583Y-15163167D01*
X7104107Y-15182214D01*
X7104107Y-15286976D01*
X7494583Y-15077452D02*
X7323155Y-15334595D01*
X7751726Y-15086976D02*
X7770774Y-15086976D01*
X7789821Y-15096500D01*
X7799345Y-15106024D01*
X7808869Y-15125071D01*
X7818393Y-15163167D01*
X7818393Y-15210786D01*
X7808869Y-15248881D01*
X7799345Y-15267928D01*
X7789821Y-15277452D01*
X7770774Y-15286976D01*
X7751726Y-15286976D01*
X7732678Y-15277452D01*
X7723155Y-15267928D01*
X7713631Y-15248881D01*
X7704107Y-15210786D01*
X7704107Y-15163167D01*
X7713631Y-15125071D01*
X7723155Y-15106024D01*
X7732678Y-15096500D01*
X7751726Y-15086976D01*
X7904107Y-15267928D02*
X7913631Y-15277452D01*
X7904107Y-15286976D01*
X7894583Y-15277452D01*
X7904107Y-15267928D01*
X7904107Y-15286976D01*
X8037440Y-15086976D02*
X8056488Y-15086976D01*
X8075536Y-15096500D01*
X8085059Y-15106024D01*
X8094583Y-15125071D01*
X8104107Y-15163167D01*
X8104107Y-15210786D01*
X8094583Y-15248881D01*
X8085059Y-15267928D01*
X8075536Y-15277452D01*
X8056488Y-15286976D01*
X8037440Y-15286976D01*
X8018393Y-15277452D01*
X8008869Y-15267928D01*
X7999345Y-15248881D01*
X7989821Y-15210786D01*
X7989821Y-15163167D01*
X7999345Y-15125071D01*
X8008869Y-15106024D01*
X8018393Y-15096500D01*
X8037440Y-15086976D01*
X8275536Y-15086976D02*
X8237440Y-15086976D01*
X8218393Y-15096500D01*
X8208869Y-15106024D01*
X8189821Y-15134595D01*
X8180298Y-15172690D01*
X8180298Y-15248881D01*
X8189821Y-15267928D01*
X8199345Y-15277452D01*
X8218393Y-15286976D01*
X8256488Y-15286976D01*
X8275536Y-15277452D01*
X8285059Y-15267928D01*
X8294583Y-15248881D01*
X8294583Y-15201262D01*
X8285059Y-15182214D01*
X8275536Y-15172690D01*
X8256488Y-15163167D01*
X8218393Y-15163167D01*
X8199345Y-15172690D01*
X8189821Y-15182214D01*
X8180298Y-15201262D01*
X8408869Y-15172690D02*
X8389821Y-15163167D01*
X8380298Y-15153643D01*
X8370774Y-15134595D01*
X8370774Y-15125071D01*
X8380298Y-15106024D01*
X8389821Y-15096500D01*
X8408869Y-15086976D01*
X8446964Y-15086976D01*
X8466012Y-15096500D01*
X8475536Y-15106024D01*
X8485060Y-15125071D01*
X8485060Y-15134595D01*
X8475536Y-15153643D01*
X8466012Y-15163167D01*
X8446964Y-15172690D01*
X8408869Y-15172690D01*
X8389821Y-15182214D01*
X8380298Y-15191738D01*
X8370774Y-15210786D01*
X8370774Y-15248881D01*
X8380298Y-15267928D01*
X8389821Y-15277452D01*
X8408869Y-15286976D01*
X8446964Y-15286976D01*
X8466012Y-15277452D01*
X8475536Y-15267928D01*
X8485060Y-15248881D01*
X8485060Y-15210786D01*
X8475536Y-15191738D01*
X8466012Y-15182214D01*
X8446964Y-15172690D01*
X8580298Y-15286976D02*
X8618393Y-15286976D01*
X8637440Y-15277452D01*
X8646964Y-15267928D01*
X8666012Y-15239357D01*
X8675536Y-15201262D01*
X8675536Y-15125071D01*
X8666012Y-15106024D01*
X8656488Y-15096500D01*
X8637440Y-15086976D01*
X8599345Y-15086976D01*
X8580298Y-15096500D01*
X8570774Y-15106024D01*
X8561250Y-15125071D01*
X8561250Y-15172690D01*
X8570774Y-15191738D01*
X8580298Y-15201262D01*
X8599345Y-15210786D01*
X8637440Y-15210786D01*
X8656488Y-15201262D01*
X8666012Y-15191738D01*
X8675536Y-15172690D01*
X8751726Y-15086976D02*
X8751726Y-15125071D01*
X8827917Y-15086976D02*
X8827917Y-15125071D01*
X9123155Y-15363167D02*
X9113631Y-15353643D01*
X9094583Y-15325071D01*
X9085060Y-15306024D01*
X9075536Y-15277452D01*
X9066012Y-15229833D01*
X9066012Y-15191738D01*
X9075536Y-15144119D01*
X9085060Y-15115548D01*
X9094583Y-15096500D01*
X9113631Y-15067928D01*
X9123155Y-15058405D01*
X9304107Y-15286976D02*
X9189821Y-15286976D01*
X9246964Y-15286976D02*
X9246964Y-15086976D01*
X9227917Y-15115548D01*
X9208869Y-15134595D01*
X9189821Y-15144119D01*
X9370774Y-15086976D02*
X9494583Y-15086976D01*
X9427917Y-15163167D01*
X9456488Y-15163167D01*
X9475536Y-15172690D01*
X9485060Y-15182214D01*
X9494583Y-15201262D01*
X9494583Y-15248881D01*
X9485060Y-15267928D01*
X9475536Y-15277452D01*
X9456488Y-15286976D01*
X9399345Y-15286976D01*
X9380298Y-15277452D01*
X9370774Y-15267928D01*
X9618393Y-15086976D02*
X9637440Y-15086976D01*
X9656488Y-15096500D01*
X9666012Y-15106024D01*
X9675536Y-15125071D01*
X9685060Y-15163167D01*
X9685060Y-15210786D01*
X9675536Y-15248881D01*
X9666012Y-15267928D01*
X9656488Y-15277452D01*
X9637440Y-15286976D01*
X9618393Y-15286976D01*
X9599345Y-15277452D01*
X9589821Y-15267928D01*
X9580298Y-15248881D01*
X9570774Y-15210786D01*
X9570774Y-15163167D01*
X9580298Y-15125071D01*
X9589821Y-15106024D01*
X9599345Y-15096500D01*
X9618393Y-15086976D01*
X9923155Y-15286976D02*
X9923155Y-15086976D01*
X10008869Y-15286976D02*
X10008869Y-15182214D01*
X9999345Y-15163167D01*
X9980298Y-15153643D01*
X9951726Y-15153643D01*
X9932679Y-15163167D01*
X9923155Y-15172690D01*
X10132679Y-15286976D02*
X10113631Y-15277452D01*
X10104107Y-15267928D01*
X10094583Y-15248881D01*
X10094583Y-15191738D01*
X10104107Y-15172690D01*
X10113631Y-15163167D01*
X10132679Y-15153643D01*
X10161250Y-15153643D01*
X10180298Y-15163167D01*
X10189821Y-15172690D01*
X10199345Y-15191738D01*
X10199345Y-15248881D01*
X10189821Y-15267928D01*
X10180298Y-15277452D01*
X10161250Y-15286976D01*
X10132679Y-15286976D01*
X10313631Y-15286976D02*
X10294583Y-15277452D01*
X10285060Y-15258405D01*
X10285060Y-15086976D01*
X10466012Y-15277452D02*
X10446964Y-15286976D01*
X10408869Y-15286976D01*
X10389821Y-15277452D01*
X10380298Y-15258405D01*
X10380298Y-15182214D01*
X10389821Y-15163167D01*
X10408869Y-15153643D01*
X10446964Y-15153643D01*
X10466012Y-15163167D01*
X10475536Y-15182214D01*
X10475536Y-15201262D01*
X10380298Y-15220309D01*
X10551726Y-15277452D02*
X10570774Y-15286976D01*
X10608869Y-15286976D01*
X10627917Y-15277452D01*
X10637440Y-15258405D01*
X10637440Y-15248881D01*
X10627917Y-15229833D01*
X10608869Y-15220309D01*
X10580298Y-15220309D01*
X10561250Y-15210786D01*
X10551726Y-15191738D01*
X10551726Y-15182214D01*
X10561250Y-15163167D01*
X10580298Y-15153643D01*
X10608869Y-15153643D01*
X10627917Y-15163167D01*
X10704107Y-15363167D02*
X10713631Y-15353643D01*
X10732679Y-15325071D01*
X10742202Y-15306024D01*
X10751726Y-15277452D01*
X10761250Y-15229833D01*
X10761250Y-15191738D01*
X10751726Y-15144119D01*
X10742202Y-15115548D01*
X10732679Y-15096500D01*
X10713631Y-15067928D01*
X10704107Y-15058405D01*
X11066012Y-15363167D02*
X11056488Y-15353643D01*
X11037440Y-15325071D01*
X11027917Y-15306024D01*
X11018393Y-15277452D01*
X11008869Y-15229833D01*
X11008869Y-15191738D01*
X11018393Y-15144119D01*
X11027917Y-15115548D01*
X11037440Y-15096500D01*
X11056488Y-15067928D01*
X11066012Y-15058405D01*
X11142202Y-15153643D02*
X11142202Y-15286976D01*
X11142202Y-15172690D02*
X11151726Y-15163167D01*
X11170774Y-15153643D01*
X11199345Y-15153643D01*
X11218393Y-15163167D01*
X11227917Y-15182214D01*
X11227917Y-15286976D01*
X11351726Y-15286976D02*
X11332678Y-15277452D01*
X11323155Y-15267928D01*
X11313631Y-15248881D01*
X11313631Y-15191738D01*
X11323155Y-15172690D01*
X11332678Y-15163167D01*
X11351726Y-15153643D01*
X11380298Y-15153643D01*
X11399345Y-15163167D01*
X11408869Y-15172690D01*
X11418393Y-15191738D01*
X11418393Y-15248881D01*
X11408869Y-15267928D01*
X11399345Y-15277452D01*
X11380298Y-15286976D01*
X11351726Y-15286976D01*
X11475536Y-15153643D02*
X11551726Y-15153643D01*
X11504107Y-15086976D02*
X11504107Y-15258405D01*
X11513631Y-15277452D01*
X11532678Y-15286976D01*
X11551726Y-15286976D01*
X11770774Y-15153643D02*
X11770774Y-15353643D01*
X11770774Y-15163167D02*
X11789821Y-15153643D01*
X11827917Y-15153643D01*
X11846964Y-15163167D01*
X11856488Y-15172690D01*
X11866012Y-15191738D01*
X11866012Y-15248881D01*
X11856488Y-15267928D01*
X11846964Y-15277452D01*
X11827917Y-15286976D01*
X11789821Y-15286976D01*
X11770774Y-15277452D01*
X11980298Y-15286976D02*
X11961250Y-15277452D01*
X11951726Y-15258405D01*
X11951726Y-15086976D01*
X12142202Y-15286976D02*
X12142202Y-15182214D01*
X12132678Y-15163167D01*
X12113631Y-15153643D01*
X12075536Y-15153643D01*
X12056488Y-15163167D01*
X12142202Y-15277452D02*
X12123155Y-15286976D01*
X12075536Y-15286976D01*
X12056488Y-15277452D01*
X12046964Y-15258405D01*
X12046964Y-15239357D01*
X12056488Y-15220309D01*
X12075536Y-15210786D01*
X12123155Y-15210786D01*
X12142202Y-15201262D01*
X12208869Y-15153643D02*
X12285059Y-15153643D01*
X12237440Y-15086976D02*
X12237440Y-15258405D01*
X12246964Y-15277452D01*
X12266012Y-15286976D01*
X12285059Y-15286976D01*
X12427917Y-15277452D02*
X12408869Y-15286976D01*
X12370774Y-15286976D01*
X12351726Y-15277452D01*
X12342202Y-15258405D01*
X12342202Y-15182214D01*
X12351726Y-15163167D01*
X12370774Y-15153643D01*
X12408869Y-15153643D01*
X12427917Y-15163167D01*
X12437440Y-15182214D01*
X12437440Y-15201262D01*
X12342202Y-15220309D01*
X12608869Y-15286976D02*
X12608869Y-15086976D01*
X12608869Y-15277452D02*
X12589821Y-15286976D01*
X12551726Y-15286976D01*
X12532678Y-15277452D01*
X12523155Y-15267928D01*
X12513631Y-15248881D01*
X12513631Y-15191738D01*
X12523155Y-15172690D01*
X12532678Y-15163167D01*
X12551726Y-15153643D01*
X12589821Y-15153643D01*
X12608869Y-15163167D01*
X12685059Y-15363167D02*
X12694583Y-15353643D01*
X12713631Y-15325071D01*
X12723155Y-15306024D01*
X12732678Y-15277452D01*
X12742202Y-15229833D01*
X12742202Y-15191738D01*
X12732678Y-15144119D01*
X12723155Y-15115548D01*
X12713631Y-15096500D01*
X12694583Y-15067928D01*
X12685059Y-15058405D01*
X5451250Y-15391500D02*
X5451250Y-15591500D01*
X5351250Y-15491500D02*
X5551250Y-15491500D01*
X5789821Y-15381976D02*
X5913631Y-15381976D01*
X5846964Y-15458167D01*
X5875536Y-15458167D01*
X5894583Y-15467690D01*
X5904107Y-15477214D01*
X5913631Y-15496262D01*
X5913631Y-15543881D01*
X5904107Y-15562928D01*
X5894583Y-15572452D01*
X5875536Y-15581976D01*
X5818393Y-15581976D01*
X5799345Y-15572452D01*
X5789821Y-15562928D01*
X5999345Y-15562928D02*
X6008869Y-15572452D01*
X5999345Y-15581976D01*
X5989821Y-15572452D01*
X5999345Y-15562928D01*
X5999345Y-15581976D01*
X6132678Y-15381976D02*
X6151726Y-15381976D01*
X6170774Y-15391500D01*
X6180298Y-15401024D01*
X6189821Y-15420071D01*
X6199345Y-15458167D01*
X6199345Y-15505786D01*
X6189821Y-15543881D01*
X6180298Y-15562928D01*
X6170774Y-15572452D01*
X6151726Y-15581976D01*
X6132678Y-15581976D01*
X6113631Y-15572452D01*
X6104107Y-15562928D01*
X6094583Y-15543881D01*
X6085059Y-15505786D01*
X6085059Y-15458167D01*
X6094583Y-15420071D01*
X6104107Y-15401024D01*
X6113631Y-15391500D01*
X6132678Y-15381976D01*
X6370774Y-15448643D02*
X6370774Y-15581976D01*
X6323155Y-15372452D02*
X6275536Y-15515309D01*
X6399345Y-15515309D01*
X6504107Y-15467690D02*
X6485059Y-15458167D01*
X6475536Y-15448643D01*
X6466012Y-15429595D01*
X6466012Y-15420071D01*
X6475536Y-15401024D01*
X6485059Y-15391500D01*
X6504107Y-15381976D01*
X6542202Y-15381976D01*
X6561250Y-15391500D01*
X6570774Y-15401024D01*
X6580298Y-15420071D01*
X6580298Y-15429595D01*
X6570774Y-15448643D01*
X6561250Y-15458167D01*
X6542202Y-15467690D01*
X6504107Y-15467690D01*
X6485059Y-15477214D01*
X6475536Y-15486738D01*
X6466012Y-15505786D01*
X6466012Y-15543881D01*
X6475536Y-15562928D01*
X6485059Y-15572452D01*
X6504107Y-15581976D01*
X6542202Y-15581976D01*
X6561250Y-15572452D01*
X6570774Y-15562928D01*
X6580298Y-15543881D01*
X6580298Y-15505786D01*
X6570774Y-15486738D01*
X6561250Y-15477214D01*
X6542202Y-15467690D01*
X6666012Y-15581976D02*
X6666012Y-15448643D01*
X6666012Y-15467690D02*
X6675536Y-15458167D01*
X6694583Y-15448643D01*
X6723155Y-15448643D01*
X6742202Y-15458167D01*
X6751726Y-15477214D01*
X6751726Y-15581976D01*
X6751726Y-15477214D02*
X6761250Y-15458167D01*
X6780298Y-15448643D01*
X6808869Y-15448643D01*
X6827917Y-15458167D01*
X6837440Y-15477214D01*
X6837440Y-15581976D01*
X6932678Y-15581976D02*
X6932678Y-15448643D01*
X6932678Y-15467690D02*
X6942202Y-15458167D01*
X6961250Y-15448643D01*
X6989821Y-15448643D01*
X7008869Y-15458167D01*
X7018393Y-15477214D01*
X7018393Y-15581976D01*
X7018393Y-15477214D02*
X7027917Y-15458167D01*
X7046964Y-15448643D01*
X7075536Y-15448643D01*
X7094583Y-15458167D01*
X7104107Y-15477214D01*
X7104107Y-15581976D01*
X7494583Y-15372452D02*
X7323155Y-15629595D01*
X7751726Y-15381976D02*
X7770774Y-15381976D01*
X7789821Y-15391500D01*
X7799345Y-15401024D01*
X7808869Y-15420071D01*
X7818393Y-15458167D01*
X7818393Y-15505786D01*
X7808869Y-15543881D01*
X7799345Y-15562928D01*
X7789821Y-15572452D01*
X7770774Y-15581976D01*
X7751726Y-15581976D01*
X7732678Y-15572452D01*
X7723155Y-15562928D01*
X7713631Y-15543881D01*
X7704107Y-15505786D01*
X7704107Y-15458167D01*
X7713631Y-15420071D01*
X7723155Y-15401024D01*
X7732678Y-15391500D01*
X7751726Y-15381976D01*
X7904107Y-15562928D02*
X7913631Y-15572452D01*
X7904107Y-15581976D01*
X7894583Y-15572452D01*
X7904107Y-15562928D01*
X7904107Y-15581976D01*
X8104107Y-15581976D02*
X7989821Y-15581976D01*
X8046964Y-15581976D02*
X8046964Y-15381976D01*
X8027917Y-15410548D01*
X8008869Y-15429595D01*
X7989821Y-15439119D01*
X8180298Y-15401024D02*
X8189821Y-15391500D01*
X8208869Y-15381976D01*
X8256488Y-15381976D01*
X8275536Y-15391500D01*
X8285059Y-15401024D01*
X8294583Y-15420071D01*
X8294583Y-15439119D01*
X8285059Y-15467690D01*
X8170774Y-15581976D01*
X8294583Y-15581976D01*
X8418393Y-15381976D02*
X8437440Y-15381976D01*
X8456488Y-15391500D01*
X8466012Y-15401024D01*
X8475536Y-15420071D01*
X8485060Y-15458167D01*
X8485060Y-15505786D01*
X8475536Y-15543881D01*
X8466012Y-15562928D01*
X8456488Y-15572452D01*
X8437440Y-15581976D01*
X8418393Y-15581976D01*
X8399345Y-15572452D01*
X8389821Y-15562928D01*
X8380298Y-15543881D01*
X8370774Y-15505786D01*
X8370774Y-15458167D01*
X8380298Y-15420071D01*
X8389821Y-15401024D01*
X8399345Y-15391500D01*
X8418393Y-15381976D01*
X8608869Y-15381976D02*
X8627917Y-15381976D01*
X8646964Y-15391500D01*
X8656488Y-15401024D01*
X8666012Y-15420071D01*
X8675536Y-15458167D01*
X8675536Y-15505786D01*
X8666012Y-15543881D01*
X8656488Y-15562928D01*
X8646964Y-15572452D01*
X8627917Y-15581976D01*
X8608869Y-15581976D01*
X8589821Y-15572452D01*
X8580298Y-15562928D01*
X8570774Y-15543881D01*
X8561250Y-15505786D01*
X8561250Y-15458167D01*
X8570774Y-15420071D01*
X8580298Y-15401024D01*
X8589821Y-15391500D01*
X8608869Y-15381976D01*
X8751726Y-15381976D02*
X8751726Y-15420071D01*
X8827917Y-15381976D02*
X8827917Y-15420071D01*
X9123155Y-15658167D02*
X9113631Y-15648643D01*
X9094583Y-15620071D01*
X9085060Y-15601024D01*
X9075536Y-15572452D01*
X9066012Y-15524833D01*
X9066012Y-15486738D01*
X9075536Y-15439119D01*
X9085060Y-15410548D01*
X9094583Y-15391500D01*
X9113631Y-15362928D01*
X9123155Y-15353405D01*
X9227917Y-15467690D02*
X9208869Y-15458167D01*
X9199345Y-15448643D01*
X9189821Y-15429595D01*
X9189821Y-15420071D01*
X9199345Y-15401024D01*
X9208869Y-15391500D01*
X9227917Y-15381976D01*
X9266012Y-15381976D01*
X9285060Y-15391500D01*
X9294583Y-15401024D01*
X9304107Y-15420071D01*
X9304107Y-15429595D01*
X9294583Y-15448643D01*
X9285060Y-15458167D01*
X9266012Y-15467690D01*
X9227917Y-15467690D01*
X9208869Y-15477214D01*
X9199345Y-15486738D01*
X9189821Y-15505786D01*
X9189821Y-15543881D01*
X9199345Y-15562928D01*
X9208869Y-15572452D01*
X9227917Y-15581976D01*
X9266012Y-15581976D01*
X9285060Y-15572452D01*
X9294583Y-15562928D01*
X9304107Y-15543881D01*
X9304107Y-15505786D01*
X9294583Y-15486738D01*
X9285060Y-15477214D01*
X9266012Y-15467690D01*
X9542202Y-15581976D02*
X9542202Y-15381976D01*
X9627917Y-15581976D02*
X9627917Y-15477214D01*
X9618393Y-15458167D01*
X9599345Y-15448643D01*
X9570774Y-15448643D01*
X9551726Y-15458167D01*
X9542202Y-15467690D01*
X9751726Y-15581976D02*
X9732679Y-15572452D01*
X9723155Y-15562928D01*
X9713631Y-15543881D01*
X9713631Y-15486738D01*
X9723155Y-15467690D01*
X9732679Y-15458167D01*
X9751726Y-15448643D01*
X9780298Y-15448643D01*
X9799345Y-15458167D01*
X9808869Y-15467690D01*
X9818393Y-15486738D01*
X9818393Y-15543881D01*
X9808869Y-15562928D01*
X9799345Y-15572452D01*
X9780298Y-15581976D01*
X9751726Y-15581976D01*
X9932679Y-15581976D02*
X9913631Y-15572452D01*
X9904107Y-15553405D01*
X9904107Y-15381976D01*
X10085060Y-15572452D02*
X10066012Y-15581976D01*
X10027917Y-15581976D01*
X10008869Y-15572452D01*
X9999345Y-15553405D01*
X9999345Y-15477214D01*
X10008869Y-15458167D01*
X10027917Y-15448643D01*
X10066012Y-15448643D01*
X10085060Y-15458167D01*
X10094583Y-15477214D01*
X10094583Y-15496262D01*
X9999345Y-15515309D01*
X10170774Y-15572452D02*
X10189821Y-15581976D01*
X10227917Y-15581976D01*
X10246964Y-15572452D01*
X10256488Y-15553405D01*
X10256488Y-15543881D01*
X10246964Y-15524833D01*
X10227917Y-15515309D01*
X10199345Y-15515309D01*
X10180298Y-15505786D01*
X10170774Y-15486738D01*
X10170774Y-15477214D01*
X10180298Y-15458167D01*
X10199345Y-15448643D01*
X10227917Y-15448643D01*
X10246964Y-15458167D01*
X10323155Y-15658167D02*
X10332679Y-15648643D01*
X10351726Y-15620071D01*
X10361250Y-15601024D01*
X10370774Y-15572452D01*
X10380298Y-15524833D01*
X10380298Y-15486738D01*
X10370774Y-15439119D01*
X10361250Y-15410548D01*
X10351726Y-15391500D01*
X10332679Y-15362928D01*
X10323155Y-15353405D01*
X10685060Y-15658167D02*
X10675536Y-15648643D01*
X10656488Y-15620071D01*
X10646964Y-15601024D01*
X10637440Y-15572452D01*
X10627917Y-15524833D01*
X10627917Y-15486738D01*
X10637440Y-15439119D01*
X10646964Y-15410548D01*
X10656488Y-15391500D01*
X10675536Y-15362928D01*
X10685060Y-15353405D01*
X10761250Y-15448643D02*
X10761250Y-15581976D01*
X10761250Y-15467690D02*
X10770774Y-15458167D01*
X10789821Y-15448643D01*
X10818393Y-15448643D01*
X10837440Y-15458167D01*
X10846964Y-15477214D01*
X10846964Y-15581976D01*
X10970774Y-15581976D02*
X10951726Y-15572452D01*
X10942202Y-15562928D01*
X10932679Y-15543881D01*
X10932679Y-15486738D01*
X10942202Y-15467690D01*
X10951726Y-15458167D01*
X10970774Y-15448643D01*
X10999345Y-15448643D01*
X11018393Y-15458167D01*
X11027917Y-15467690D01*
X11037440Y-15486738D01*
X11037440Y-15543881D01*
X11027917Y-15562928D01*
X11018393Y-15572452D01*
X10999345Y-15581976D01*
X10970774Y-15581976D01*
X11094583Y-15448643D02*
X11170774Y-15448643D01*
X11123155Y-15381976D02*
X11123155Y-15553405D01*
X11132679Y-15572452D01*
X11151726Y-15581976D01*
X11170774Y-15581976D01*
X11389821Y-15448643D02*
X11389821Y-15648643D01*
X11389821Y-15458167D02*
X11408869Y-15448643D01*
X11446964Y-15448643D01*
X11466012Y-15458167D01*
X11475536Y-15467690D01*
X11485059Y-15486738D01*
X11485059Y-15543881D01*
X11475536Y-15562928D01*
X11466012Y-15572452D01*
X11446964Y-15581976D01*
X11408869Y-15581976D01*
X11389821Y-15572452D01*
X11599345Y-15581976D02*
X11580298Y-15572452D01*
X11570774Y-15553405D01*
X11570774Y-15381976D01*
X11761250Y-15581976D02*
X11761250Y-15477214D01*
X11751726Y-15458167D01*
X11732678Y-15448643D01*
X11694583Y-15448643D01*
X11675536Y-15458167D01*
X11761250Y-15572452D02*
X11742202Y-15581976D01*
X11694583Y-15581976D01*
X11675536Y-15572452D01*
X11666012Y-15553405D01*
X11666012Y-15534357D01*
X11675536Y-15515309D01*
X11694583Y-15505786D01*
X11742202Y-15505786D01*
X11761250Y-15496262D01*
X11827917Y-15448643D02*
X11904107Y-15448643D01*
X11856488Y-15381976D02*
X11856488Y-15553405D01*
X11866012Y-15572452D01*
X11885059Y-15581976D01*
X11904107Y-15581976D01*
X12046964Y-15572452D02*
X12027917Y-15581976D01*
X11989821Y-15581976D01*
X11970774Y-15572452D01*
X11961250Y-15553405D01*
X11961250Y-15477214D01*
X11970774Y-15458167D01*
X11989821Y-15448643D01*
X12027917Y-15448643D01*
X12046964Y-15458167D01*
X12056488Y-15477214D01*
X12056488Y-15496262D01*
X11961250Y-15515309D01*
X12227917Y-15581976D02*
X12227917Y-15381976D01*
X12227917Y-15572452D02*
X12208869Y-15581976D01*
X12170774Y-15581976D01*
X12151726Y-15572452D01*
X12142202Y-15562928D01*
X12132678Y-15543881D01*
X12132678Y-15486738D01*
X12142202Y-15467690D01*
X12151726Y-15458167D01*
X12170774Y-15448643D01*
X12208869Y-15448643D01*
X12227917Y-15458167D01*
X12304107Y-15658167D02*
X12313631Y-15648643D01*
X12332678Y-15620071D01*
X12342202Y-15601024D01*
X12351726Y-15572452D01*
X12361250Y-15524833D01*
X12361250Y-15486738D01*
X12351726Y-15439119D01*
X12342202Y-15410548D01*
X12332678Y-15391500D01*
X12313631Y-15362928D01*
X12304107Y-15353405D01*
X5521961Y-15882211D02*
X5521961Y-15740789D01*
X5380539Y-15740789D01*
X5380539Y-15882211D01*
X5521961Y-15882211D01*
X5789821Y-15701976D02*
X5913631Y-15701976D01*
X5846964Y-15778167D01*
X5875536Y-15778167D01*
X5894583Y-15787690D01*
X5904107Y-15797214D01*
X5913631Y-15816262D01*
X5913631Y-15863881D01*
X5904107Y-15882928D01*
X5894583Y-15892452D01*
X5875536Y-15901976D01*
X5818393Y-15901976D01*
X5799345Y-15892452D01*
X5789821Y-15882928D01*
X5999345Y-15882928D02*
X6008869Y-15892452D01*
X5999345Y-15901976D01*
X5989821Y-15892452D01*
X5999345Y-15882928D01*
X5999345Y-15901976D01*
X6104107Y-15901976D02*
X6142202Y-15901976D01*
X6161250Y-15892452D01*
X6170774Y-15882928D01*
X6189821Y-15854357D01*
X6199345Y-15816262D01*
X6199345Y-15740071D01*
X6189821Y-15721024D01*
X6180298Y-15711500D01*
X6161250Y-15701976D01*
X6123155Y-15701976D01*
X6104107Y-15711500D01*
X6094583Y-15721024D01*
X6085059Y-15740071D01*
X6085059Y-15787690D01*
X6094583Y-15806738D01*
X6104107Y-15816262D01*
X6123155Y-15825786D01*
X6161250Y-15825786D01*
X6180298Y-15816262D01*
X6189821Y-15806738D01*
X6199345Y-15787690D01*
X6313631Y-15787690D02*
X6294583Y-15778167D01*
X6285059Y-15768643D01*
X6275536Y-15749595D01*
X6275536Y-15740071D01*
X6285059Y-15721024D01*
X6294583Y-15711500D01*
X6313631Y-15701976D01*
X6351726Y-15701976D01*
X6370774Y-15711500D01*
X6380298Y-15721024D01*
X6389821Y-15740071D01*
X6389821Y-15749595D01*
X6380298Y-15768643D01*
X6370774Y-15778167D01*
X6351726Y-15787690D01*
X6313631Y-15787690D01*
X6294583Y-15797214D01*
X6285059Y-15806738D01*
X6275536Y-15825786D01*
X6275536Y-15863881D01*
X6285059Y-15882928D01*
X6294583Y-15892452D01*
X6313631Y-15901976D01*
X6351726Y-15901976D01*
X6370774Y-15892452D01*
X6380298Y-15882928D01*
X6389821Y-15863881D01*
X6389821Y-15825786D01*
X6380298Y-15806738D01*
X6370774Y-15797214D01*
X6351726Y-15787690D01*
X6504107Y-15787690D02*
X6485059Y-15778167D01*
X6475536Y-15768643D01*
X6466012Y-15749595D01*
X6466012Y-15740071D01*
X6475536Y-15721024D01*
X6485059Y-15711500D01*
X6504107Y-15701976D01*
X6542202Y-15701976D01*
X6561250Y-15711500D01*
X6570774Y-15721024D01*
X6580298Y-15740071D01*
X6580298Y-15749595D01*
X6570774Y-15768643D01*
X6561250Y-15778167D01*
X6542202Y-15787690D01*
X6504107Y-15787690D01*
X6485059Y-15797214D01*
X6475536Y-15806738D01*
X6466012Y-15825786D01*
X6466012Y-15863881D01*
X6475536Y-15882928D01*
X6485059Y-15892452D01*
X6504107Y-15901976D01*
X6542202Y-15901976D01*
X6561250Y-15892452D01*
X6570774Y-15882928D01*
X6580298Y-15863881D01*
X6580298Y-15825786D01*
X6570774Y-15806738D01*
X6561250Y-15797214D01*
X6542202Y-15787690D01*
X6666012Y-15901976D02*
X6666012Y-15768643D01*
X6666012Y-15787690D02*
X6675536Y-15778167D01*
X6694583Y-15768643D01*
X6723155Y-15768643D01*
X6742202Y-15778167D01*
X6751726Y-15797214D01*
X6751726Y-15901976D01*
X6751726Y-15797214D02*
X6761250Y-15778167D01*
X6780298Y-15768643D01*
X6808869Y-15768643D01*
X6827917Y-15778167D01*
X6837440Y-15797214D01*
X6837440Y-15901976D01*
X6932678Y-15901976D02*
X6932678Y-15768643D01*
X6932678Y-15787690D02*
X6942202Y-15778167D01*
X6961250Y-15768643D01*
X6989821Y-15768643D01*
X7008869Y-15778167D01*
X7018393Y-15797214D01*
X7018393Y-15901976D01*
X7018393Y-15797214D02*
X7027917Y-15778167D01*
X7046964Y-15768643D01*
X7075536Y-15768643D01*
X7094583Y-15778167D01*
X7104107Y-15797214D01*
X7104107Y-15901976D01*
X7494583Y-15692452D02*
X7323155Y-15949595D01*
X7751726Y-15701976D02*
X7770774Y-15701976D01*
X7789821Y-15711500D01*
X7799345Y-15721024D01*
X7808869Y-15740071D01*
X7818393Y-15778167D01*
X7818393Y-15825786D01*
X7808869Y-15863881D01*
X7799345Y-15882928D01*
X7789821Y-15892452D01*
X7770774Y-15901976D01*
X7751726Y-15901976D01*
X7732678Y-15892452D01*
X7723155Y-15882928D01*
X7713631Y-15863881D01*
X7704107Y-15825786D01*
X7704107Y-15778167D01*
X7713631Y-15740071D01*
X7723155Y-15721024D01*
X7732678Y-15711500D01*
X7751726Y-15701976D01*
X7904107Y-15882928D02*
X7913631Y-15892452D01*
X7904107Y-15901976D01*
X7894583Y-15892452D01*
X7904107Y-15882928D01*
X7904107Y-15901976D01*
X8104107Y-15901976D02*
X7989821Y-15901976D01*
X8046964Y-15901976D02*
X8046964Y-15701976D01*
X8027917Y-15730548D01*
X8008869Y-15749595D01*
X7989821Y-15759119D01*
X8285059Y-15701976D02*
X8189821Y-15701976D01*
X8180298Y-15797214D01*
X8189821Y-15787690D01*
X8208869Y-15778167D01*
X8256488Y-15778167D01*
X8275536Y-15787690D01*
X8285059Y-15797214D01*
X8294583Y-15816262D01*
X8294583Y-15863881D01*
X8285059Y-15882928D01*
X8275536Y-15892452D01*
X8256488Y-15901976D01*
X8208869Y-15901976D01*
X8189821Y-15892452D01*
X8180298Y-15882928D01*
X8361250Y-15701976D02*
X8494583Y-15701976D01*
X8408869Y-15901976D01*
X8608869Y-15701976D02*
X8627917Y-15701976D01*
X8646964Y-15711500D01*
X8656488Y-15721024D01*
X8666012Y-15740071D01*
X8675536Y-15778167D01*
X8675536Y-15825786D01*
X8666012Y-15863881D01*
X8656488Y-15882928D01*
X8646964Y-15892452D01*
X8627917Y-15901976D01*
X8608869Y-15901976D01*
X8589821Y-15892452D01*
X8580298Y-15882928D01*
X8570774Y-15863881D01*
X8561250Y-15825786D01*
X8561250Y-15778167D01*
X8570774Y-15740071D01*
X8580298Y-15721024D01*
X8589821Y-15711500D01*
X8608869Y-15701976D01*
X8751726Y-15701976D02*
X8751726Y-15740071D01*
X8827917Y-15701976D02*
X8827917Y-15740071D01*
X9123155Y-15978167D02*
X9113631Y-15968643D01*
X9094583Y-15940071D01*
X9085060Y-15921024D01*
X9075536Y-15892452D01*
X9066012Y-15844833D01*
X9066012Y-15806738D01*
X9075536Y-15759119D01*
X9085060Y-15730548D01*
X9094583Y-15711500D01*
X9113631Y-15682928D01*
X9123155Y-15673405D01*
X9180298Y-15701976D02*
X9313631Y-15701976D01*
X9227917Y-15901976D01*
X9370774Y-15701976D02*
X9494583Y-15701976D01*
X9427917Y-15778167D01*
X9456488Y-15778167D01*
X9475536Y-15787690D01*
X9485060Y-15797214D01*
X9494583Y-15816262D01*
X9494583Y-15863881D01*
X9485060Y-15882928D01*
X9475536Y-15892452D01*
X9456488Y-15901976D01*
X9399345Y-15901976D01*
X9380298Y-15892452D01*
X9370774Y-15882928D01*
X9732679Y-15901976D02*
X9732679Y-15701976D01*
X9818393Y-15901976D02*
X9818393Y-15797214D01*
X9808869Y-15778167D01*
X9789821Y-15768643D01*
X9761250Y-15768643D01*
X9742202Y-15778167D01*
X9732679Y-15787690D01*
X9942202Y-15901976D02*
X9923155Y-15892452D01*
X9913631Y-15882928D01*
X9904107Y-15863881D01*
X9904107Y-15806738D01*
X9913631Y-15787690D01*
X9923155Y-15778167D01*
X9942202Y-15768643D01*
X9970774Y-15768643D01*
X9989821Y-15778167D01*
X9999345Y-15787690D01*
X10008869Y-15806738D01*
X10008869Y-15863881D01*
X9999345Y-15882928D01*
X9989821Y-15892452D01*
X9970774Y-15901976D01*
X9942202Y-15901976D01*
X10123155Y-15901976D02*
X10104107Y-15892452D01*
X10094583Y-15873405D01*
X10094583Y-15701976D01*
X10275536Y-15892452D02*
X10256488Y-15901976D01*
X10218393Y-15901976D01*
X10199345Y-15892452D01*
X10189821Y-15873405D01*
X10189821Y-15797214D01*
X10199345Y-15778167D01*
X10218393Y-15768643D01*
X10256488Y-15768643D01*
X10275536Y-15778167D01*
X10285060Y-15797214D01*
X10285060Y-15816262D01*
X10189821Y-15835309D01*
X10361250Y-15892452D02*
X10380298Y-15901976D01*
X10418393Y-15901976D01*
X10437440Y-15892452D01*
X10446964Y-15873405D01*
X10446964Y-15863881D01*
X10437440Y-15844833D01*
X10418393Y-15835309D01*
X10389821Y-15835309D01*
X10370774Y-15825786D01*
X10361250Y-15806738D01*
X10361250Y-15797214D01*
X10370774Y-15778167D01*
X10389821Y-15768643D01*
X10418393Y-15768643D01*
X10437440Y-15778167D01*
X10513631Y-15978167D02*
X10523155Y-15968643D01*
X10542202Y-15940071D01*
X10551726Y-15921024D01*
X10561250Y-15892452D01*
X10570774Y-15844833D01*
X10570774Y-15806738D01*
X10561250Y-15759119D01*
X10551726Y-15730548D01*
X10542202Y-15711500D01*
X10523155Y-15682928D01*
X10513631Y-15673405D01*
X10875536Y-15978167D02*
X10866012Y-15968643D01*
X10846964Y-15940071D01*
X10837440Y-15921024D01*
X10827917Y-15892452D01*
X10818393Y-15844833D01*
X10818393Y-15806738D01*
X10827917Y-15759119D01*
X10837440Y-15730548D01*
X10846964Y-15711500D01*
X10866012Y-15682928D01*
X10875536Y-15673405D01*
X10951726Y-15768643D02*
X10951726Y-15901976D01*
X10951726Y-15787690D02*
X10961250Y-15778167D01*
X10980298Y-15768643D01*
X11008869Y-15768643D01*
X11027917Y-15778167D01*
X11037440Y-15797214D01*
X11037440Y-15901976D01*
X11161250Y-15901976D02*
X11142202Y-15892452D01*
X11132679Y-15882928D01*
X11123155Y-15863881D01*
X11123155Y-15806738D01*
X11132679Y-15787690D01*
X11142202Y-15778167D01*
X11161250Y-15768643D01*
X11189821Y-15768643D01*
X11208869Y-15778167D01*
X11218393Y-15787690D01*
X11227917Y-15806738D01*
X11227917Y-15863881D01*
X11218393Y-15882928D01*
X11208869Y-15892452D01*
X11189821Y-15901976D01*
X11161250Y-15901976D01*
X11285059Y-15768643D02*
X11361250Y-15768643D01*
X11313631Y-15701976D02*
X11313631Y-15873405D01*
X11323155Y-15892452D01*
X11342202Y-15901976D01*
X11361250Y-15901976D01*
X11580298Y-15768643D02*
X11580298Y-15968643D01*
X11580298Y-15778167D02*
X11599345Y-15768643D01*
X11637440Y-15768643D01*
X11656488Y-15778167D01*
X11666012Y-15787690D01*
X11675536Y-15806738D01*
X11675536Y-15863881D01*
X11666012Y-15882928D01*
X11656488Y-15892452D01*
X11637440Y-15901976D01*
X11599345Y-15901976D01*
X11580298Y-15892452D01*
X11789821Y-15901976D02*
X11770774Y-15892452D01*
X11761250Y-15873405D01*
X11761250Y-15701976D01*
X11951726Y-15901976D02*
X11951726Y-15797214D01*
X11942202Y-15778167D01*
X11923155Y-15768643D01*
X11885059Y-15768643D01*
X11866012Y-15778167D01*
X11951726Y-15892452D02*
X11932678Y-15901976D01*
X11885059Y-15901976D01*
X11866012Y-15892452D01*
X11856488Y-15873405D01*
X11856488Y-15854357D01*
X11866012Y-15835309D01*
X11885059Y-15825786D01*
X11932678Y-15825786D01*
X11951726Y-15816262D01*
X12018393Y-15768643D02*
X12094583Y-15768643D01*
X12046964Y-15701976D02*
X12046964Y-15873405D01*
X12056488Y-15892452D01*
X12075536Y-15901976D01*
X12094583Y-15901976D01*
X12237440Y-15892452D02*
X12218393Y-15901976D01*
X12180298Y-15901976D01*
X12161250Y-15892452D01*
X12151726Y-15873405D01*
X12151726Y-15797214D01*
X12161250Y-15778167D01*
X12180298Y-15768643D01*
X12218393Y-15768643D01*
X12237440Y-15778167D01*
X12246964Y-15797214D01*
X12246964Y-15816262D01*
X12151726Y-15835309D01*
X12418393Y-15901976D02*
X12418393Y-15701976D01*
X12418393Y-15892452D02*
X12399345Y-15901976D01*
X12361250Y-15901976D01*
X12342202Y-15892452D01*
X12332678Y-15882928D01*
X12323155Y-15863881D01*
X12323155Y-15806738D01*
X12332678Y-15787690D01*
X12342202Y-15778167D01*
X12361250Y-15768643D01*
X12399345Y-15768643D01*
X12418393Y-15778167D01*
X12494583Y-15978167D02*
X12504107Y-15968643D01*
X12523155Y-15940071D01*
X12532678Y-15921024D01*
X12542202Y-15892452D01*
X12551726Y-15844833D01*
X12551726Y-15806738D01*
X12542202Y-15759119D01*
X12532678Y-15730548D01*
X12523155Y-15711500D01*
X12504107Y-15682928D01*
X12494583Y-15673405D01*
M02*
