G04 #@! TF.GenerationSoftware,KiCad,Pcbnew,(6.0.10)*
G04 #@! TF.CreationDate,2023-02-18T22:59:06-08:00*
G04 #@! TF.ProjectId,KeyboardM,4b657962-6f61-4726-944d-2e6b69636164,rev?*
G04 #@! TF.SameCoordinates,Original*
G04 #@! TF.FileFunction,Legend,Bot*
G04 #@! TF.FilePolarity,Positive*
%FSLAX46Y46*%
G04 Gerber Fmt 4.6, Leading zero omitted, Abs format (unit mm)*
G04 Created by KiCad (PCBNEW (6.0.10)) date 2023-02-18 22:59:06*
%MOMM*%
%LPD*%
G01*
G04 APERTURE LIST*
G04 Aperture macros list*
%AMRoundRect*
0 Rectangle with rounded corners*
0 $1 Rounding radius*
0 $2 $3 $4 $5 $6 $7 $8 $9 X,Y pos of 4 corners*
0 Add a 4 corners polygon primitive as box body*
4,1,4,$2,$3,$4,$5,$6,$7,$8,$9,$2,$3,0*
0 Add four circle primitives for the rounded corners*
1,1,$1+$1,$2,$3*
1,1,$1+$1,$4,$5*
1,1,$1+$1,$6,$7*
1,1,$1+$1,$8,$9*
0 Add four rect primitives between the rounded corners*
20,1,$1+$1,$2,$3,$4,$5,0*
20,1,$1+$1,$4,$5,$6,$7,0*
20,1,$1+$1,$6,$7,$8,$9,0*
20,1,$1+$1,$8,$9,$2,$3,0*%
G04 Aperture macros list end*
%ADD10C,0.250000*%
%ADD11C,0.350000*%
%ADD12C,0.150000*%
%ADD13C,0.070000*%
%ADD14C,0.080000*%
%ADD15C,0.090000*%
%ADD16C,0.120000*%
%ADD17C,1.750000*%
%ADD18C,3.987800*%
%ADD19C,2.250000*%
%ADD20C,1.905000*%
%ADD21R,1.905000X1.905000*%
%ADD22C,3.048000*%
%ADD23R,1.200000X0.900000*%
%ADD24RoundRect,0.250000X0.337500X0.475000X-0.337500X0.475000X-0.337500X-0.475000X0.337500X-0.475000X0*%
%ADD25RoundRect,0.250000X0.475000X-0.337500X0.475000X0.337500X-0.475000X0.337500X-0.475000X-0.337500X0*%
%ADD26C,1.700000*%
%ADD27R,1.700000X1.700000*%
%ADD28RoundRect,0.250000X-0.337500X-0.475000X0.337500X-0.475000X0.337500X0.475000X-0.337500X0.475000X0*%
%ADD29R,0.700000X1.000000*%
%ADD30R,0.700000X0.600000*%
%ADD31RoundRect,0.250000X-0.450000X0.350000X-0.450000X-0.350000X0.450000X-0.350000X0.450000X0.350000X0*%
%ADD32RoundRect,0.250000X0.350000X0.450000X-0.350000X0.450000X-0.350000X-0.450000X0.350000X-0.450000X0*%
%ADD33RoundRect,0.250000X0.325000X0.450000X-0.325000X0.450000X-0.325000X-0.450000X0.325000X-0.450000X0*%
%ADD34R,0.550000X1.500000*%
%ADD35R,1.500000X0.550000*%
%ADD36R,1.800000X1.100000*%
%ADD37RoundRect,0.250001X-0.624999X0.462499X-0.624999X-0.462499X0.624999X-0.462499X0.624999X0.462499X0*%
%ADD38RoundRect,0.250000X-0.475000X0.337500X-0.475000X-0.337500X0.475000X-0.337500X0.475000X0.337500X0*%
%ADD39R,1.800000X2.100000*%
%ADD40RoundRect,0.250000X-0.350000X-0.450000X0.350000X-0.450000X0.350000X0.450000X-0.350000X0.450000X0*%
%ADD41C,0.650000*%
%ADD42R,0.600000X2.450000*%
%ADD43R,0.300000X2.450000*%
G04 APERTURE END LIST*
D10*
X164362544Y-135568571D02*
X164130401Y-136568571D01*
X163648258Y-135568571D01*
X162416116Y-136568571D02*
X163273258Y-136568571D01*
X162844687Y-136568571D02*
X162657187Y-135068571D01*
X162826830Y-135282857D01*
X162987544Y-135425714D01*
X163139330Y-135497142D01*
X161755401Y-136425714D02*
X161692901Y-136497142D01*
X161773258Y-136568571D01*
X161835758Y-136497142D01*
X161755401Y-136425714D01*
X161773258Y-136568571D01*
X160585758Y-135068571D02*
X160442901Y-135068571D01*
X160308973Y-135140000D01*
X160246473Y-135211428D01*
X160192901Y-135354285D01*
X160157187Y-135640000D01*
X160201830Y-135997142D01*
X160308973Y-136282857D01*
X160398258Y-136425714D01*
X160478616Y-136497142D01*
X160630401Y-136568571D01*
X160773258Y-136568571D01*
X160907187Y-136497142D01*
X160969687Y-136425714D01*
X161023258Y-136282857D01*
X161058973Y-135997142D01*
X161014330Y-135640000D01*
X160907187Y-135354285D01*
X160817901Y-135211428D01*
X160737544Y-135140000D01*
X160585758Y-135068571D01*
X159612544Y-136425714D02*
X159550044Y-136497142D01*
X159630401Y-136568571D01*
X159692901Y-136497142D01*
X159612544Y-136425714D01*
X159630401Y-136568571D01*
X158442901Y-135068571D02*
X158300044Y-135068571D01*
X158166116Y-135140000D01*
X158103616Y-135211428D01*
X158050044Y-135354285D01*
X158014330Y-135640000D01*
X158058973Y-135997142D01*
X158166116Y-136282857D01*
X158255401Y-136425714D01*
X158335758Y-136497142D01*
X158487544Y-136568571D01*
X158630401Y-136568571D01*
X158764330Y-136497142D01*
X158826830Y-136425714D01*
X158880401Y-136282857D01*
X158916116Y-135997142D01*
X158871473Y-135640000D01*
X158764330Y-135354285D01*
X158675044Y-135211428D01*
X158594687Y-135140000D01*
X158442901Y-135068571D01*
D11*
X171070312Y-131940952D02*
X172260788Y-131940952D01*
X171948288Y-129440952D01*
X169239955Y-130631428D02*
X170073288Y-130631428D01*
X170236979Y-131940952D02*
X169924479Y-129440952D01*
X168734002Y-129440952D01*
X168094122Y-131940952D02*
X167781622Y-129440952D01*
X166665550Y-131940952D02*
X167558407Y-130512380D01*
X166353050Y-129440952D02*
X167960193Y-130869523D01*
X163689360Y-131940952D02*
X163376860Y-129440952D01*
X162781622Y-129440952D01*
X162439360Y-129560000D01*
X162231026Y-129798095D01*
X162141741Y-130036190D01*
X162082217Y-130512380D01*
X162126860Y-130869523D01*
X162305431Y-131345714D01*
X162454241Y-131583809D01*
X162722098Y-131821904D01*
X163094122Y-131940952D01*
X163689360Y-131940952D01*
X160222098Y-131821904D02*
X160475074Y-131940952D01*
X160951264Y-131940952D01*
X161174479Y-131821904D01*
X161263764Y-131583809D01*
X161144717Y-130631428D01*
X160995907Y-130393333D01*
X160742931Y-130274285D01*
X160266741Y-130274285D01*
X160043526Y-130393333D01*
X159954241Y-130631428D01*
X159984002Y-130869523D01*
X161204241Y-131107619D01*
X159150669Y-131821904D02*
X158927455Y-131940952D01*
X158451264Y-131940952D01*
X158198288Y-131821904D01*
X158049479Y-131583809D01*
X158034598Y-131464761D01*
X158123883Y-131226666D01*
X158347098Y-131107619D01*
X158704241Y-131107619D01*
X158927455Y-130988571D01*
X159016741Y-130750476D01*
X159001860Y-130631428D01*
X158853050Y-130393333D01*
X158600074Y-130274285D01*
X158242931Y-130274285D01*
X158019717Y-130393333D01*
X157022693Y-131940952D02*
X156814360Y-130274285D01*
X156710193Y-129440952D02*
X156844122Y-129560000D01*
X156739955Y-129679047D01*
X156606026Y-129560000D01*
X156710193Y-129440952D01*
X156739955Y-129679047D01*
X154552455Y-130274285D02*
X154805431Y-132298095D01*
X154954241Y-132536190D01*
X155088169Y-132655238D01*
X155341145Y-132774285D01*
X155698288Y-132774285D01*
X155921502Y-132655238D01*
X154745907Y-131821904D02*
X154998883Y-131940952D01*
X155475074Y-131940952D01*
X155698288Y-131821904D01*
X155802455Y-131702857D01*
X155891741Y-131464761D01*
X155802455Y-130750476D01*
X155653645Y-130512380D01*
X155519717Y-130393333D01*
X155266741Y-130274285D01*
X154790550Y-130274285D01*
X154567336Y-130393333D01*
X153361979Y-130274285D02*
X153570312Y-131940952D01*
X153391741Y-130512380D02*
X153257812Y-130393333D01*
X153004836Y-130274285D01*
X152647693Y-130274285D01*
X152424479Y-130393333D01*
X152335193Y-130631428D01*
X152498883Y-131940952D01*
X151412574Y-131821904D02*
X151189360Y-131940952D01*
X150713169Y-131940952D01*
X150460193Y-131821904D01*
X150311383Y-131583809D01*
X150296502Y-131464761D01*
X150385788Y-131226666D01*
X150609002Y-131107619D01*
X150966145Y-131107619D01*
X151189360Y-130988571D01*
X151278645Y-130750476D01*
X151263764Y-130631428D01*
X151114955Y-130393333D01*
X150861979Y-130274285D01*
X150504836Y-130274285D01*
X150281622Y-130393333D01*
D12*
X266348600Y-136875304D02*
X265348600Y-136875304D01*
X265348600Y-137113399D01*
X265396220Y-137256256D01*
X265491458Y-137351494D01*
X265586696Y-137399113D01*
X265777172Y-137446732D01*
X265920029Y-137446732D01*
X266110505Y-137399113D01*
X266205743Y-137351494D01*
X266300981Y-137256256D01*
X266348600Y-137113399D01*
X266348600Y-136875304D01*
X265348600Y-138303875D02*
X265348600Y-138113399D01*
X265396220Y-138018161D01*
X265443839Y-137970542D01*
X265586696Y-137875304D01*
X265777172Y-137827685D01*
X266158124Y-137827685D01*
X266253362Y-137875304D01*
X266300981Y-137922923D01*
X266348600Y-138018161D01*
X266348600Y-138208637D01*
X266300981Y-138303875D01*
X266253362Y-138351494D01*
X266158124Y-138399113D01*
X265920029Y-138399113D01*
X265824791Y-138351494D01*
X265777172Y-138303875D01*
X265729553Y-138208637D01*
X265729553Y-138018161D01*
X265777172Y-137922923D01*
X265824791Y-137875304D01*
X265920029Y-137827685D01*
X266348600Y-139351494D02*
X266348600Y-138780066D01*
X266348600Y-139065780D02*
X265348600Y-139065780D01*
X265491458Y-138970542D01*
X265586696Y-138875304D01*
X265634315Y-138780066D01*
X123437430Y-136815682D02*
X122437430Y-136815682D01*
X122437430Y-137053777D01*
X122485050Y-137196634D01*
X122580288Y-137291872D01*
X122675526Y-137339491D01*
X122866002Y-137387110D01*
X123008859Y-137387110D01*
X123199335Y-137339491D01*
X123294573Y-137291872D01*
X123389811Y-137196634D01*
X123437430Y-137053777D01*
X123437430Y-136815682D01*
X122437430Y-138291872D02*
X122437430Y-137815682D01*
X122913621Y-137768063D01*
X122866002Y-137815682D01*
X122818383Y-137910920D01*
X122818383Y-138149015D01*
X122866002Y-138244253D01*
X122913621Y-138291872D01*
X123008859Y-138339491D01*
X123246954Y-138339491D01*
X123342192Y-138291872D01*
X123389811Y-138244253D01*
X123437430Y-138149015D01*
X123437430Y-137910920D01*
X123389811Y-137815682D01*
X123342192Y-137768063D01*
X123437430Y-138815682D02*
X123437430Y-139006158D01*
X123389811Y-139101396D01*
X123342192Y-139149015D01*
X123199335Y-139244253D01*
X123008859Y-139291872D01*
X122627907Y-139291872D01*
X122532669Y-139244253D01*
X122485050Y-139196634D01*
X122437430Y-139101396D01*
X122437430Y-138910920D01*
X122485050Y-138815682D01*
X122532669Y-138768063D01*
X122627907Y-138720444D01*
X122866002Y-138720444D01*
X122961240Y-138768063D01*
X123008859Y-138815682D01*
X123056478Y-138910920D01*
X123056478Y-139101396D01*
X123008859Y-139196634D01*
X122961240Y-139244253D01*
X122866002Y-139291872D01*
X140087420Y-79655635D02*
X139087420Y-79655635D01*
X139087420Y-79893730D01*
X139135040Y-80036587D01*
X139230278Y-80131825D01*
X139325516Y-80179444D01*
X139515992Y-80227063D01*
X139658849Y-80227063D01*
X139849325Y-80179444D01*
X139944563Y-80131825D01*
X140039801Y-80036587D01*
X140087420Y-79893730D01*
X140087420Y-79655635D01*
X140087420Y-81179444D02*
X140087420Y-80608016D01*
X140087420Y-80893730D02*
X139087420Y-80893730D01*
X139230278Y-80798492D01*
X139325516Y-80703254D01*
X139373135Y-80608016D01*
X140087420Y-81655635D02*
X140087420Y-81846111D01*
X140039801Y-81941349D01*
X139992182Y-81988968D01*
X139849325Y-82084206D01*
X139658849Y-82131825D01*
X139277897Y-82131825D01*
X139182659Y-82084206D01*
X139135040Y-82036587D01*
X139087420Y-81941349D01*
X139087420Y-81750873D01*
X139135040Y-81655635D01*
X139182659Y-81608016D01*
X139277897Y-81560397D01*
X139515992Y-81560397D01*
X139611230Y-81608016D01*
X139658849Y-81655635D01*
X139706468Y-81750873D01*
X139706468Y-81941349D01*
X139658849Y-82036587D01*
X139611230Y-82084206D01*
X139515992Y-82131825D01*
X102017563Y-79654423D02*
X101017563Y-79654423D01*
X101017563Y-79892518D01*
X101065183Y-80035375D01*
X101160421Y-80130613D01*
X101255659Y-80178232D01*
X101446135Y-80225851D01*
X101588992Y-80225851D01*
X101779468Y-80178232D01*
X101874706Y-80130613D01*
X101969944Y-80035375D01*
X102017563Y-79892518D01*
X102017563Y-79654423D01*
X102017563Y-81178232D02*
X102017563Y-80606804D01*
X102017563Y-80892518D02*
X101017563Y-80892518D01*
X101160421Y-80797280D01*
X101255659Y-80702042D01*
X101303278Y-80606804D01*
X101017563Y-81511566D02*
X101017563Y-82178232D01*
X102017563Y-81749661D01*
X278214606Y-98701446D02*
X277214606Y-98701446D01*
X277214606Y-98939541D01*
X277262226Y-99082398D01*
X277357464Y-99177636D01*
X277452702Y-99225255D01*
X277643178Y-99272874D01*
X277786035Y-99272874D01*
X277976511Y-99225255D01*
X278071749Y-99177636D01*
X278166987Y-99082398D01*
X278214606Y-98939541D01*
X278214606Y-98701446D01*
X277547940Y-100130017D02*
X278214606Y-100130017D01*
X277166987Y-99891922D02*
X277881273Y-99653827D01*
X277881273Y-100272874D01*
X278214606Y-101177636D02*
X278214606Y-100606208D01*
X278214606Y-100891922D02*
X277214606Y-100891922D01*
X277357464Y-100796684D01*
X277452702Y-100701446D01*
X277500321Y-100606208D01*
X200443357Y-122285201D02*
X200490976Y-122332820D01*
X200633833Y-122380439D01*
X200729071Y-122380439D01*
X200871929Y-122332820D01*
X200967167Y-122237582D01*
X201014786Y-122142344D01*
X201062405Y-121951868D01*
X201062405Y-121809011D01*
X201014786Y-121618535D01*
X200967167Y-121523297D01*
X200871929Y-121428059D01*
X200729071Y-121380439D01*
X200633833Y-121380439D01*
X200490976Y-121428059D01*
X200443357Y-121475678D01*
X199586214Y-121380439D02*
X199776691Y-121380439D01*
X199871929Y-121428059D01*
X199919548Y-121475678D01*
X200014786Y-121618535D01*
X200062405Y-121809011D01*
X200062405Y-122189963D01*
X200014786Y-122285201D01*
X199967167Y-122332820D01*
X199871929Y-122380439D01*
X199681452Y-122380439D01*
X199586214Y-122332820D01*
X199538595Y-122285201D01*
X199490976Y-122189963D01*
X199490976Y-121951868D01*
X199538595Y-121856630D01*
X199586214Y-121809011D01*
X199681452Y-121761392D01*
X199871929Y-121761392D01*
X199967167Y-121809011D01*
X200014786Y-121856630D01*
X200062405Y-121951868D01*
X263949318Y-60560832D02*
X262949318Y-60560832D01*
X262949318Y-60798927D01*
X262996938Y-60941784D01*
X263092176Y-61037022D01*
X263187414Y-61084641D01*
X263377890Y-61132260D01*
X263520747Y-61132260D01*
X263711223Y-61084641D01*
X263806461Y-61037022D01*
X263901699Y-60941784D01*
X263949318Y-60798927D01*
X263949318Y-60560832D01*
X263949318Y-62084641D02*
X263949318Y-61513213D01*
X263949318Y-61798927D02*
X262949318Y-61798927D01*
X263092176Y-61703689D01*
X263187414Y-61608451D01*
X263235033Y-61513213D01*
X263949318Y-63037022D02*
X263949318Y-62465594D01*
X263949318Y-62751308D02*
X262949318Y-62751308D01*
X263092176Y-62656070D01*
X263187414Y-62560832D01*
X263235033Y-62465594D01*
X311571773Y-79621471D02*
X310571773Y-79621471D01*
X310571773Y-79859566D01*
X310619393Y-80002423D01*
X310714631Y-80097661D01*
X310809869Y-80145280D01*
X311000345Y-80192899D01*
X311143202Y-80192899D01*
X311333678Y-80145280D01*
X311428916Y-80097661D01*
X311524154Y-80002423D01*
X311571773Y-79859566D01*
X311571773Y-79621471D01*
X310667012Y-80573852D02*
X310619393Y-80621471D01*
X310571773Y-80716709D01*
X310571773Y-80954804D01*
X310619393Y-81050042D01*
X310667012Y-81097661D01*
X310762250Y-81145280D01*
X310857488Y-81145280D01*
X311000345Y-81097661D01*
X311571773Y-80526233D01*
X311571773Y-81145280D01*
X311000345Y-81716709D02*
X310952726Y-81621471D01*
X310905107Y-81573852D01*
X310809869Y-81526233D01*
X310762250Y-81526233D01*
X310667012Y-81573852D01*
X310619393Y-81621471D01*
X310571773Y-81716709D01*
X310571773Y-81907185D01*
X310619393Y-82002423D01*
X310667012Y-82050042D01*
X310762250Y-82097661D01*
X310809869Y-82097661D01*
X310905107Y-82050042D01*
X310952726Y-82002423D01*
X311000345Y-81907185D01*
X311000345Y-81716709D01*
X311047964Y-81621471D01*
X311095583Y-81573852D01*
X311190821Y-81526233D01*
X311381297Y-81526233D01*
X311476535Y-81573852D01*
X311524154Y-81621471D01*
X311571773Y-81716709D01*
X311571773Y-81907185D01*
X311524154Y-82002423D01*
X311476535Y-82050042D01*
X311381297Y-82097661D01*
X311190821Y-82097661D01*
X311095583Y-82050042D01*
X311047964Y-82002423D01*
X311000345Y-81907185D01*
X340125342Y-117839629D02*
X339125342Y-117839629D01*
X339125342Y-118077724D01*
X339172962Y-118220581D01*
X339268200Y-118315819D01*
X339363438Y-118363438D01*
X339553914Y-118411057D01*
X339696771Y-118411057D01*
X339887247Y-118363438D01*
X339982485Y-118315819D01*
X340077723Y-118220581D01*
X340125342Y-118077724D01*
X340125342Y-117839629D01*
X339125342Y-119315819D02*
X339125342Y-118839629D01*
X339601533Y-118792010D01*
X339553914Y-118839629D01*
X339506295Y-118934867D01*
X339506295Y-119172962D01*
X339553914Y-119268200D01*
X339601533Y-119315819D01*
X339696771Y-119363438D01*
X339934866Y-119363438D01*
X340030104Y-119315819D01*
X340077723Y-119268200D01*
X340125342Y-119172962D01*
X340125342Y-118934867D01*
X340077723Y-118839629D01*
X340030104Y-118792010D01*
X339125342Y-120220581D02*
X339125342Y-120030105D01*
X339172962Y-119934867D01*
X339220581Y-119887248D01*
X339363438Y-119792010D01*
X339553914Y-119744391D01*
X339934866Y-119744391D01*
X340030104Y-119792010D01*
X340077723Y-119839629D01*
X340125342Y-119934867D01*
X340125342Y-120125343D01*
X340077723Y-120220581D01*
X340030104Y-120268200D01*
X339934866Y-120315819D01*
X339696771Y-120315819D01*
X339601533Y-120268200D01*
X339553914Y-120220581D01*
X339506295Y-120125343D01*
X339506295Y-119934867D01*
X339553914Y-119839629D01*
X339601533Y-119792010D01*
X339696771Y-119744391D01*
X220188188Y-117322818D02*
X220235807Y-117275199D01*
X220283426Y-117132342D01*
X220283426Y-117037104D01*
X220235807Y-116894246D01*
X220140569Y-116799008D01*
X220045331Y-116751389D01*
X219854855Y-116703770D01*
X219711998Y-116703770D01*
X219521522Y-116751389D01*
X219426284Y-116799008D01*
X219331046Y-116894246D01*
X219283426Y-117037104D01*
X219283426Y-117132342D01*
X219331046Y-117275199D01*
X219378665Y-117322818D01*
X219283426Y-117656151D02*
X219283426Y-118275199D01*
X219664379Y-117941865D01*
X219664379Y-118084723D01*
X219711998Y-118179961D01*
X219759617Y-118227580D01*
X219854855Y-118275199D01*
X220092950Y-118275199D01*
X220188188Y-118227580D01*
X220235807Y-118179961D01*
X220283426Y-118084723D01*
X220283426Y-117799008D01*
X220235807Y-117703770D01*
X220188188Y-117656151D01*
X192495176Y-117746645D02*
X191495176Y-117746645D01*
X191495176Y-117984740D01*
X191542796Y-118127597D01*
X191638034Y-118222835D01*
X191733272Y-118270454D01*
X191923748Y-118318073D01*
X192066605Y-118318073D01*
X192257081Y-118270454D01*
X192352319Y-118222835D01*
X192447557Y-118127597D01*
X192495176Y-117984740D01*
X192495176Y-117746645D01*
X191828510Y-119175216D02*
X192495176Y-119175216D01*
X191447557Y-118937121D02*
X192161843Y-118699026D01*
X192161843Y-119318073D01*
X192495176Y-119746645D02*
X192495176Y-119937121D01*
X192447557Y-120032359D01*
X192399938Y-120079978D01*
X192257081Y-120175216D01*
X192066605Y-120222835D01*
X191685653Y-120222835D01*
X191590415Y-120175216D01*
X191542796Y-120127597D01*
X191495176Y-120032359D01*
X191495176Y-119841883D01*
X191542796Y-119746645D01*
X191590415Y-119699026D01*
X191685653Y-119651407D01*
X191923748Y-119651407D01*
X192018986Y-119699026D01*
X192066605Y-119746645D01*
X192114224Y-119841883D01*
X192114224Y-120032359D01*
X192066605Y-120127597D01*
X192018986Y-120175216D01*
X191923748Y-120222835D01*
X209221130Y-116975147D02*
X208221130Y-116975147D01*
X208221130Y-117213242D01*
X208268750Y-117356099D01*
X208363988Y-117451337D01*
X208459226Y-117498956D01*
X208649702Y-117546575D01*
X208792559Y-117546575D01*
X208983035Y-117498956D01*
X209078273Y-117451337D01*
X209173511Y-117356099D01*
X209221130Y-117213242D01*
X209221130Y-116975147D01*
X208221130Y-118451337D02*
X208221130Y-117975147D01*
X208697321Y-117927528D01*
X208649702Y-117975147D01*
X208602083Y-118070385D01*
X208602083Y-118308480D01*
X208649702Y-118403718D01*
X208697321Y-118451337D01*
X208792559Y-118498956D01*
X209030654Y-118498956D01*
X209125892Y-118451337D01*
X209173511Y-118403718D01*
X209221130Y-118308480D01*
X209221130Y-118070385D01*
X209173511Y-117975147D01*
X209125892Y-117927528D01*
X208221130Y-119118004D02*
X208221130Y-119213242D01*
X208268750Y-119308480D01*
X208316369Y-119356099D01*
X208411607Y-119403718D01*
X208602083Y-119451337D01*
X208840178Y-119451337D01*
X209030654Y-119403718D01*
X209125892Y-119356099D01*
X209173511Y-119308480D01*
X209221130Y-119213242D01*
X209221130Y-119118004D01*
X209173511Y-119022766D01*
X209125892Y-118975147D01*
X209030654Y-118927528D01*
X208840178Y-118879909D01*
X208602083Y-118879909D01*
X208411607Y-118927528D01*
X208316369Y-118975147D01*
X208268750Y-119022766D01*
X208221130Y-119118004D01*
X216281972Y-79761420D02*
X215281972Y-79761420D01*
X215281972Y-79999515D01*
X215329592Y-80142372D01*
X215424830Y-80237610D01*
X215520068Y-80285229D01*
X215710544Y-80332848D01*
X215853401Y-80332848D01*
X216043877Y-80285229D01*
X216139115Y-80237610D01*
X216234353Y-80142372D01*
X216281972Y-79999515D01*
X216281972Y-79761420D01*
X215377211Y-80713801D02*
X215329592Y-80761420D01*
X215281972Y-80856658D01*
X215281972Y-81094753D01*
X215329592Y-81189991D01*
X215377211Y-81237610D01*
X215472449Y-81285229D01*
X215567687Y-81285229D01*
X215710544Y-81237610D01*
X216281972Y-80666182D01*
X216281972Y-81285229D01*
X215281972Y-81618563D02*
X215281972Y-82237610D01*
X215662925Y-81904277D01*
X215662925Y-82047134D01*
X215710544Y-82142372D01*
X215758163Y-82189991D01*
X215853401Y-82237610D01*
X216091496Y-82237610D01*
X216186734Y-82189991D01*
X216234353Y-82142372D01*
X216281972Y-82047134D01*
X216281972Y-81761420D01*
X216234353Y-81666182D01*
X216186734Y-81618563D01*
X297256317Y-98714511D02*
X296256317Y-98714511D01*
X296256317Y-98952606D01*
X296303937Y-99095463D01*
X296399175Y-99190701D01*
X296494413Y-99238320D01*
X296684889Y-99285939D01*
X296827746Y-99285939D01*
X297018222Y-99238320D01*
X297113460Y-99190701D01*
X297208698Y-99095463D01*
X297256317Y-98952606D01*
X297256317Y-98714511D01*
X296589651Y-100143082D02*
X297256317Y-100143082D01*
X296208698Y-99904987D02*
X296922984Y-99666892D01*
X296922984Y-100285939D01*
X296351556Y-100619273D02*
X296303937Y-100666892D01*
X296256317Y-100762130D01*
X296256317Y-101000225D01*
X296303937Y-101095463D01*
X296351556Y-101143082D01*
X296446794Y-101190701D01*
X296542032Y-101190701D01*
X296684889Y-101143082D01*
X297256317Y-100571654D01*
X297256317Y-101190701D01*
X359187305Y-79620947D02*
X358187305Y-79620947D01*
X358187305Y-79859042D01*
X358234925Y-80001899D01*
X358330163Y-80097137D01*
X358425401Y-80144756D01*
X358615877Y-80192375D01*
X358758734Y-80192375D01*
X358949210Y-80144756D01*
X359044448Y-80097137D01*
X359139686Y-80001899D01*
X359187305Y-79859042D01*
X359187305Y-79620947D01*
X358187305Y-80525709D02*
X358187305Y-81144756D01*
X358568258Y-80811423D01*
X358568258Y-80954280D01*
X358615877Y-81049518D01*
X358663496Y-81097137D01*
X358758734Y-81144756D01*
X358996829Y-81144756D01*
X359092067Y-81097137D01*
X359139686Y-81049518D01*
X359187305Y-80954280D01*
X359187305Y-80668566D01*
X359139686Y-80573328D01*
X359092067Y-80525709D01*
X358187305Y-81763804D02*
X358187305Y-81859042D01*
X358234925Y-81954280D01*
X358282544Y-82001899D01*
X358377782Y-82049518D01*
X358568258Y-82097137D01*
X358806353Y-82097137D01*
X358996829Y-82049518D01*
X359092067Y-82001899D01*
X359139686Y-81954280D01*
X359187305Y-81859042D01*
X359187305Y-81763804D01*
X359139686Y-81668566D01*
X359092067Y-81620947D01*
X358996829Y-81573328D01*
X358806353Y-81525709D01*
X358568258Y-81525709D01*
X358377782Y-81573328D01*
X358282544Y-81620947D01*
X358234925Y-81668566D01*
X358187305Y-81763804D01*
X268692483Y-117783752D02*
X267692483Y-117783752D01*
X267692483Y-118021847D01*
X267740103Y-118164704D01*
X267835341Y-118259942D01*
X267930579Y-118307561D01*
X268121055Y-118355180D01*
X268263912Y-118355180D01*
X268454388Y-118307561D01*
X268549626Y-118259942D01*
X268644864Y-118164704D01*
X268692483Y-118021847D01*
X268692483Y-117783752D01*
X267692483Y-119259942D02*
X267692483Y-118783752D01*
X268168674Y-118736133D01*
X268121055Y-118783752D01*
X268073436Y-118878990D01*
X268073436Y-119117085D01*
X268121055Y-119212323D01*
X268168674Y-119259942D01*
X268263912Y-119307561D01*
X268502007Y-119307561D01*
X268597245Y-119259942D01*
X268644864Y-119212323D01*
X268692483Y-119117085D01*
X268692483Y-118878990D01*
X268644864Y-118783752D01*
X268597245Y-118736133D01*
X267692483Y-119640895D02*
X267692483Y-120259942D01*
X268073436Y-119926609D01*
X268073436Y-120069466D01*
X268121055Y-120164704D01*
X268168674Y-120212323D01*
X268263912Y-120259942D01*
X268502007Y-120259942D01*
X268597245Y-120212323D01*
X268644864Y-120164704D01*
X268692483Y-120069466D01*
X268692483Y-119783752D01*
X268644864Y-119688514D01*
X268597245Y-119640895D01*
D13*
X245588093Y-126239782D02*
X245088093Y-126239782D01*
X245445236Y-126406449D01*
X245088093Y-126573116D01*
X245588093Y-126573116D01*
X245088093Y-126906449D02*
X245088093Y-127001687D01*
X245111903Y-127049306D01*
X245159522Y-127096925D01*
X245254760Y-127120735D01*
X245421426Y-127120735D01*
X245516664Y-127096925D01*
X245564283Y-127049306D01*
X245588093Y-127001687D01*
X245588093Y-126906449D01*
X245564283Y-126858830D01*
X245516664Y-126811211D01*
X245421426Y-126787401D01*
X245254760Y-126787401D01*
X245159522Y-126811211D01*
X245111903Y-126858830D01*
X245088093Y-126906449D01*
X245564283Y-127311211D02*
X245588093Y-127382639D01*
X245588093Y-127501687D01*
X245564283Y-127549306D01*
X245540474Y-127573116D01*
X245492855Y-127596925D01*
X245445236Y-127596925D01*
X245397617Y-127573116D01*
X245373807Y-127549306D01*
X245349998Y-127501687D01*
X245326188Y-127406449D01*
X245302379Y-127358830D01*
X245278569Y-127335020D01*
X245230950Y-127311211D01*
X245183331Y-127311211D01*
X245135712Y-127335020D01*
X245111903Y-127358830D01*
X245088093Y-127406449D01*
X245088093Y-127525497D01*
X245111903Y-127596925D01*
X245588093Y-127811211D02*
X245088093Y-127811211D01*
X239382934Y-126368297D02*
X239406744Y-126439726D01*
X239406744Y-126558774D01*
X239382934Y-126606393D01*
X239359125Y-126630202D01*
X239311506Y-126654012D01*
X239263887Y-126654012D01*
X239216268Y-126630202D01*
X239192458Y-126606393D01*
X239168649Y-126558774D01*
X239144839Y-126463535D01*
X239121030Y-126415916D01*
X239097220Y-126392107D01*
X239049601Y-126368297D01*
X239001982Y-126368297D01*
X238954363Y-126392107D01*
X238930554Y-126415916D01*
X238906744Y-126463535D01*
X238906744Y-126582583D01*
X238930554Y-126654012D01*
X239359125Y-127154012D02*
X239382934Y-127130202D01*
X239406744Y-127058774D01*
X239406744Y-127011155D01*
X239382934Y-126939726D01*
X239335315Y-126892107D01*
X239287696Y-126868297D01*
X239192458Y-126844488D01*
X239121030Y-126844488D01*
X239025792Y-126868297D01*
X238978173Y-126892107D01*
X238930554Y-126939726D01*
X238906744Y-127011155D01*
X238906744Y-127058774D01*
X238930554Y-127130202D01*
X238954363Y-127154012D01*
X239406744Y-127368297D02*
X238906744Y-127368297D01*
X239406744Y-127654012D02*
X239121030Y-127439726D01*
X238906744Y-127654012D02*
X239192458Y-127368297D01*
X239435428Y-128663559D02*
X238935428Y-128663559D01*
X239292571Y-128830226D01*
X238935428Y-128996893D01*
X239435428Y-128996893D01*
X239435428Y-129234988D02*
X238935428Y-129234988D01*
X239411618Y-129449274D02*
X239435428Y-129520702D01*
X239435428Y-129639750D01*
X239411618Y-129687369D01*
X239387809Y-129711178D01*
X239340190Y-129734988D01*
X239292571Y-129734988D01*
X239244952Y-129711178D01*
X239221142Y-129687369D01*
X239197333Y-129639750D01*
X239173523Y-129544512D01*
X239149714Y-129496893D01*
X239125904Y-129473083D01*
X239078285Y-129449274D01*
X239030666Y-129449274D01*
X238983047Y-129473083D01*
X238959238Y-129496893D01*
X238935428Y-129544512D01*
X238935428Y-129663559D01*
X238959238Y-129734988D01*
X238935428Y-130044512D02*
X238935428Y-130139750D01*
X238959238Y-130187369D01*
X239006857Y-130234988D01*
X239102095Y-130258797D01*
X239268761Y-130258797D01*
X239363999Y-130234988D01*
X239411618Y-130187369D01*
X239435428Y-130139750D01*
X239435428Y-130044512D01*
X239411618Y-129996893D01*
X239363999Y-129949274D01*
X239268761Y-129925464D01*
X239102095Y-129925464D01*
X239006857Y-129949274D01*
X238959238Y-129996893D01*
X238935428Y-130044512D01*
X245102435Y-128782607D02*
X245602435Y-128949274D01*
X245102435Y-129115940D01*
X245554816Y-129568321D02*
X245578625Y-129544512D01*
X245602435Y-129473083D01*
X245602435Y-129425464D01*
X245578625Y-129354035D01*
X245531006Y-129306416D01*
X245483387Y-129282607D01*
X245388149Y-129258797D01*
X245316721Y-129258797D01*
X245221483Y-129282607D01*
X245173864Y-129306416D01*
X245126245Y-129354035D01*
X245102435Y-129425464D01*
X245102435Y-129473083D01*
X245126245Y-129544512D01*
X245150054Y-129568321D01*
X245554816Y-130068321D02*
X245578625Y-130044512D01*
X245602435Y-129973083D01*
X245602435Y-129925464D01*
X245578625Y-129854035D01*
X245531006Y-129806416D01*
X245483387Y-129782607D01*
X245388149Y-129758797D01*
X245316721Y-129758797D01*
X245221483Y-129782607D01*
X245173864Y-129806416D01*
X245126245Y-129854035D01*
X245102435Y-129925464D01*
X245102435Y-129973083D01*
X245126245Y-130044512D01*
X245150054Y-130068321D01*
D12*
X247817742Y-121998245D02*
X247912980Y-121950625D01*
X248055838Y-121950625D01*
X248198695Y-121998245D01*
X248293933Y-122093483D01*
X248341552Y-122188721D01*
X248389171Y-122379197D01*
X248389171Y-122522054D01*
X248341552Y-122712530D01*
X248293933Y-122807768D01*
X248198695Y-122903006D01*
X248055838Y-122950625D01*
X247960599Y-122950625D01*
X247817742Y-122903006D01*
X247770123Y-122855387D01*
X247770123Y-122522054D01*
X247960599Y-122522054D01*
X247341552Y-122950625D02*
X247341552Y-121950625D01*
X246770123Y-122950625D01*
X246770123Y-121950625D01*
X246293933Y-122950625D02*
X246293933Y-121950625D01*
X246055838Y-121950625D01*
X245912980Y-121998245D01*
X245817742Y-122093483D01*
X245770123Y-122188721D01*
X245722504Y-122379197D01*
X245722504Y-122522054D01*
X245770123Y-122712530D01*
X245817742Y-122807768D01*
X245912980Y-122903006D01*
X246055838Y-122950625D01*
X246293933Y-122950625D01*
D14*
X242530422Y-122736821D02*
X242730422Y-122451107D01*
X242873279Y-122736821D02*
X242873279Y-122136821D01*
X242644708Y-122136821D01*
X242587565Y-122165393D01*
X242558993Y-122193964D01*
X242530422Y-122251107D01*
X242530422Y-122336821D01*
X242558993Y-122393964D01*
X242587565Y-122422535D01*
X242644708Y-122451107D01*
X242873279Y-122451107D01*
X242301851Y-122708250D02*
X242216136Y-122736821D01*
X242073279Y-122736821D01*
X242016136Y-122708250D01*
X241987565Y-122679678D01*
X241958993Y-122622535D01*
X241958993Y-122565393D01*
X241987565Y-122508250D01*
X242016136Y-122479678D01*
X242073279Y-122451107D01*
X242187565Y-122422535D01*
X242244708Y-122393964D01*
X242273279Y-122365393D01*
X242301851Y-122308250D01*
X242301851Y-122251107D01*
X242273279Y-122193964D01*
X242244708Y-122165393D01*
X242187565Y-122136821D01*
X242044708Y-122136821D01*
X241958993Y-122165393D01*
X241787565Y-122136821D02*
X241444708Y-122136821D01*
X241616136Y-122736821D02*
X241616136Y-122136821D01*
D12*
X92546130Y-61274404D02*
X91546130Y-61274404D01*
X91546130Y-61512500D01*
X91593750Y-61655357D01*
X91688988Y-61750595D01*
X91784226Y-61798214D01*
X91974702Y-61845833D01*
X92117559Y-61845833D01*
X92308035Y-61798214D01*
X92403273Y-61750595D01*
X92498511Y-61655357D01*
X92546130Y-61512500D01*
X92546130Y-61274404D01*
X91641369Y-62226785D02*
X91593750Y-62274404D01*
X91546130Y-62369642D01*
X91546130Y-62607738D01*
X91593750Y-62702976D01*
X91641369Y-62750595D01*
X91736607Y-62798214D01*
X91831845Y-62798214D01*
X91974702Y-62750595D01*
X92546130Y-62179166D01*
X92546130Y-62798214D01*
X187796130Y-61324404D02*
X186796130Y-61324404D01*
X186796130Y-61562500D01*
X186843750Y-61705357D01*
X186938988Y-61800595D01*
X187034226Y-61848214D01*
X187224702Y-61895833D01*
X187367559Y-61895833D01*
X187558035Y-61848214D01*
X187653273Y-61800595D01*
X187748511Y-61705357D01*
X187796130Y-61562500D01*
X187796130Y-61324404D01*
X186796130Y-62229166D02*
X186796130Y-62895833D01*
X187796130Y-62467261D01*
X226448579Y-133340766D02*
X226496198Y-133388385D01*
X226639055Y-133436004D01*
X226734293Y-133436004D01*
X226877151Y-133388385D01*
X226972389Y-133293147D01*
X227020008Y-133197909D01*
X227067627Y-133007433D01*
X227067627Y-132864576D01*
X227020008Y-132674100D01*
X226972389Y-132578862D01*
X226877151Y-132483624D01*
X226734293Y-132436004D01*
X226639055Y-132436004D01*
X226496198Y-132483624D01*
X226448579Y-132531243D01*
X226067627Y-132531243D02*
X226020008Y-132483624D01*
X225924770Y-132436004D01*
X225686674Y-132436004D01*
X225591436Y-132483624D01*
X225543817Y-132531243D01*
X225496198Y-132626481D01*
X225496198Y-132721719D01*
X225543817Y-132864576D01*
X226115246Y-133436004D01*
X225496198Y-133436004D01*
D15*
X209809991Y-62675629D02*
X209809991Y-63323248D01*
X209771896Y-63399439D01*
X209733801Y-63437534D01*
X209657610Y-63475629D01*
X209505229Y-63475629D01*
X209429039Y-63437534D01*
X209390944Y-63399439D01*
X209352848Y-63323248D01*
X209352848Y-62675629D01*
X209009991Y-62751820D02*
X208971896Y-62713725D01*
X208895706Y-62675629D01*
X208705229Y-62675629D01*
X208629039Y-62713725D01*
X208590944Y-62751820D01*
X208552848Y-62828010D01*
X208552848Y-62904201D01*
X208590944Y-63018486D01*
X209048087Y-63475629D01*
X208552848Y-63475629D01*
D12*
X240107758Y-98737148D02*
X239107758Y-98737148D01*
X239107758Y-98975243D01*
X239155378Y-99118100D01*
X239250616Y-99213338D01*
X239345854Y-99260957D01*
X239536330Y-99308576D01*
X239679187Y-99308576D01*
X239869663Y-99260957D01*
X239964901Y-99213338D01*
X240060139Y-99118100D01*
X240107758Y-98975243D01*
X240107758Y-98737148D01*
X239107758Y-99641910D02*
X239107758Y-100260957D01*
X239488711Y-99927624D01*
X239488711Y-100070481D01*
X239536330Y-100165719D01*
X239583949Y-100213338D01*
X239679187Y-100260957D01*
X239917282Y-100260957D01*
X240012520Y-100213338D01*
X240060139Y-100165719D01*
X240107758Y-100070481D01*
X240107758Y-99784767D01*
X240060139Y-99689529D01*
X240012520Y-99641910D01*
X240107758Y-100737148D02*
X240107758Y-100927624D01*
X240060139Y-101022862D01*
X240012520Y-101070481D01*
X239869663Y-101165719D01*
X239679187Y-101213338D01*
X239298235Y-101213338D01*
X239202997Y-101165719D01*
X239155378Y-101118100D01*
X239107758Y-101022862D01*
X239107758Y-100832386D01*
X239155378Y-100737148D01*
X239202997Y-100689529D01*
X239298235Y-100641910D01*
X239536330Y-100641910D01*
X239631568Y-100689529D01*
X239679187Y-100737148D01*
X239726806Y-100832386D01*
X239726806Y-101022862D01*
X239679187Y-101118100D01*
X239631568Y-101165719D01*
X239536330Y-101213338D01*
X85319971Y-117758267D02*
X84319971Y-117758267D01*
X84319971Y-117996362D01*
X84367591Y-118139219D01*
X84462829Y-118234457D01*
X84558067Y-118282076D01*
X84748543Y-118329695D01*
X84891400Y-118329695D01*
X85081876Y-118282076D01*
X85177114Y-118234457D01*
X85272352Y-118139219D01*
X85319971Y-117996362D01*
X85319971Y-117758267D01*
X84653305Y-119186838D02*
X85319971Y-119186838D01*
X84272352Y-118948743D02*
X84986638Y-118710648D01*
X84986638Y-119329695D01*
X84653305Y-120139219D02*
X85319971Y-120139219D01*
X84272352Y-119901124D02*
X84986638Y-119663029D01*
X84986638Y-120282076D01*
X254435316Y-79781935D02*
X253435316Y-79781935D01*
X253435316Y-80020030D01*
X253482936Y-80162887D01*
X253578174Y-80258125D01*
X253673412Y-80305744D01*
X253863888Y-80353363D01*
X254006745Y-80353363D01*
X254197221Y-80305744D01*
X254292459Y-80258125D01*
X254387697Y-80162887D01*
X254435316Y-80020030D01*
X254435316Y-79781935D01*
X253530555Y-80734316D02*
X253482936Y-80781935D01*
X253435316Y-80877173D01*
X253435316Y-81115268D01*
X253482936Y-81210506D01*
X253530555Y-81258125D01*
X253625793Y-81305744D01*
X253721031Y-81305744D01*
X253863888Y-81258125D01*
X254435316Y-80686697D01*
X254435316Y-81305744D01*
X253435316Y-82210506D02*
X253435316Y-81734316D01*
X253911507Y-81686697D01*
X253863888Y-81734316D01*
X253816269Y-81829554D01*
X253816269Y-82067649D01*
X253863888Y-82162887D01*
X253911507Y-82210506D01*
X254006745Y-82258125D01*
X254244840Y-82258125D01*
X254340078Y-82210506D01*
X254387697Y-82162887D01*
X254435316Y-82067649D01*
X254435316Y-81829554D01*
X254387697Y-81734316D01*
X254340078Y-81686697D01*
X111596130Y-61274404D02*
X110596130Y-61274404D01*
X110596130Y-61512500D01*
X110643750Y-61655357D01*
X110738988Y-61750595D01*
X110834226Y-61798214D01*
X111024702Y-61845833D01*
X111167559Y-61845833D01*
X111358035Y-61798214D01*
X111453273Y-61750595D01*
X111548511Y-61655357D01*
X111596130Y-61512500D01*
X111596130Y-61274404D01*
X110596130Y-62179166D02*
X110596130Y-62798214D01*
X110977083Y-62464880D01*
X110977083Y-62607738D01*
X111024702Y-62702976D01*
X111072321Y-62750595D01*
X111167559Y-62798214D01*
X111405654Y-62798214D01*
X111500892Y-62750595D01*
X111548511Y-62702976D01*
X111596130Y-62607738D01*
X111596130Y-62322023D01*
X111548511Y-62226785D01*
X111500892Y-62179166D01*
X116283149Y-117816613D02*
X115283149Y-117816613D01*
X115283149Y-118054708D01*
X115330769Y-118197565D01*
X115426007Y-118292803D01*
X115521245Y-118340422D01*
X115711721Y-118388041D01*
X115854578Y-118388041D01*
X116045054Y-118340422D01*
X116140292Y-118292803D01*
X116235530Y-118197565D01*
X116283149Y-118054708D01*
X116283149Y-117816613D01*
X115616483Y-119245184D02*
X116283149Y-119245184D01*
X115235530Y-119007089D02*
X115949816Y-118768994D01*
X115949816Y-119388041D01*
X115283149Y-120245184D02*
X115283149Y-119768994D01*
X115759340Y-119721375D01*
X115711721Y-119768994D01*
X115664102Y-119864232D01*
X115664102Y-120102327D01*
X115711721Y-120197565D01*
X115759340Y-120245184D01*
X115854578Y-120292803D01*
X116092673Y-120292803D01*
X116187911Y-120245184D01*
X116235530Y-120197565D01*
X116283149Y-120102327D01*
X116283149Y-119864232D01*
X116235530Y-119768994D01*
X116187911Y-119721375D01*
X121018116Y-79637629D02*
X120018116Y-79637629D01*
X120018116Y-79875724D01*
X120065736Y-80018581D01*
X120160974Y-80113819D01*
X120256212Y-80161438D01*
X120446688Y-80209057D01*
X120589545Y-80209057D01*
X120780021Y-80161438D01*
X120875259Y-80113819D01*
X120970497Y-80018581D01*
X121018116Y-79875724D01*
X121018116Y-79637629D01*
X121018116Y-81161438D02*
X121018116Y-80590010D01*
X121018116Y-80875724D02*
X120018116Y-80875724D01*
X120160974Y-80780486D01*
X120256212Y-80685248D01*
X120303831Y-80590010D01*
X120446688Y-81732867D02*
X120399069Y-81637629D01*
X120351450Y-81590010D01*
X120256212Y-81542391D01*
X120208593Y-81542391D01*
X120113355Y-81590010D01*
X120065736Y-81637629D01*
X120018116Y-81732867D01*
X120018116Y-81923343D01*
X120065736Y-82018581D01*
X120113355Y-82066200D01*
X120208593Y-82113819D01*
X120256212Y-82113819D01*
X120351450Y-82066200D01*
X120399069Y-82018581D01*
X120446688Y-81923343D01*
X120446688Y-81732867D01*
X120494307Y-81637629D01*
X120541926Y-81590010D01*
X120637164Y-81542391D01*
X120827640Y-81542391D01*
X120922878Y-81590010D01*
X120970497Y-81637629D01*
X121018116Y-81732867D01*
X121018116Y-81923343D01*
X120970497Y-82018581D01*
X120922878Y-82066200D01*
X120827640Y-82113819D01*
X120637164Y-82113819D01*
X120541926Y-82066200D01*
X120494307Y-82018581D01*
X120446688Y-81923343D01*
X221057953Y-98736757D02*
X220057953Y-98736757D01*
X220057953Y-98974852D01*
X220105573Y-99117709D01*
X220200811Y-99212947D01*
X220296049Y-99260566D01*
X220486525Y-99308185D01*
X220629382Y-99308185D01*
X220819858Y-99260566D01*
X220915096Y-99212947D01*
X221010334Y-99117709D01*
X221057953Y-98974852D01*
X221057953Y-98736757D01*
X220057953Y-99641519D02*
X220057953Y-100260566D01*
X220438906Y-99927233D01*
X220438906Y-100070090D01*
X220486525Y-100165328D01*
X220534144Y-100212947D01*
X220629382Y-100260566D01*
X220867477Y-100260566D01*
X220962715Y-100212947D01*
X221010334Y-100165328D01*
X221057953Y-100070090D01*
X221057953Y-99784376D01*
X221010334Y-99689138D01*
X220962715Y-99641519D01*
X220486525Y-100831995D02*
X220438906Y-100736757D01*
X220391287Y-100689138D01*
X220296049Y-100641519D01*
X220248430Y-100641519D01*
X220153192Y-100689138D01*
X220105573Y-100736757D01*
X220057953Y-100831995D01*
X220057953Y-101022471D01*
X220105573Y-101117709D01*
X220153192Y-101165328D01*
X220248430Y-101212947D01*
X220296049Y-101212947D01*
X220391287Y-101165328D01*
X220438906Y-101117709D01*
X220486525Y-101022471D01*
X220486525Y-100831995D01*
X220534144Y-100736757D01*
X220581763Y-100689138D01*
X220677001Y-100641519D01*
X220867477Y-100641519D01*
X220962715Y-100689138D01*
X221010334Y-100736757D01*
X221057953Y-100831995D01*
X221057953Y-101022471D01*
X221010334Y-101117709D01*
X220962715Y-101165328D01*
X220867477Y-101212947D01*
X220677001Y-101212947D01*
X220581763Y-101165328D01*
X220534144Y-101117709D01*
X220486525Y-101022471D01*
X173585845Y-117823834D02*
X172585845Y-117823834D01*
X172585845Y-118061929D01*
X172633465Y-118204786D01*
X172728703Y-118300024D01*
X172823941Y-118347643D01*
X173014417Y-118395262D01*
X173157274Y-118395262D01*
X173347750Y-118347643D01*
X173442988Y-118300024D01*
X173538226Y-118204786D01*
X173585845Y-118061929D01*
X173585845Y-117823834D01*
X172919179Y-119252405D02*
X173585845Y-119252405D01*
X172538226Y-119014310D02*
X173252512Y-118776215D01*
X173252512Y-119395262D01*
X173014417Y-119919072D02*
X172966798Y-119823834D01*
X172919179Y-119776215D01*
X172823941Y-119728596D01*
X172776322Y-119728596D01*
X172681084Y-119776215D01*
X172633465Y-119823834D01*
X172585845Y-119919072D01*
X172585845Y-120109548D01*
X172633465Y-120204786D01*
X172681084Y-120252405D01*
X172776322Y-120300024D01*
X172823941Y-120300024D01*
X172919179Y-120252405D01*
X172966798Y-120204786D01*
X173014417Y-120109548D01*
X173014417Y-119919072D01*
X173062036Y-119823834D01*
X173109655Y-119776215D01*
X173204893Y-119728596D01*
X173395369Y-119728596D01*
X173490607Y-119776215D01*
X173538226Y-119823834D01*
X173585845Y-119919072D01*
X173585845Y-120109548D01*
X173538226Y-120204786D01*
X173490607Y-120252405D01*
X173395369Y-120300024D01*
X173204893Y-120300024D01*
X173109655Y-120252405D01*
X173062036Y-120204786D01*
X173014417Y-120109548D01*
X209872029Y-112309239D02*
X209395839Y-111975906D01*
X209872029Y-111737810D02*
X208872029Y-111737810D01*
X208872029Y-112118763D01*
X208919649Y-112214001D01*
X208967268Y-112261620D01*
X209062506Y-112309239D01*
X209205363Y-112309239D01*
X209300601Y-112261620D01*
X209348220Y-112214001D01*
X209395839Y-112118763D01*
X209395839Y-111737810D01*
X208872029Y-112642572D02*
X208872029Y-113261620D01*
X209252982Y-112928286D01*
X209252982Y-113071144D01*
X209300601Y-113166382D01*
X209348220Y-113214001D01*
X209443458Y-113261620D01*
X209681553Y-113261620D01*
X209776791Y-113214001D01*
X209824410Y-113166382D01*
X209872029Y-113071144D01*
X209872029Y-112785429D01*
X209824410Y-112690191D01*
X209776791Y-112642572D01*
X313952888Y-117796631D02*
X312952888Y-117796631D01*
X312952888Y-118034726D01*
X313000508Y-118177583D01*
X313095746Y-118272821D01*
X313190984Y-118320440D01*
X313381460Y-118368059D01*
X313524317Y-118368059D01*
X313714793Y-118320440D01*
X313810031Y-118272821D01*
X313905269Y-118177583D01*
X313952888Y-118034726D01*
X313952888Y-117796631D01*
X312952888Y-119272821D02*
X312952888Y-118796631D01*
X313429079Y-118749012D01*
X313381460Y-118796631D01*
X313333841Y-118891869D01*
X313333841Y-119129964D01*
X313381460Y-119225202D01*
X313429079Y-119272821D01*
X313524317Y-119320440D01*
X313762412Y-119320440D01*
X313857650Y-119272821D01*
X313905269Y-119225202D01*
X313952888Y-119129964D01*
X313952888Y-118891869D01*
X313905269Y-118796631D01*
X313857650Y-118749012D01*
X312952888Y-120225202D02*
X312952888Y-119749012D01*
X313429079Y-119701393D01*
X313381460Y-119749012D01*
X313333841Y-119844250D01*
X313333841Y-120082345D01*
X313381460Y-120177583D01*
X313429079Y-120225202D01*
X313524317Y-120272821D01*
X313762412Y-120272821D01*
X313857650Y-120225202D01*
X313905269Y-120177583D01*
X313952888Y-120082345D01*
X313952888Y-119844250D01*
X313905269Y-119749012D01*
X313857650Y-119701393D01*
X73489880Y-61261904D02*
X72489880Y-61261904D01*
X72489880Y-61500000D01*
X72537500Y-61642857D01*
X72632738Y-61738095D01*
X72727976Y-61785714D01*
X72918452Y-61833333D01*
X73061309Y-61833333D01*
X73251785Y-61785714D01*
X73347023Y-61738095D01*
X73442261Y-61642857D01*
X73489880Y-61500000D01*
X73489880Y-61261904D01*
X73489880Y-62785714D02*
X73489880Y-62214285D01*
X73489880Y-62500000D02*
X72489880Y-62500000D01*
X72632738Y-62404761D01*
X72727976Y-62309523D01*
X72775595Y-62214285D01*
X149696130Y-61324404D02*
X148696130Y-61324404D01*
X148696130Y-61562500D01*
X148743750Y-61705357D01*
X148838988Y-61800595D01*
X148934226Y-61848214D01*
X149124702Y-61895833D01*
X149267559Y-61895833D01*
X149458035Y-61848214D01*
X149553273Y-61800595D01*
X149648511Y-61705357D01*
X149696130Y-61562500D01*
X149696130Y-61324404D01*
X148696130Y-62800595D02*
X148696130Y-62324404D01*
X149172321Y-62276785D01*
X149124702Y-62324404D01*
X149077083Y-62419642D01*
X149077083Y-62657738D01*
X149124702Y-62752976D01*
X149172321Y-62800595D01*
X149267559Y-62848214D01*
X149505654Y-62848214D01*
X149600892Y-62800595D01*
X149648511Y-62752976D01*
X149696130Y-62657738D01*
X149696130Y-62419642D01*
X149648511Y-62324404D01*
X149600892Y-62276785D01*
X232146764Y-125828627D02*
X232194383Y-125876246D01*
X232337240Y-125923865D01*
X232432478Y-125923865D01*
X232575336Y-125876246D01*
X232670574Y-125781008D01*
X232718193Y-125685770D01*
X232765812Y-125495294D01*
X232765812Y-125352437D01*
X232718193Y-125161961D01*
X232670574Y-125066723D01*
X232575336Y-124971485D01*
X232432478Y-124923865D01*
X232337240Y-124923865D01*
X232194383Y-124971485D01*
X232146764Y-125019104D01*
X231575336Y-125352437D02*
X231670574Y-125304818D01*
X231718193Y-125257199D01*
X231765812Y-125161961D01*
X231765812Y-125114342D01*
X231718193Y-125019104D01*
X231670574Y-124971485D01*
X231575336Y-124923865D01*
X231384859Y-124923865D01*
X231289621Y-124971485D01*
X231242002Y-125019104D01*
X231194383Y-125114342D01*
X231194383Y-125161961D01*
X231242002Y-125257199D01*
X231289621Y-125304818D01*
X231384859Y-125352437D01*
X231575336Y-125352437D01*
X231670574Y-125400056D01*
X231718193Y-125447675D01*
X231765812Y-125542913D01*
X231765812Y-125733389D01*
X231718193Y-125828627D01*
X231670574Y-125876246D01*
X231575336Y-125923865D01*
X231384859Y-125923865D01*
X231289621Y-125876246D01*
X231242002Y-125828627D01*
X231194383Y-125733389D01*
X231194383Y-125542913D01*
X231242002Y-125447675D01*
X231289621Y-125400056D01*
X231384859Y-125352437D01*
X204361820Y-53933145D02*
X204695154Y-53456955D01*
X204933249Y-53933145D02*
X204933249Y-52933145D01*
X204552296Y-52933145D01*
X204457058Y-52980765D01*
X204409439Y-53028384D01*
X204361820Y-53123622D01*
X204361820Y-53266479D01*
X204409439Y-53361717D01*
X204457058Y-53409336D01*
X204552296Y-53456955D01*
X204933249Y-53456955D01*
X203504677Y-52933145D02*
X203695154Y-52933145D01*
X203790392Y-52980765D01*
X203838011Y-53028384D01*
X203933249Y-53171241D01*
X203980868Y-53361717D01*
X203980868Y-53742669D01*
X203933249Y-53837907D01*
X203885630Y-53885526D01*
X203790392Y-53933145D01*
X203599915Y-53933145D01*
X203504677Y-53885526D01*
X203457058Y-53837907D01*
X203409439Y-53742669D01*
X203409439Y-53504574D01*
X203457058Y-53409336D01*
X203504677Y-53361717D01*
X203599915Y-53314098D01*
X203790392Y-53314098D01*
X203885630Y-53361717D01*
X203933249Y-53409336D01*
X203980868Y-53504574D01*
D13*
X216144641Y-48242173D02*
X216311308Y-48242173D01*
X216311308Y-48504078D02*
X216311308Y-48004078D01*
X216073213Y-48004078D01*
X215716070Y-48242173D02*
X215644641Y-48265983D01*
X215620832Y-48289792D01*
X215597022Y-48337411D01*
X215597022Y-48408840D01*
X215620832Y-48456459D01*
X215644641Y-48480268D01*
X215692260Y-48504078D01*
X215882736Y-48504078D01*
X215882736Y-48004078D01*
X215716070Y-48004078D01*
X215668451Y-48027888D01*
X215644641Y-48051697D01*
X215620832Y-48099316D01*
X215620832Y-48146935D01*
X215644641Y-48194554D01*
X215668451Y-48218364D01*
X215716070Y-48242173D01*
X215882736Y-48242173D01*
X215120832Y-48504078D02*
X215406546Y-48504078D01*
X215263689Y-48504078D02*
X215263689Y-48004078D01*
X215311308Y-48075507D01*
X215358927Y-48123126D01*
X215406546Y-48146935D01*
D12*
X78204688Y-79730622D02*
X77204688Y-79730622D01*
X77204688Y-79968717D01*
X77252308Y-80111574D01*
X77347546Y-80206812D01*
X77442784Y-80254431D01*
X77633260Y-80302050D01*
X77776117Y-80302050D01*
X77966593Y-80254431D01*
X78061831Y-80206812D01*
X78157069Y-80111574D01*
X78204688Y-79968717D01*
X78204688Y-79730622D01*
X78204688Y-81254431D02*
X78204688Y-80683003D01*
X78204688Y-80968717D02*
X77204688Y-80968717D01*
X77347546Y-80873479D01*
X77442784Y-80778241D01*
X77490403Y-80683003D01*
X77204688Y-82111574D02*
X77204688Y-81921098D01*
X77252308Y-81825860D01*
X77299927Y-81778241D01*
X77442784Y-81683003D01*
X77633260Y-81635384D01*
X78014212Y-81635384D01*
X78109450Y-81683003D01*
X78157069Y-81730622D01*
X78204688Y-81825860D01*
X78204688Y-82016336D01*
X78157069Y-82111574D01*
X78109450Y-82159193D01*
X78014212Y-82206812D01*
X77776117Y-82206812D01*
X77680879Y-82159193D01*
X77633260Y-82111574D01*
X77585641Y-82016336D01*
X77585641Y-81825860D01*
X77633260Y-81730622D01*
X77680879Y-81683003D01*
X77776117Y-81635384D01*
X359190430Y-60653568D02*
X358190430Y-60653568D01*
X358190430Y-60891663D01*
X358238050Y-61034520D01*
X358333288Y-61129758D01*
X358428526Y-61177377D01*
X358619002Y-61224996D01*
X358761859Y-61224996D01*
X358952335Y-61177377D01*
X359047573Y-61129758D01*
X359142811Y-61034520D01*
X359190430Y-60891663D01*
X359190430Y-60653568D01*
X359190430Y-62177377D02*
X359190430Y-61605949D01*
X359190430Y-61891663D02*
X358190430Y-61891663D01*
X358333288Y-61796425D01*
X358428526Y-61701187D01*
X358476145Y-61605949D01*
X358190430Y-63082139D02*
X358190430Y-62605949D01*
X358666621Y-62558330D01*
X358619002Y-62605949D01*
X358571383Y-62701187D01*
X358571383Y-62939282D01*
X358619002Y-63034520D01*
X358666621Y-63082139D01*
X358761859Y-63129758D01*
X358999954Y-63129758D01*
X359095192Y-63082139D01*
X359142811Y-63034520D01*
X359190430Y-62939282D01*
X359190430Y-62701187D01*
X359142811Y-62605949D01*
X359095192Y-62558330D01*
X163934926Y-98742194D02*
X162934926Y-98742194D01*
X162934926Y-98980289D01*
X162982546Y-99123146D01*
X163077784Y-99218384D01*
X163173022Y-99266003D01*
X163363498Y-99313622D01*
X163506355Y-99313622D01*
X163696831Y-99266003D01*
X163792069Y-99218384D01*
X163887307Y-99123146D01*
X163934926Y-98980289D01*
X163934926Y-98742194D01*
X162934926Y-99646956D02*
X162934926Y-100266003D01*
X163315879Y-99932670D01*
X163315879Y-100075527D01*
X163363498Y-100170765D01*
X163411117Y-100218384D01*
X163506355Y-100266003D01*
X163744450Y-100266003D01*
X163839688Y-100218384D01*
X163887307Y-100170765D01*
X163934926Y-100075527D01*
X163934926Y-99789813D01*
X163887307Y-99694575D01*
X163839688Y-99646956D01*
X162934926Y-101170765D02*
X162934926Y-100694575D01*
X163411117Y-100646956D01*
X163363498Y-100694575D01*
X163315879Y-100789813D01*
X163315879Y-101027908D01*
X163363498Y-101123146D01*
X163411117Y-101170765D01*
X163506355Y-101218384D01*
X163744450Y-101218384D01*
X163839688Y-101170765D01*
X163887307Y-101123146D01*
X163934926Y-101027908D01*
X163934926Y-100789813D01*
X163887307Y-100694575D01*
X163839688Y-100646956D01*
X200438133Y-130899802D02*
X201247657Y-130899802D01*
X201342895Y-130947421D01*
X201390514Y-130995040D01*
X201438133Y-131090278D01*
X201438133Y-131280754D01*
X201390514Y-131375992D01*
X201342895Y-131423611D01*
X201247657Y-131471230D01*
X200438133Y-131471230D01*
X201438133Y-132471230D02*
X201438133Y-131899802D01*
X201438133Y-132185516D02*
X200438133Y-132185516D01*
X200580991Y-132090278D01*
X200676229Y-131995040D01*
X200723848Y-131899802D01*
X251481185Y-130258630D02*
X251814519Y-129782440D01*
X252052614Y-130258630D02*
X252052614Y-129258630D01*
X251671661Y-129258630D01*
X251576423Y-129306250D01*
X251528804Y-129353869D01*
X251481185Y-129449107D01*
X251481185Y-129591964D01*
X251528804Y-129687202D01*
X251576423Y-129734821D01*
X251671661Y-129782440D01*
X252052614Y-129782440D01*
X251100233Y-130211011D02*
X250957376Y-130258630D01*
X250719280Y-130258630D01*
X250624042Y-130211011D01*
X250576423Y-130163392D01*
X250528804Y-130068154D01*
X250528804Y-129972916D01*
X250576423Y-129877678D01*
X250624042Y-129830059D01*
X250719280Y-129782440D01*
X250909757Y-129734821D01*
X251004995Y-129687202D01*
X251052614Y-129639583D01*
X251100233Y-129544345D01*
X251100233Y-129449107D01*
X251052614Y-129353869D01*
X251004995Y-129306250D01*
X250909757Y-129258630D01*
X250671661Y-129258630D01*
X250528804Y-129306250D01*
X250195471Y-129258630D02*
X249957376Y-130258630D01*
X249766900Y-129544345D01*
X249576423Y-130258630D01*
X249338328Y-129258630D01*
X248433566Y-130258630D02*
X249004995Y-130258630D01*
X248719280Y-130258630D02*
X248719280Y-129258630D01*
X248814519Y-129401488D01*
X248909757Y-129496726D01*
X249004995Y-129544345D01*
X202101520Y-61116733D02*
X202101520Y-60783400D01*
X202625329Y-60783400D02*
X201625329Y-60783400D01*
X201625329Y-61259590D01*
X202625329Y-62164352D02*
X202625329Y-61592924D01*
X202625329Y-61878638D02*
X201625329Y-61878638D01*
X201768187Y-61783400D01*
X201863425Y-61688162D01*
X201911044Y-61592924D01*
X154389740Y-117744840D02*
X153389740Y-117744840D01*
X153389740Y-117982935D01*
X153437360Y-118125792D01*
X153532598Y-118221030D01*
X153627836Y-118268649D01*
X153818312Y-118316268D01*
X153961169Y-118316268D01*
X154151645Y-118268649D01*
X154246883Y-118221030D01*
X154342121Y-118125792D01*
X154389740Y-117982935D01*
X154389740Y-117744840D01*
X153723074Y-119173411D02*
X154389740Y-119173411D01*
X153342121Y-118935316D02*
X154056407Y-118697221D01*
X154056407Y-119316268D01*
X153389740Y-119601983D02*
X153389740Y-120268649D01*
X154389740Y-119840078D01*
X219525226Y-127442518D02*
X219572845Y-127394899D01*
X219620464Y-127252042D01*
X219620464Y-127156804D01*
X219572845Y-127013946D01*
X219477607Y-126918708D01*
X219382369Y-126871089D01*
X219191893Y-126823470D01*
X219049036Y-126823470D01*
X218858560Y-126871089D01*
X218763322Y-126918708D01*
X218668084Y-127013946D01*
X218620464Y-127156804D01*
X218620464Y-127252042D01*
X218668084Y-127394899D01*
X218715703Y-127442518D01*
X218620464Y-127775851D02*
X218620464Y-128442518D01*
X219620464Y-128013946D01*
X223751853Y-132417433D02*
X224228043Y-132417433D01*
X223228043Y-132084100D02*
X223751853Y-132417433D01*
X223228043Y-132750766D01*
X224228043Y-133607909D02*
X224228043Y-133036481D01*
X224228043Y-133322195D02*
X223228043Y-133322195D01*
X223370901Y-133226957D01*
X223466139Y-133131719D01*
X223513758Y-133036481D01*
X99629658Y-136840409D02*
X98629658Y-136840409D01*
X98629658Y-137078504D01*
X98677278Y-137221361D01*
X98772516Y-137316599D01*
X98867754Y-137364218D01*
X99058230Y-137411837D01*
X99201087Y-137411837D01*
X99391563Y-137364218D01*
X99486801Y-137316599D01*
X99582039Y-137221361D01*
X99629658Y-137078504D01*
X99629658Y-136840409D01*
X98629658Y-138316599D02*
X98629658Y-137840409D01*
X99105849Y-137792790D01*
X99058230Y-137840409D01*
X99010611Y-137935647D01*
X99010611Y-138173742D01*
X99058230Y-138268980D01*
X99105849Y-138316599D01*
X99201087Y-138364218D01*
X99439182Y-138364218D01*
X99534420Y-138316599D01*
X99582039Y-138268980D01*
X99629658Y-138173742D01*
X99629658Y-137935647D01*
X99582039Y-137840409D01*
X99534420Y-137792790D01*
X99058230Y-138935647D02*
X99010611Y-138840409D01*
X98962992Y-138792790D01*
X98867754Y-138745171D01*
X98820135Y-138745171D01*
X98724897Y-138792790D01*
X98677278Y-138840409D01*
X98629658Y-138935647D01*
X98629658Y-139126123D01*
X98677278Y-139221361D01*
X98724897Y-139268980D01*
X98820135Y-139316599D01*
X98867754Y-139316599D01*
X98962992Y-139268980D01*
X99010611Y-139221361D01*
X99058230Y-139126123D01*
X99058230Y-138935647D01*
X99105849Y-138840409D01*
X99153468Y-138792790D01*
X99248706Y-138745171D01*
X99439182Y-138745171D01*
X99534420Y-138792790D01*
X99582039Y-138840409D01*
X99629658Y-138935647D01*
X99629658Y-139126123D01*
X99582039Y-139221361D01*
X99534420Y-139268980D01*
X99439182Y-139316599D01*
X99248706Y-139316599D01*
X99153468Y-139268980D01*
X99105849Y-139221361D01*
X99058230Y-139126123D01*
X230649968Y-117844800D02*
X229649968Y-117844800D01*
X229649968Y-118082895D01*
X229697588Y-118225752D01*
X229792826Y-118320990D01*
X229888064Y-118368609D01*
X230078540Y-118416228D01*
X230221397Y-118416228D01*
X230411873Y-118368609D01*
X230507111Y-118320990D01*
X230602349Y-118225752D01*
X230649968Y-118082895D01*
X230649968Y-117844800D01*
X229649968Y-119320990D02*
X229649968Y-118844800D01*
X230126159Y-118797181D01*
X230078540Y-118844800D01*
X230030921Y-118940038D01*
X230030921Y-119178133D01*
X230078540Y-119273371D01*
X230126159Y-119320990D01*
X230221397Y-119368609D01*
X230459492Y-119368609D01*
X230554730Y-119320990D01*
X230602349Y-119273371D01*
X230649968Y-119178133D01*
X230649968Y-118940038D01*
X230602349Y-118844800D01*
X230554730Y-118797181D01*
X230649968Y-120320990D02*
X230649968Y-119749562D01*
X230649968Y-120035276D02*
X229649968Y-120035276D01*
X229792826Y-119940038D01*
X229888064Y-119844800D01*
X229935683Y-119749562D01*
X201979652Y-98674859D02*
X200979652Y-98674859D01*
X200979652Y-98912954D01*
X201027272Y-99055811D01*
X201122510Y-99151049D01*
X201217748Y-99198668D01*
X201408224Y-99246287D01*
X201551081Y-99246287D01*
X201741557Y-99198668D01*
X201836795Y-99151049D01*
X201932033Y-99055811D01*
X201979652Y-98912954D01*
X201979652Y-98674859D01*
X200979652Y-99579621D02*
X200979652Y-100198668D01*
X201360605Y-99865335D01*
X201360605Y-100008192D01*
X201408224Y-100103430D01*
X201455843Y-100151049D01*
X201551081Y-100198668D01*
X201789176Y-100198668D01*
X201884414Y-100151049D01*
X201932033Y-100103430D01*
X201979652Y-100008192D01*
X201979652Y-99722478D01*
X201932033Y-99627240D01*
X201884414Y-99579621D01*
X200979652Y-100532002D02*
X200979652Y-101198668D01*
X201979652Y-100770097D01*
X235062665Y-136395441D02*
X235395999Y-135919251D01*
X235634094Y-136395441D02*
X235634094Y-135395441D01*
X235253141Y-135395441D01*
X235157903Y-135443061D01*
X235110284Y-135490680D01*
X235062665Y-135585918D01*
X235062665Y-135728775D01*
X235110284Y-135824013D01*
X235157903Y-135871632D01*
X235253141Y-135919251D01*
X235634094Y-135919251D01*
X234110284Y-136395441D02*
X234681713Y-136395441D01*
X234395999Y-136395441D02*
X234395999Y-135395441D01*
X234491237Y-135538299D01*
X234586475Y-135633537D01*
X234681713Y-135681156D01*
X80577190Y-98698298D02*
X79577190Y-98698298D01*
X79577190Y-98936393D01*
X79624810Y-99079250D01*
X79720048Y-99174488D01*
X79815286Y-99222107D01*
X80005762Y-99269726D01*
X80148619Y-99269726D01*
X80339095Y-99222107D01*
X80434333Y-99174488D01*
X80529571Y-99079250D01*
X80577190Y-98936393D01*
X80577190Y-98698298D01*
X79577190Y-99603060D02*
X79577190Y-100222107D01*
X79958143Y-99888774D01*
X79958143Y-100031631D01*
X80005762Y-100126869D01*
X80053381Y-100174488D01*
X80148619Y-100222107D01*
X80386714Y-100222107D01*
X80481952Y-100174488D01*
X80529571Y-100126869D01*
X80577190Y-100031631D01*
X80577190Y-99745917D01*
X80529571Y-99650679D01*
X80481952Y-99603060D01*
X80577190Y-101174488D02*
X80577190Y-100603060D01*
X80577190Y-100888774D02*
X79577190Y-100888774D01*
X79720048Y-100793536D01*
X79815286Y-100698298D01*
X79862905Y-100603060D01*
X213887581Y-141928402D02*
X213935200Y-141976021D01*
X214078057Y-142023640D01*
X214173295Y-142023640D01*
X214316153Y-141976021D01*
X214411391Y-141880783D01*
X214459010Y-141785545D01*
X214506629Y-141595069D01*
X214506629Y-141452212D01*
X214459010Y-141261736D01*
X214411391Y-141166498D01*
X214316153Y-141071260D01*
X214173295Y-141023640D01*
X214078057Y-141023640D01*
X213935200Y-141071260D01*
X213887581Y-141118879D01*
X213030438Y-141356974D02*
X213030438Y-142023640D01*
X213268534Y-140976021D02*
X213506629Y-141690307D01*
X212887581Y-141690307D01*
X359163083Y-136826379D02*
X358163083Y-136826379D01*
X358163083Y-137064474D01*
X358210703Y-137207331D01*
X358305941Y-137302569D01*
X358401179Y-137350188D01*
X358591655Y-137397807D01*
X358734512Y-137397807D01*
X358924988Y-137350188D01*
X359020226Y-137302569D01*
X359115464Y-137207331D01*
X359163083Y-137064474D01*
X359163083Y-136826379D01*
X358163083Y-138254950D02*
X358163083Y-138064474D01*
X358210703Y-137969236D01*
X358258322Y-137921617D01*
X358401179Y-137826379D01*
X358591655Y-137778760D01*
X358972607Y-137778760D01*
X359067845Y-137826379D01*
X359115464Y-137873998D01*
X359163083Y-137969236D01*
X359163083Y-138159712D01*
X359115464Y-138254950D01*
X359067845Y-138302569D01*
X358972607Y-138350188D01*
X358734512Y-138350188D01*
X358639274Y-138302569D01*
X358591655Y-138254950D01*
X358544036Y-138159712D01*
X358544036Y-137969236D01*
X358591655Y-137873998D01*
X358639274Y-137826379D01*
X358734512Y-137778760D01*
X358163083Y-139254950D02*
X358163083Y-138778760D01*
X358639274Y-138731141D01*
X358591655Y-138778760D01*
X358544036Y-138873998D01*
X358544036Y-139112093D01*
X358591655Y-139207331D01*
X358639274Y-139254950D01*
X358734512Y-139302569D01*
X358972607Y-139302569D01*
X359067845Y-139254950D01*
X359115464Y-139207331D01*
X359163083Y-139112093D01*
X359163083Y-138873998D01*
X359115464Y-138778760D01*
X359067845Y-138731141D01*
X340144758Y-136796436D02*
X339144758Y-136796436D01*
X339144758Y-137034531D01*
X339192378Y-137177388D01*
X339287616Y-137272626D01*
X339382854Y-137320245D01*
X339573330Y-137367864D01*
X339716187Y-137367864D01*
X339906663Y-137320245D01*
X340001901Y-137272626D01*
X340097139Y-137177388D01*
X340144758Y-137034531D01*
X340144758Y-136796436D01*
X339144758Y-138225007D02*
X339144758Y-138034531D01*
X339192378Y-137939293D01*
X339239997Y-137891674D01*
X339382854Y-137796436D01*
X339573330Y-137748817D01*
X339954282Y-137748817D01*
X340049520Y-137796436D01*
X340097139Y-137844055D01*
X340144758Y-137939293D01*
X340144758Y-138129769D01*
X340097139Y-138225007D01*
X340049520Y-138272626D01*
X339954282Y-138320245D01*
X339716187Y-138320245D01*
X339620949Y-138272626D01*
X339573330Y-138225007D01*
X339525711Y-138129769D01*
X339525711Y-137939293D01*
X339573330Y-137844055D01*
X339620949Y-137796436D01*
X339716187Y-137748817D01*
X339478092Y-139177388D02*
X340144758Y-139177388D01*
X339097139Y-138939293D02*
X339811425Y-138701198D01*
X339811425Y-139320245D01*
X135344460Y-117786952D02*
X134344460Y-117786952D01*
X134344460Y-118025047D01*
X134392080Y-118167904D01*
X134487318Y-118263142D01*
X134582556Y-118310761D01*
X134773032Y-118358380D01*
X134915889Y-118358380D01*
X135106365Y-118310761D01*
X135201603Y-118263142D01*
X135296841Y-118167904D01*
X135344460Y-118025047D01*
X135344460Y-117786952D01*
X134677794Y-119215523D02*
X135344460Y-119215523D01*
X134296841Y-118977428D02*
X135011127Y-118739333D01*
X135011127Y-119358380D01*
X134344460Y-120167904D02*
X134344460Y-119977428D01*
X134392080Y-119882190D01*
X134439699Y-119834571D01*
X134582556Y-119739333D01*
X134773032Y-119691714D01*
X135153984Y-119691714D01*
X135249222Y-119739333D01*
X135296841Y-119786952D01*
X135344460Y-119882190D01*
X135344460Y-120072666D01*
X135296841Y-120167904D01*
X135249222Y-120215523D01*
X135153984Y-120263142D01*
X134915889Y-120263142D01*
X134820651Y-120215523D01*
X134773032Y-120167904D01*
X134725413Y-120072666D01*
X134725413Y-119882190D01*
X134773032Y-119786952D01*
X134820651Y-119739333D01*
X134915889Y-119691714D01*
X302073917Y-60651572D02*
X301073917Y-60651572D01*
X301073917Y-60889667D01*
X301121537Y-61032524D01*
X301216775Y-61127762D01*
X301312013Y-61175381D01*
X301502489Y-61223000D01*
X301645346Y-61223000D01*
X301835822Y-61175381D01*
X301931060Y-61127762D01*
X302026298Y-61032524D01*
X302073917Y-60889667D01*
X302073917Y-60651572D01*
X302073917Y-62175381D02*
X302073917Y-61603953D01*
X302073917Y-61889667D02*
X301073917Y-61889667D01*
X301216775Y-61794429D01*
X301312013Y-61699191D01*
X301359632Y-61603953D01*
X301073917Y-62508715D02*
X301073917Y-63127762D01*
X301454870Y-62794429D01*
X301454870Y-62937286D01*
X301502489Y-63032524D01*
X301550108Y-63080143D01*
X301645346Y-63127762D01*
X301883441Y-63127762D01*
X301978679Y-63080143D01*
X302026298Y-63032524D01*
X302073917Y-62937286D01*
X302073917Y-62651572D01*
X302026298Y-62556334D01*
X301978679Y-62508715D01*
X287746808Y-117789676D02*
X286746808Y-117789676D01*
X286746808Y-118027771D01*
X286794428Y-118170628D01*
X286889666Y-118265866D01*
X286984904Y-118313485D01*
X287175380Y-118361104D01*
X287318237Y-118361104D01*
X287508713Y-118313485D01*
X287603951Y-118265866D01*
X287699189Y-118170628D01*
X287746808Y-118027771D01*
X287746808Y-117789676D01*
X286746808Y-119265866D02*
X286746808Y-118789676D01*
X287222999Y-118742057D01*
X287175380Y-118789676D01*
X287127761Y-118884914D01*
X287127761Y-119123009D01*
X287175380Y-119218247D01*
X287222999Y-119265866D01*
X287318237Y-119313485D01*
X287556332Y-119313485D01*
X287651570Y-119265866D01*
X287699189Y-119218247D01*
X287746808Y-119123009D01*
X287746808Y-118884914D01*
X287699189Y-118789676D01*
X287651570Y-118742057D01*
X287080142Y-120170628D02*
X287746808Y-120170628D01*
X286699189Y-119932533D02*
X287413475Y-119694438D01*
X287413475Y-120313485D01*
X335373077Y-79689341D02*
X334373077Y-79689341D01*
X334373077Y-79927436D01*
X334420697Y-80070293D01*
X334515935Y-80165531D01*
X334611173Y-80213150D01*
X334801649Y-80260769D01*
X334944506Y-80260769D01*
X335134982Y-80213150D01*
X335230220Y-80165531D01*
X335325458Y-80070293D01*
X335373077Y-79927436D01*
X335373077Y-79689341D01*
X334468316Y-80641722D02*
X334420697Y-80689341D01*
X334373077Y-80784579D01*
X334373077Y-81022674D01*
X334420697Y-81117912D01*
X334468316Y-81165531D01*
X334563554Y-81213150D01*
X334658792Y-81213150D01*
X334801649Y-81165531D01*
X335373077Y-80594103D01*
X335373077Y-81213150D01*
X335373077Y-81689341D02*
X335373077Y-81879817D01*
X335325458Y-81975055D01*
X335277839Y-82022674D01*
X335134982Y-82117912D01*
X334944506Y-82165531D01*
X334563554Y-82165531D01*
X334468316Y-82117912D01*
X334420697Y-82070293D01*
X334373077Y-81975055D01*
X334373077Y-81784579D01*
X334420697Y-81689341D01*
X334468316Y-81641722D01*
X334563554Y-81594103D01*
X334801649Y-81594103D01*
X334896887Y-81641722D01*
X334944506Y-81689341D01*
X334992125Y-81784579D01*
X334992125Y-81975055D01*
X334944506Y-82070293D01*
X334896887Y-82117912D01*
X334801649Y-82165531D01*
X106779088Y-98789397D02*
X105779088Y-98789397D01*
X105779088Y-99027492D01*
X105826708Y-99170349D01*
X105921946Y-99265587D01*
X106017184Y-99313206D01*
X106207660Y-99360825D01*
X106350517Y-99360825D01*
X106540993Y-99313206D01*
X106636231Y-99265587D01*
X106731469Y-99170349D01*
X106779088Y-99027492D01*
X106779088Y-98789397D01*
X105779088Y-99694159D02*
X105779088Y-100313206D01*
X106160041Y-99979873D01*
X106160041Y-100122730D01*
X106207660Y-100217968D01*
X106255279Y-100265587D01*
X106350517Y-100313206D01*
X106588612Y-100313206D01*
X106683850Y-100265587D01*
X106731469Y-100217968D01*
X106779088Y-100122730D01*
X106779088Y-99837016D01*
X106731469Y-99741778D01*
X106683850Y-99694159D01*
X105874327Y-100694159D02*
X105826708Y-100741778D01*
X105779088Y-100837016D01*
X105779088Y-101075111D01*
X105826708Y-101170349D01*
X105874327Y-101217968D01*
X105969565Y-101265587D01*
X106064803Y-101265587D01*
X106207660Y-101217968D01*
X106779088Y-100646540D01*
X106779088Y-101265587D01*
X182961445Y-98749881D02*
X181961445Y-98749881D01*
X181961445Y-98987976D01*
X182009065Y-99130833D01*
X182104303Y-99226071D01*
X182199541Y-99273690D01*
X182390017Y-99321309D01*
X182532874Y-99321309D01*
X182723350Y-99273690D01*
X182818588Y-99226071D01*
X182913826Y-99130833D01*
X182961445Y-98987976D01*
X182961445Y-98749881D01*
X181961445Y-99654643D02*
X181961445Y-100273690D01*
X182342398Y-99940357D01*
X182342398Y-100083214D01*
X182390017Y-100178452D01*
X182437636Y-100226071D01*
X182532874Y-100273690D01*
X182770969Y-100273690D01*
X182866207Y-100226071D01*
X182913826Y-100178452D01*
X182961445Y-100083214D01*
X182961445Y-99797500D01*
X182913826Y-99702262D01*
X182866207Y-99654643D01*
X181961445Y-101130833D02*
X181961445Y-100940357D01*
X182009065Y-100845119D01*
X182056684Y-100797500D01*
X182199541Y-100702262D01*
X182390017Y-100654643D01*
X182770969Y-100654643D01*
X182866207Y-100702262D01*
X182913826Y-100749881D01*
X182961445Y-100845119D01*
X182961445Y-101035595D01*
X182913826Y-101130833D01*
X182866207Y-101178452D01*
X182770969Y-101226071D01*
X182532874Y-101226071D01*
X182437636Y-101178452D01*
X182390017Y-101130833D01*
X182342398Y-101035595D01*
X182342398Y-100845119D01*
X182390017Y-100749881D01*
X182437636Y-100702262D01*
X182532874Y-100654643D01*
X209038409Y-55219247D02*
X208562219Y-54885914D01*
X209038409Y-54647818D02*
X208038409Y-54647818D01*
X208038409Y-55028771D01*
X208086029Y-55124009D01*
X208133648Y-55171628D01*
X208228886Y-55219247D01*
X208371743Y-55219247D01*
X208466981Y-55171628D01*
X208514600Y-55124009D01*
X208562219Y-55028771D01*
X208562219Y-54647818D01*
X208038409Y-56124009D02*
X208038409Y-55647818D01*
X208514600Y-55600199D01*
X208466981Y-55647818D01*
X208419362Y-55743056D01*
X208419362Y-55981152D01*
X208466981Y-56076390D01*
X208514600Y-56124009D01*
X208609838Y-56171628D01*
X208847933Y-56171628D01*
X208943171Y-56124009D01*
X208990790Y-56076390D01*
X209038409Y-55981152D01*
X209038409Y-55743056D01*
X208990790Y-55647818D01*
X208943171Y-55600199D01*
X292512267Y-79643853D02*
X291512267Y-79643853D01*
X291512267Y-79881948D01*
X291559887Y-80024805D01*
X291655125Y-80120043D01*
X291750363Y-80167662D01*
X291940839Y-80215281D01*
X292083696Y-80215281D01*
X292274172Y-80167662D01*
X292369410Y-80120043D01*
X292464648Y-80024805D01*
X292512267Y-79881948D01*
X292512267Y-79643853D01*
X291607506Y-80596234D02*
X291559887Y-80643853D01*
X291512267Y-80739091D01*
X291512267Y-80977186D01*
X291559887Y-81072424D01*
X291607506Y-81120043D01*
X291702744Y-81167662D01*
X291797982Y-81167662D01*
X291940839Y-81120043D01*
X292512267Y-80548615D01*
X292512267Y-81167662D01*
X291512267Y-81500996D02*
X291512267Y-82167662D01*
X292512267Y-81739091D01*
X244846130Y-60684222D02*
X243846130Y-60684222D01*
X243846130Y-60922317D01*
X243893750Y-61065174D01*
X243988988Y-61160412D01*
X244084226Y-61208031D01*
X244274702Y-61255650D01*
X244417559Y-61255650D01*
X244608035Y-61208031D01*
X244703273Y-61160412D01*
X244798511Y-61065174D01*
X244846130Y-60922317D01*
X244846130Y-60684222D01*
X244846130Y-62208031D02*
X244846130Y-61636603D01*
X244846130Y-61922317D02*
X243846130Y-61922317D01*
X243988988Y-61827079D01*
X244084226Y-61731841D01*
X244131845Y-61636603D01*
X243846130Y-62827079D02*
X243846130Y-62922317D01*
X243893750Y-63017555D01*
X243941369Y-63065174D01*
X244036607Y-63112793D01*
X244227083Y-63160412D01*
X244465178Y-63160412D01*
X244655654Y-63112793D01*
X244750892Y-63065174D01*
X244798511Y-63017555D01*
X244846130Y-62922317D01*
X244846130Y-62827079D01*
X244798511Y-62731841D01*
X244750892Y-62684222D01*
X244655654Y-62636603D01*
X244465178Y-62588984D01*
X244227083Y-62588984D01*
X244036607Y-62636603D01*
X243941369Y-62684222D01*
X243893750Y-62731841D01*
X243846130Y-62827079D01*
X290120598Y-136810202D02*
X289120598Y-136810202D01*
X289120598Y-137048297D01*
X289168218Y-137191154D01*
X289263456Y-137286392D01*
X289358694Y-137334011D01*
X289549170Y-137381630D01*
X289692027Y-137381630D01*
X289882503Y-137334011D01*
X289977741Y-137286392D01*
X290072979Y-137191154D01*
X290120598Y-137048297D01*
X290120598Y-136810202D01*
X289120598Y-138238773D02*
X289120598Y-138048297D01*
X289168218Y-137953059D01*
X289215837Y-137905440D01*
X289358694Y-137810202D01*
X289549170Y-137762583D01*
X289930122Y-137762583D01*
X290025360Y-137810202D01*
X290072979Y-137857821D01*
X290120598Y-137953059D01*
X290120598Y-138143535D01*
X290072979Y-138238773D01*
X290025360Y-138286392D01*
X289930122Y-138334011D01*
X289692027Y-138334011D01*
X289596789Y-138286392D01*
X289549170Y-138238773D01*
X289501551Y-138143535D01*
X289501551Y-137953059D01*
X289549170Y-137857821D01*
X289596789Y-137810202D01*
X289692027Y-137762583D01*
X289215837Y-138714964D02*
X289168218Y-138762583D01*
X289120598Y-138857821D01*
X289120598Y-139095916D01*
X289168218Y-139191154D01*
X289215837Y-139238773D01*
X289311075Y-139286392D01*
X289406313Y-139286392D01*
X289549170Y-139238773D01*
X290120598Y-138667345D01*
X290120598Y-139286392D01*
X330596743Y-60625920D02*
X329596743Y-60625920D01*
X329596743Y-60864015D01*
X329644363Y-61006872D01*
X329739601Y-61102110D01*
X329834839Y-61149729D01*
X330025315Y-61197348D01*
X330168172Y-61197348D01*
X330358648Y-61149729D01*
X330453886Y-61102110D01*
X330549124Y-61006872D01*
X330596743Y-60864015D01*
X330596743Y-60625920D01*
X330596743Y-62149729D02*
X330596743Y-61578301D01*
X330596743Y-61864015D02*
X329596743Y-61864015D01*
X329739601Y-61768777D01*
X329834839Y-61673539D01*
X329882458Y-61578301D01*
X329930077Y-63006872D02*
X330596743Y-63006872D01*
X329549124Y-62768777D02*
X330263410Y-62530682D01*
X330263410Y-63149729D01*
X328214565Y-98676487D02*
X327214565Y-98676487D01*
X327214565Y-98914582D01*
X327262185Y-99057439D01*
X327357423Y-99152677D01*
X327452661Y-99200296D01*
X327643137Y-99247915D01*
X327785994Y-99247915D01*
X327976470Y-99200296D01*
X328071708Y-99152677D01*
X328166946Y-99057439D01*
X328214565Y-98914582D01*
X328214565Y-98676487D01*
X327547899Y-100105058D02*
X328214565Y-100105058D01*
X327166946Y-99866963D02*
X327881232Y-99628868D01*
X327881232Y-100247915D01*
X327214565Y-100533630D02*
X327214565Y-101152677D01*
X327595518Y-100819344D01*
X327595518Y-100962201D01*
X327643137Y-101057439D01*
X327690756Y-101105058D01*
X327785994Y-101152677D01*
X328024089Y-101152677D01*
X328119327Y-101105058D01*
X328166946Y-101057439D01*
X328214565Y-100962201D01*
X328214565Y-100676487D01*
X328166946Y-100581249D01*
X328119327Y-100533630D01*
X321080327Y-136847196D02*
X320080327Y-136847196D01*
X320080327Y-137085291D01*
X320127947Y-137228148D01*
X320223185Y-137323386D01*
X320318423Y-137371005D01*
X320508899Y-137418624D01*
X320651756Y-137418624D01*
X320842232Y-137371005D01*
X320937470Y-137323386D01*
X321032708Y-137228148D01*
X321080327Y-137085291D01*
X321080327Y-136847196D01*
X320080327Y-138275767D02*
X320080327Y-138085291D01*
X320127947Y-137990053D01*
X320175566Y-137942434D01*
X320318423Y-137847196D01*
X320508899Y-137799577D01*
X320889851Y-137799577D01*
X320985089Y-137847196D01*
X321032708Y-137894815D01*
X321080327Y-137990053D01*
X321080327Y-138180529D01*
X321032708Y-138275767D01*
X320985089Y-138323386D01*
X320889851Y-138371005D01*
X320651756Y-138371005D01*
X320556518Y-138323386D01*
X320508899Y-138275767D01*
X320461280Y-138180529D01*
X320461280Y-137990053D01*
X320508899Y-137894815D01*
X320556518Y-137847196D01*
X320651756Y-137799577D01*
X320080327Y-138704339D02*
X320080327Y-139323386D01*
X320461280Y-138990053D01*
X320461280Y-139132910D01*
X320508899Y-139228148D01*
X320556518Y-139275767D01*
X320651756Y-139323386D01*
X320889851Y-139323386D01*
X320985089Y-139275767D01*
X321032708Y-139228148D01*
X321080327Y-139132910D01*
X321080327Y-138847196D01*
X321032708Y-138751958D01*
X320985089Y-138704339D01*
X209700595Y-52514880D02*
X209700595Y-53324404D01*
X209652976Y-53419642D01*
X209605357Y-53467261D01*
X209510119Y-53514880D01*
X209319642Y-53514880D01*
X209224404Y-53467261D01*
X209176785Y-53419642D01*
X209129166Y-53324404D01*
X209129166Y-52514880D01*
X208700595Y-53467261D02*
X208557738Y-53514880D01*
X208319642Y-53514880D01*
X208224404Y-53467261D01*
X208176785Y-53419642D01*
X208129166Y-53324404D01*
X208129166Y-53229166D01*
X208176785Y-53133928D01*
X208224404Y-53086309D01*
X208319642Y-53038690D01*
X208510119Y-52991071D01*
X208605357Y-52943452D01*
X208652976Y-52895833D01*
X208700595Y-52800595D01*
X208700595Y-52705357D01*
X208652976Y-52610119D01*
X208605357Y-52562500D01*
X208510119Y-52514880D01*
X208272023Y-52514880D01*
X208129166Y-52562500D01*
X207367261Y-52991071D02*
X207224404Y-53038690D01*
X207176785Y-53086309D01*
X207129166Y-53181547D01*
X207129166Y-53324404D01*
X207176785Y-53419642D01*
X207224404Y-53467261D01*
X207319642Y-53514880D01*
X207700595Y-53514880D01*
X207700595Y-52514880D01*
X207367261Y-52514880D01*
X207272023Y-52562500D01*
X207224404Y-52610119D01*
X207176785Y-52705357D01*
X207176785Y-52800595D01*
X207224404Y-52895833D01*
X207272023Y-52943452D01*
X207367261Y-52991071D01*
X207700595Y-52991071D01*
X206176785Y-53514880D02*
X206748214Y-53514880D01*
X206462500Y-53514880D02*
X206462500Y-52514880D01*
X206557738Y-52657738D01*
X206652976Y-52752976D01*
X206748214Y-52800595D01*
X194873455Y-136825766D02*
X193873455Y-136825766D01*
X193873455Y-137063861D01*
X193921075Y-137206718D01*
X194016313Y-137301956D01*
X194111551Y-137349575D01*
X194302027Y-137397194D01*
X194444884Y-137397194D01*
X194635360Y-137349575D01*
X194730598Y-137301956D01*
X194825836Y-137206718D01*
X194873455Y-137063861D01*
X194873455Y-136825766D01*
X193873455Y-138254337D02*
X193873455Y-138063861D01*
X193921075Y-137968623D01*
X193968694Y-137921004D01*
X194111551Y-137825766D01*
X194302027Y-137778147D01*
X194682979Y-137778147D01*
X194778217Y-137825766D01*
X194825836Y-137873385D01*
X194873455Y-137968623D01*
X194873455Y-138159099D01*
X194825836Y-138254337D01*
X194778217Y-138301956D01*
X194682979Y-138349575D01*
X194444884Y-138349575D01*
X194349646Y-138301956D01*
X194302027Y-138254337D01*
X194254408Y-138159099D01*
X194254408Y-137968623D01*
X194302027Y-137873385D01*
X194349646Y-137825766D01*
X194444884Y-137778147D01*
X193873455Y-138968623D02*
X193873455Y-139063861D01*
X193921075Y-139159099D01*
X193968694Y-139206718D01*
X194063932Y-139254337D01*
X194254408Y-139301956D01*
X194492503Y-139301956D01*
X194682979Y-139254337D01*
X194778217Y-139206718D01*
X194825836Y-139159099D01*
X194873455Y-139063861D01*
X194873455Y-138968623D01*
X194825836Y-138873385D01*
X194778217Y-138825766D01*
X194682979Y-138778147D01*
X194492503Y-138730528D01*
X194254408Y-138730528D01*
X194063932Y-138778147D01*
X193968694Y-138825766D01*
X193921075Y-138873385D01*
X193873455Y-138968623D01*
X159141641Y-79679292D02*
X158141641Y-79679292D01*
X158141641Y-79917387D01*
X158189261Y-80060244D01*
X158284499Y-80155482D01*
X158379737Y-80203101D01*
X158570213Y-80250720D01*
X158713070Y-80250720D01*
X158903546Y-80203101D01*
X158998784Y-80155482D01*
X159094022Y-80060244D01*
X159141641Y-79917387D01*
X159141641Y-79679292D01*
X158236880Y-80631673D02*
X158189261Y-80679292D01*
X158141641Y-80774530D01*
X158141641Y-81012625D01*
X158189261Y-81107863D01*
X158236880Y-81155482D01*
X158332118Y-81203101D01*
X158427356Y-81203101D01*
X158570213Y-81155482D01*
X159141641Y-80584054D01*
X159141641Y-81203101D01*
X158141641Y-81822149D02*
X158141641Y-81917387D01*
X158189261Y-82012625D01*
X158236880Y-82060244D01*
X158332118Y-82107863D01*
X158522594Y-82155482D01*
X158760689Y-82155482D01*
X158951165Y-82107863D01*
X159046403Y-82060244D01*
X159094022Y-82012625D01*
X159141641Y-81917387D01*
X159141641Y-81822149D01*
X159094022Y-81726911D01*
X159046403Y-81679292D01*
X158951165Y-81631673D01*
X158760689Y-81584054D01*
X158522594Y-81584054D01*
X158332118Y-81631673D01*
X158236880Y-81679292D01*
X158189261Y-81726911D01*
X158141641Y-81822149D01*
X226448579Y-136515766D02*
X226496198Y-136563385D01*
X226639055Y-136611004D01*
X226734293Y-136611004D01*
X226877151Y-136563385D01*
X226972389Y-136468147D01*
X227020008Y-136372909D01*
X227067627Y-136182433D01*
X227067627Y-136039576D01*
X227020008Y-135849100D01*
X226972389Y-135753862D01*
X226877151Y-135658624D01*
X226734293Y-135611004D01*
X226639055Y-135611004D01*
X226496198Y-135658624D01*
X226448579Y-135706243D01*
X225496198Y-136611004D02*
X226067627Y-136611004D01*
X225781913Y-136611004D02*
X225781913Y-135611004D01*
X225877151Y-135753862D01*
X225972389Y-135849100D01*
X226067627Y-135896719D01*
X203307003Y-138140113D02*
X203640337Y-137663923D01*
X203878432Y-138140113D02*
X203878432Y-137140113D01*
X203497479Y-137140113D01*
X203402241Y-137187733D01*
X203354622Y-137235352D01*
X203307003Y-137330590D01*
X203307003Y-137473447D01*
X203354622Y-137568685D01*
X203402241Y-137616304D01*
X203497479Y-137663923D01*
X203878432Y-137663923D01*
X202926051Y-137235352D02*
X202878432Y-137187733D01*
X202783194Y-137140113D01*
X202545098Y-137140113D01*
X202449860Y-137187733D01*
X202402241Y-137235352D01*
X202354622Y-137330590D01*
X202354622Y-137425828D01*
X202402241Y-137568685D01*
X202973670Y-138140113D01*
X202354622Y-138140113D01*
X195010201Y-61078208D02*
X194010201Y-61078208D01*
X194010201Y-61316304D01*
X194057821Y-61459161D01*
X194153059Y-61554399D01*
X194248297Y-61602018D01*
X194438773Y-61649637D01*
X194581630Y-61649637D01*
X194772106Y-61602018D01*
X194867344Y-61554399D01*
X194962582Y-61459161D01*
X195010201Y-61316304D01*
X195010201Y-61078208D01*
X194438773Y-62221065D02*
X194391154Y-62125827D01*
X194343535Y-62078208D01*
X194248297Y-62030589D01*
X194200678Y-62030589D01*
X194105440Y-62078208D01*
X194057821Y-62125827D01*
X194010201Y-62221065D01*
X194010201Y-62411542D01*
X194057821Y-62506780D01*
X194105440Y-62554399D01*
X194200678Y-62602018D01*
X194248297Y-62602018D01*
X194343535Y-62554399D01*
X194391154Y-62506780D01*
X194438773Y-62411542D01*
X194438773Y-62221065D01*
X194486392Y-62125827D01*
X194534011Y-62078208D01*
X194629249Y-62030589D01*
X194819725Y-62030589D01*
X194914963Y-62078208D01*
X194962582Y-62125827D01*
X195010201Y-62221065D01*
X195010201Y-62411542D01*
X194962582Y-62506780D01*
X194914963Y-62554399D01*
X194819725Y-62602018D01*
X194629249Y-62602018D01*
X194534011Y-62554399D01*
X194486392Y-62506780D01*
X194438773Y-62411542D01*
X235356454Y-79668097D02*
X234356454Y-79668097D01*
X234356454Y-79906192D01*
X234404074Y-80049049D01*
X234499312Y-80144287D01*
X234594550Y-80191906D01*
X234785026Y-80239525D01*
X234927883Y-80239525D01*
X235118359Y-80191906D01*
X235213597Y-80144287D01*
X235308835Y-80049049D01*
X235356454Y-79906192D01*
X235356454Y-79668097D01*
X234451693Y-80620478D02*
X234404074Y-80668097D01*
X234356454Y-80763335D01*
X234356454Y-81001430D01*
X234404074Y-81096668D01*
X234451693Y-81144287D01*
X234546931Y-81191906D01*
X234642169Y-81191906D01*
X234785026Y-81144287D01*
X235356454Y-80572859D01*
X235356454Y-81191906D01*
X234689788Y-82049049D02*
X235356454Y-82049049D01*
X234308835Y-81810954D02*
X235023121Y-81572859D01*
X235023121Y-82191906D01*
X215790444Y-113487665D02*
X215314254Y-113154332D01*
X215790444Y-112916236D02*
X214790444Y-112916236D01*
X214790444Y-113297189D01*
X214838064Y-113392427D01*
X214885683Y-113440046D01*
X214980921Y-113487665D01*
X215123778Y-113487665D01*
X215219016Y-113440046D01*
X215266635Y-113392427D01*
X215314254Y-113297189D01*
X215314254Y-112916236D01*
X215123778Y-114344808D02*
X215790444Y-114344808D01*
X214742825Y-114106712D02*
X215457111Y-113868617D01*
X215457111Y-114487665D01*
X273487985Y-79611563D02*
X272487985Y-79611563D01*
X272487985Y-79849658D01*
X272535605Y-79992515D01*
X272630843Y-80087753D01*
X272726081Y-80135372D01*
X272916557Y-80182991D01*
X273059414Y-80182991D01*
X273249890Y-80135372D01*
X273345128Y-80087753D01*
X273440366Y-79992515D01*
X273487985Y-79849658D01*
X273487985Y-79611563D01*
X272583224Y-80563944D02*
X272535605Y-80611563D01*
X272487985Y-80706801D01*
X272487985Y-80944896D01*
X272535605Y-81040134D01*
X272583224Y-81087753D01*
X272678462Y-81135372D01*
X272773700Y-81135372D01*
X272916557Y-81087753D01*
X273487985Y-80516325D01*
X273487985Y-81135372D01*
X272487985Y-81992515D02*
X272487985Y-81802039D01*
X272535605Y-81706801D01*
X272583224Y-81659182D01*
X272726081Y-81563944D01*
X272916557Y-81516325D01*
X273297509Y-81516325D01*
X273392747Y-81563944D01*
X273440366Y-81611563D01*
X273487985Y-81706801D01*
X273487985Y-81897277D01*
X273440366Y-81992515D01*
X273392747Y-82040134D01*
X273297509Y-82087753D01*
X273059414Y-82087753D01*
X272964176Y-82040134D01*
X272916557Y-81992515D01*
X272868938Y-81897277D01*
X272868938Y-81706801D01*
X272916557Y-81611563D01*
X272964176Y-81563944D01*
X273059414Y-81516325D01*
X144892197Y-98659463D02*
X143892197Y-98659463D01*
X143892197Y-98897558D01*
X143939817Y-99040415D01*
X144035055Y-99135653D01*
X144130293Y-99183272D01*
X144320769Y-99230891D01*
X144463626Y-99230891D01*
X144654102Y-99183272D01*
X144749340Y-99135653D01*
X144844578Y-99040415D01*
X144892197Y-98897558D01*
X144892197Y-98659463D01*
X143892197Y-99564225D02*
X143892197Y-100183272D01*
X144273150Y-99849939D01*
X144273150Y-99992796D01*
X144320769Y-100088034D01*
X144368388Y-100135653D01*
X144463626Y-100183272D01*
X144701721Y-100183272D01*
X144796959Y-100135653D01*
X144844578Y-100088034D01*
X144892197Y-99992796D01*
X144892197Y-99707082D01*
X144844578Y-99611844D01*
X144796959Y-99564225D01*
X144225531Y-101040415D02*
X144892197Y-101040415D01*
X143844578Y-100802320D02*
X144558864Y-100564225D01*
X144558864Y-101183272D01*
X249619243Y-117757623D02*
X248619243Y-117757623D01*
X248619243Y-117995718D01*
X248666863Y-118138575D01*
X248762101Y-118233813D01*
X248857339Y-118281432D01*
X249047815Y-118329051D01*
X249190672Y-118329051D01*
X249381148Y-118281432D01*
X249476386Y-118233813D01*
X249571624Y-118138575D01*
X249619243Y-117995718D01*
X249619243Y-117757623D01*
X248619243Y-119233813D02*
X248619243Y-118757623D01*
X249095434Y-118710004D01*
X249047815Y-118757623D01*
X249000196Y-118852861D01*
X249000196Y-119090956D01*
X249047815Y-119186194D01*
X249095434Y-119233813D01*
X249190672Y-119281432D01*
X249428767Y-119281432D01*
X249524005Y-119233813D01*
X249571624Y-119186194D01*
X249619243Y-119090956D01*
X249619243Y-118852861D01*
X249571624Y-118757623D01*
X249524005Y-118710004D01*
X248714482Y-119662385D02*
X248666863Y-119710004D01*
X248619243Y-119805242D01*
X248619243Y-120043337D01*
X248666863Y-120138575D01*
X248714482Y-120186194D01*
X248809720Y-120233813D01*
X248904958Y-120233813D01*
X249047815Y-120186194D01*
X249619243Y-119614766D01*
X249619243Y-120233813D01*
X130689880Y-61174404D02*
X129689880Y-61174404D01*
X129689880Y-61412500D01*
X129737500Y-61555357D01*
X129832738Y-61650595D01*
X129927976Y-61698214D01*
X130118452Y-61745833D01*
X130261309Y-61745833D01*
X130451785Y-61698214D01*
X130547023Y-61650595D01*
X130642261Y-61555357D01*
X130689880Y-61412500D01*
X130689880Y-61174404D01*
X130023214Y-62602976D02*
X130689880Y-62602976D01*
X129642261Y-62364880D02*
X130356547Y-62126785D01*
X130356547Y-62745833D01*
X201741645Y-134667540D02*
X201789264Y-134619921D01*
X201836883Y-134477064D01*
X201836883Y-134381826D01*
X201789264Y-134238968D01*
X201694026Y-134143730D01*
X201598788Y-134096111D01*
X201408312Y-134048492D01*
X201265455Y-134048492D01*
X201074979Y-134096111D01*
X200979741Y-134143730D01*
X200884503Y-134238968D01*
X200836883Y-134381826D01*
X200836883Y-134477064D01*
X200884503Y-134619921D01*
X200932122Y-134667540D01*
X200836883Y-135572302D02*
X200836883Y-135096111D01*
X201313074Y-135048492D01*
X201265455Y-135096111D01*
X201217836Y-135191349D01*
X201217836Y-135429445D01*
X201265455Y-135524683D01*
X201313074Y-135572302D01*
X201408312Y-135619921D01*
X201646407Y-135619921D01*
X201741645Y-135572302D01*
X201789264Y-135524683D01*
X201836883Y-135429445D01*
X201836883Y-135191349D01*
X201789264Y-135096111D01*
X201741645Y-135048492D01*
X75789652Y-136773979D02*
X74789652Y-136773979D01*
X74789652Y-137012074D01*
X74837272Y-137154931D01*
X74932510Y-137250169D01*
X75027748Y-137297788D01*
X75218224Y-137345407D01*
X75361081Y-137345407D01*
X75551557Y-137297788D01*
X75646795Y-137250169D01*
X75742033Y-137154931D01*
X75789652Y-137012074D01*
X75789652Y-136773979D01*
X74789652Y-138250169D02*
X74789652Y-137773979D01*
X75265843Y-137726360D01*
X75218224Y-137773979D01*
X75170605Y-137869217D01*
X75170605Y-138107312D01*
X75218224Y-138202550D01*
X75265843Y-138250169D01*
X75361081Y-138297788D01*
X75599176Y-138297788D01*
X75694414Y-138250169D01*
X75742033Y-138202550D01*
X75789652Y-138107312D01*
X75789652Y-137869217D01*
X75742033Y-137773979D01*
X75694414Y-137726360D01*
X74789652Y-138631122D02*
X74789652Y-139297788D01*
X75789652Y-138869217D01*
X259157758Y-98767004D02*
X258157758Y-98767004D01*
X258157758Y-99005099D01*
X258205378Y-99147956D01*
X258300616Y-99243194D01*
X258395854Y-99290813D01*
X258586330Y-99338432D01*
X258729187Y-99338432D01*
X258919663Y-99290813D01*
X259014901Y-99243194D01*
X259110139Y-99147956D01*
X259157758Y-99005099D01*
X259157758Y-98767004D01*
X258491092Y-100195575D02*
X259157758Y-100195575D01*
X258110139Y-99957480D02*
X258824425Y-99719385D01*
X258824425Y-100338432D01*
X258157758Y-100909861D02*
X258157758Y-101005099D01*
X258205378Y-101100337D01*
X258252997Y-101147956D01*
X258348235Y-101195575D01*
X258538711Y-101243194D01*
X258776806Y-101243194D01*
X258967282Y-101195575D01*
X259062520Y-101147956D01*
X259110139Y-101100337D01*
X259157758Y-101005099D01*
X259157758Y-100909861D01*
X259110139Y-100814623D01*
X259062520Y-100767004D01*
X258967282Y-100719385D01*
X258776806Y-100671766D01*
X258538711Y-100671766D01*
X258348235Y-100719385D01*
X258252997Y-100767004D01*
X258205378Y-100814623D01*
X258157758Y-100909861D01*
X225889880Y-61174404D02*
X224889880Y-61174404D01*
X224889880Y-61412500D01*
X224937500Y-61555357D01*
X225032738Y-61650595D01*
X225127976Y-61698214D01*
X225318452Y-61745833D01*
X225461309Y-61745833D01*
X225651785Y-61698214D01*
X225747023Y-61650595D01*
X225842261Y-61555357D01*
X225889880Y-61412500D01*
X225889880Y-61174404D01*
X225889880Y-62222023D02*
X225889880Y-62412500D01*
X225842261Y-62507738D01*
X225794642Y-62555357D01*
X225651785Y-62650595D01*
X225461309Y-62698214D01*
X225080357Y-62698214D01*
X224985119Y-62650595D01*
X224937500Y-62602976D01*
X224889880Y-62507738D01*
X224889880Y-62317261D01*
X224937500Y-62222023D01*
X224985119Y-62174404D01*
X225080357Y-62126785D01*
X225318452Y-62126785D01*
X225413690Y-62174404D01*
X225461309Y-62222023D01*
X225508928Y-62317261D01*
X225508928Y-62507738D01*
X225461309Y-62602976D01*
X225413690Y-62650595D01*
X225318452Y-62698214D01*
X178195622Y-79679677D02*
X177195622Y-79679677D01*
X177195622Y-79917772D01*
X177243242Y-80060629D01*
X177338480Y-80155867D01*
X177433718Y-80203486D01*
X177624194Y-80251105D01*
X177767051Y-80251105D01*
X177957527Y-80203486D01*
X178052765Y-80155867D01*
X178148003Y-80060629D01*
X178195622Y-79917772D01*
X178195622Y-79679677D01*
X177290861Y-80632058D02*
X177243242Y-80679677D01*
X177195622Y-80774915D01*
X177195622Y-81013010D01*
X177243242Y-81108248D01*
X177290861Y-81155867D01*
X177386099Y-81203486D01*
X177481337Y-81203486D01*
X177624194Y-81155867D01*
X178195622Y-80584439D01*
X178195622Y-81203486D01*
X178195622Y-82155867D02*
X178195622Y-81584439D01*
X178195622Y-81870153D02*
X177195622Y-81870153D01*
X177338480Y-81774915D01*
X177433718Y-81679677D01*
X177481337Y-81584439D01*
X282962634Y-60666586D02*
X281962634Y-60666586D01*
X281962634Y-60904681D01*
X282010254Y-61047538D01*
X282105492Y-61142776D01*
X282200730Y-61190395D01*
X282391206Y-61238014D01*
X282534063Y-61238014D01*
X282724539Y-61190395D01*
X282819777Y-61142776D01*
X282915015Y-61047538D01*
X282962634Y-60904681D01*
X282962634Y-60666586D01*
X282962634Y-62190395D02*
X282962634Y-61618967D01*
X282962634Y-61904681D02*
X281962634Y-61904681D01*
X282105492Y-61809443D01*
X282200730Y-61714205D01*
X282248349Y-61618967D01*
X282057873Y-62571348D02*
X282010254Y-62618967D01*
X281962634Y-62714205D01*
X281962634Y-62952300D01*
X282010254Y-63047538D01*
X282057873Y-63095157D01*
X282153111Y-63142776D01*
X282248349Y-63142776D01*
X282391206Y-63095157D01*
X282962634Y-62523729D01*
X282962634Y-63142776D01*
X125806362Y-98730605D02*
X124806362Y-98730605D01*
X124806362Y-98968700D01*
X124853982Y-99111557D01*
X124949220Y-99206795D01*
X125044458Y-99254414D01*
X125234934Y-99302033D01*
X125377791Y-99302033D01*
X125568267Y-99254414D01*
X125663505Y-99206795D01*
X125758743Y-99111557D01*
X125806362Y-98968700D01*
X125806362Y-98730605D01*
X124806362Y-99635367D02*
X124806362Y-100254414D01*
X125187315Y-99921081D01*
X125187315Y-100063938D01*
X125234934Y-100159176D01*
X125282553Y-100206795D01*
X125377791Y-100254414D01*
X125615886Y-100254414D01*
X125711124Y-100206795D01*
X125758743Y-100159176D01*
X125806362Y-100063938D01*
X125806362Y-99778224D01*
X125758743Y-99682986D01*
X125711124Y-99635367D01*
X124806362Y-100587748D02*
X124806362Y-101206795D01*
X125187315Y-100873462D01*
X125187315Y-101016319D01*
X125234934Y-101111557D01*
X125282553Y-101159176D01*
X125377791Y-101206795D01*
X125615886Y-101206795D01*
X125711124Y-101159176D01*
X125758743Y-101111557D01*
X125806362Y-101016319D01*
X125806362Y-100730605D01*
X125758743Y-100635367D01*
X125711124Y-100587748D01*
X197216804Y-79657577D02*
X196216804Y-79657577D01*
X196216804Y-79895672D01*
X196264424Y-80038529D01*
X196359662Y-80133767D01*
X196454900Y-80181386D01*
X196645376Y-80229005D01*
X196788233Y-80229005D01*
X196978709Y-80181386D01*
X197073947Y-80133767D01*
X197169185Y-80038529D01*
X197216804Y-79895672D01*
X197216804Y-79657577D01*
X196312043Y-80609958D02*
X196264424Y-80657577D01*
X196216804Y-80752815D01*
X196216804Y-80990910D01*
X196264424Y-81086148D01*
X196312043Y-81133767D01*
X196407281Y-81181386D01*
X196502519Y-81181386D01*
X196645376Y-81133767D01*
X197216804Y-80562339D01*
X197216804Y-81181386D01*
X196312043Y-81562339D02*
X196264424Y-81609958D01*
X196216804Y-81705196D01*
X196216804Y-81943291D01*
X196264424Y-82038529D01*
X196312043Y-82086148D01*
X196407281Y-82133767D01*
X196502519Y-82133767D01*
X196645376Y-82086148D01*
X197216804Y-81514720D01*
X197216804Y-82133767D01*
X168746130Y-61174404D02*
X167746130Y-61174404D01*
X167746130Y-61412500D01*
X167793750Y-61555357D01*
X167888988Y-61650595D01*
X167984226Y-61698214D01*
X168174702Y-61745833D01*
X168317559Y-61745833D01*
X168508035Y-61698214D01*
X168603273Y-61650595D01*
X168698511Y-61555357D01*
X168746130Y-61412500D01*
X168746130Y-61174404D01*
X167746130Y-62602976D02*
X167746130Y-62412500D01*
X167793750Y-62317261D01*
X167841369Y-62269642D01*
X167984226Y-62174404D01*
X168174702Y-62126785D01*
X168555654Y-62126785D01*
X168650892Y-62174404D01*
X168698511Y-62222023D01*
X168746130Y-62317261D01*
X168746130Y-62507738D01*
X168698511Y-62602976D01*
X168650892Y-62650595D01*
X168555654Y-62698214D01*
X168317559Y-62698214D01*
X168222321Y-62650595D01*
X168174702Y-62602976D01*
X168127083Y-62507738D01*
X168127083Y-62317261D01*
X168174702Y-62222023D01*
X168222321Y-62174404D01*
X168317559Y-62126785D01*
D16*
X264896220Y-140339590D02*
X262896220Y-140339590D01*
X264896220Y-140339590D02*
X264896220Y-136439590D01*
X262896220Y-140339590D02*
X262896220Y-136439590D01*
X121985050Y-140279968D02*
X119985050Y-140279968D01*
X121985050Y-140279968D02*
X121985050Y-136379968D01*
X119985050Y-140279968D02*
X119985050Y-136379968D01*
X136635040Y-83119921D02*
X136635040Y-79219921D01*
X138635040Y-83119921D02*
X136635040Y-83119921D01*
X138635040Y-83119921D02*
X138635040Y-79219921D01*
X100565183Y-83118709D02*
X98565183Y-83118709D01*
X98565183Y-83118709D02*
X98565183Y-79218709D01*
X100565183Y-83118709D02*
X100565183Y-79218709D01*
X276762226Y-102165732D02*
X274762226Y-102165732D01*
X274762226Y-102165732D02*
X274762226Y-98265732D01*
X276762226Y-102165732D02*
X276762226Y-98265732D01*
X200537943Y-124343059D02*
X200015439Y-124343059D01*
X200537943Y-122873059D02*
X200015439Y-122873059D01*
X262496938Y-64025118D02*
X262496938Y-60125118D01*
X262496938Y-64025118D02*
X260496938Y-64025118D01*
X260496938Y-64025118D02*
X260496938Y-60125118D01*
X310119393Y-83085757D02*
X310119393Y-79185757D01*
X308119393Y-83085757D02*
X308119393Y-79185757D01*
X310119393Y-83085757D02*
X308119393Y-83085757D01*
X338672962Y-121303915D02*
X336672962Y-121303915D01*
X336672962Y-121303915D02*
X336672962Y-117403915D01*
X338672962Y-121303915D02*
X338672962Y-117403915D01*
X217416046Y-117750737D02*
X217416046Y-117228233D01*
X218886046Y-117750737D02*
X218886046Y-117228233D01*
X191042796Y-121210931D02*
X189042796Y-121210931D01*
X189042796Y-121210931D02*
X189042796Y-117310931D01*
X191042796Y-121210931D02*
X191042796Y-117310931D01*
X205768750Y-120439433D02*
X205768750Y-116539433D01*
X207768750Y-120439433D02*
X205768750Y-120439433D01*
X207768750Y-120439433D02*
X207768750Y-116539433D01*
X214829592Y-83225706D02*
X214829592Y-79325706D01*
X214829592Y-83225706D02*
X212829592Y-83225706D01*
X212829592Y-83225706D02*
X212829592Y-79325706D01*
X295803937Y-102178797D02*
X295803937Y-98278797D01*
X293803937Y-102178797D02*
X293803937Y-98278797D01*
X295803937Y-102178797D02*
X293803937Y-102178797D01*
X357734925Y-83085233D02*
X357734925Y-79185233D01*
X355734925Y-83085233D02*
X355734925Y-79185233D01*
X357734925Y-83085233D02*
X355734925Y-83085233D01*
X265240103Y-121248038D02*
X265240103Y-117348038D01*
X267240103Y-121248038D02*
X267240103Y-117348038D01*
X267240103Y-121248038D02*
X265240103Y-121248038D01*
D10*
X239723123Y-125753252D02*
X244723123Y-125753252D01*
X244723123Y-123253252D02*
X239723123Y-123253252D01*
X239723123Y-123253252D02*
X239723123Y-125753252D01*
X244723123Y-125753252D02*
X244723123Y-123253252D01*
D16*
X89093750Y-64262500D02*
X89093750Y-60362500D01*
X91093750Y-64262500D02*
X89093750Y-64262500D01*
X91093750Y-64262500D02*
X91093750Y-60362500D01*
X184343750Y-64312500D02*
X184343750Y-60412500D01*
X186343750Y-64312500D02*
X186343750Y-60412500D01*
X186343750Y-64312500D02*
X184343750Y-64312500D01*
X226020661Y-130568624D02*
X226543165Y-130568624D01*
X226020661Y-132038624D02*
X226543165Y-132038624D01*
D12*
X208612500Y-58875000D02*
X208612500Y-61775000D01*
X207312500Y-58875000D02*
X207312500Y-61775000D01*
X208612500Y-61775000D02*
X207312500Y-61775000D01*
X207312500Y-58875000D02*
X208612500Y-58875000D01*
D16*
X236655378Y-102201434D02*
X236655378Y-98301434D01*
X238655378Y-102201434D02*
X236655378Y-102201434D01*
X238655378Y-102201434D02*
X238655378Y-98301434D01*
X81867591Y-121222553D02*
X81867591Y-117322553D01*
X83867591Y-121222553D02*
X81867591Y-121222553D01*
X83867591Y-121222553D02*
X83867591Y-117322553D01*
X252982936Y-83246221D02*
X252982936Y-79346221D01*
X252982936Y-83246221D02*
X250982936Y-83246221D01*
X250982936Y-83246221D02*
X250982936Y-79346221D01*
X110143750Y-64262500D02*
X108143750Y-64262500D01*
X110143750Y-64262500D02*
X110143750Y-60362500D01*
X108143750Y-64262500D02*
X108143750Y-60362500D01*
X114830769Y-121280899D02*
X112830769Y-121280899D01*
X114830769Y-121280899D02*
X114830769Y-117380899D01*
X112830769Y-121280899D02*
X112830769Y-117380899D01*
X119565736Y-83101915D02*
X119565736Y-79201915D01*
X119565736Y-83101915D02*
X117565736Y-83101915D01*
X117565736Y-83101915D02*
X117565736Y-79201915D01*
X217605573Y-102201043D02*
X217605573Y-98301043D01*
X219605573Y-102201043D02*
X217605573Y-102201043D01*
X219605573Y-102201043D02*
X219605573Y-98301043D01*
X170133465Y-121288120D02*
X170133465Y-117388120D01*
X172133465Y-121288120D02*
X170133465Y-121288120D01*
X172133465Y-121288120D02*
X172133465Y-117388120D01*
X210415422Y-113427268D02*
X210415422Y-113881396D01*
X211885422Y-113427268D02*
X211885422Y-113881396D01*
X312500508Y-121260917D02*
X312500508Y-117360917D01*
X310500508Y-121260917D02*
X310500508Y-117360917D01*
X312500508Y-121260917D02*
X310500508Y-121260917D01*
X72037500Y-64250000D02*
X72037500Y-60350000D01*
X72037500Y-64250000D02*
X70037500Y-64250000D01*
X70037500Y-64250000D02*
X70037500Y-60350000D01*
X148243750Y-64312500D02*
X146243750Y-64312500D01*
X146243750Y-64312500D02*
X146243750Y-60412500D01*
X148243750Y-64312500D02*
X148243750Y-60412500D01*
X232241350Y-126416485D02*
X231718846Y-126416485D01*
X232241350Y-127886485D02*
X231718846Y-127886485D01*
X204220814Y-54526263D02*
X203766686Y-54526263D01*
X204220814Y-55996263D02*
X203766686Y-55996263D01*
X216796252Y-50494000D02*
X216273748Y-50494000D01*
X216796252Y-49074000D02*
X216273748Y-49074000D01*
X74752308Y-83194908D02*
X74752308Y-79294908D01*
X76752308Y-83194908D02*
X74752308Y-83194908D01*
X76752308Y-83194908D02*
X76752308Y-79294908D01*
X357738050Y-64117854D02*
X355738050Y-64117854D01*
X355738050Y-64117854D02*
X355738050Y-60217854D01*
X357738050Y-64117854D02*
X357738050Y-60217854D01*
X162482546Y-102206480D02*
X162482546Y-98306480D01*
X162482546Y-102206480D02*
X160482546Y-102206480D01*
X160482546Y-102206480D02*
X160482546Y-98306480D01*
D12*
X213610753Y-126486707D02*
X212935753Y-126486707D01*
X213610753Y-136836707D02*
X213610753Y-136161707D01*
X203835753Y-126486707D02*
X203835753Y-125211707D01*
X203260753Y-126486707D02*
X203260753Y-127161707D01*
X203260753Y-136836707D02*
X203260753Y-136161707D01*
X213610753Y-126486707D02*
X213610753Y-127161707D01*
X203260753Y-126486707D02*
X203835753Y-126486707D01*
X203260753Y-136836707D02*
X203935753Y-136836707D01*
X213610753Y-136836707D02*
X212935753Y-136836707D01*
D16*
X251716900Y-123486250D02*
X252206900Y-123976250D01*
X247546900Y-125166250D02*
X247546900Y-127246250D01*
X248816900Y-128926250D02*
X248326900Y-128436250D01*
X248816900Y-123486250D02*
X251716900Y-123486250D01*
X251716900Y-128926250D02*
X252206900Y-128436250D01*
X248816900Y-128926250D02*
X251716900Y-128926250D01*
X248816900Y-123486250D02*
X248326900Y-123976250D01*
X252986900Y-125166250D02*
X252986900Y-127246250D01*
X203446967Y-61129864D02*
X203446967Y-62333992D01*
X205266967Y-61129864D02*
X205266967Y-62333992D01*
X152937360Y-121209126D02*
X152937360Y-117309126D01*
X152937360Y-121209126D02*
X150937360Y-121209126D01*
X150937360Y-121209126D02*
X150937360Y-117309126D01*
X217902003Y-127429205D02*
X217902003Y-127951709D01*
X216432003Y-127429205D02*
X216432003Y-127951709D01*
X218475663Y-135593624D02*
X218475663Y-130193624D01*
X222975663Y-135593624D02*
X218475663Y-135593624D01*
X98177278Y-140304695D02*
X96177278Y-140304695D01*
X96177278Y-140304695D02*
X96177278Y-136404695D01*
X98177278Y-140304695D02*
X98177278Y-136404695D01*
X229197588Y-121309086D02*
X227197588Y-121309086D01*
X229197588Y-121309086D02*
X229197588Y-117409086D01*
X227197588Y-121309086D02*
X227197588Y-117409086D01*
X198527272Y-102139145D02*
X198527272Y-98239145D01*
X200527272Y-102139145D02*
X200527272Y-98239145D01*
X200527272Y-102139145D02*
X198527272Y-102139145D01*
X234722936Y-133408750D02*
X235177064Y-133408750D01*
X234722936Y-134878750D02*
X235177064Y-134878750D01*
X79124810Y-102162584D02*
X79124810Y-98262584D01*
X79124810Y-102162584D02*
X77124810Y-102162584D01*
X77124810Y-102162584D02*
X77124810Y-98262584D01*
X213459663Y-140626260D02*
X213982167Y-140626260D01*
X213459663Y-139156260D02*
X213982167Y-139156260D01*
X357710703Y-140290665D02*
X357710703Y-136390665D01*
X357710703Y-140290665D02*
X355710703Y-140290665D01*
X355710703Y-140290665D02*
X355710703Y-136390665D01*
X338692378Y-140260722D02*
X338692378Y-136360722D01*
X336692378Y-140260722D02*
X336692378Y-136360722D01*
X338692378Y-140260722D02*
X336692378Y-140260722D01*
X133892080Y-121251238D02*
X131892080Y-121251238D01*
X133892080Y-121251238D02*
X133892080Y-117351238D01*
X131892080Y-121251238D02*
X131892080Y-117351238D01*
X300621537Y-64115858D02*
X298621537Y-64115858D01*
X298621537Y-64115858D02*
X298621537Y-60215858D01*
X300621537Y-64115858D02*
X300621537Y-60215858D01*
X286294428Y-121253962D02*
X284294428Y-121253962D01*
X284294428Y-121253962D02*
X284294428Y-117353962D01*
X286294428Y-121253962D02*
X286294428Y-117353962D01*
X333920697Y-83153627D02*
X333920697Y-79253627D01*
X331920697Y-83153627D02*
X331920697Y-79253627D01*
X333920697Y-83153627D02*
X331920697Y-83153627D01*
X105326708Y-102253683D02*
X103326708Y-102253683D01*
X105326708Y-102253683D02*
X105326708Y-98353683D01*
X103326708Y-102253683D02*
X103326708Y-98353683D01*
X181509065Y-102214167D02*
X181509065Y-98314167D01*
X181509065Y-102214167D02*
X179509065Y-102214167D01*
X179509065Y-102214167D02*
X179509065Y-98314167D01*
X211169025Y-55346234D02*
X211169025Y-55800362D01*
X209699025Y-55346234D02*
X209699025Y-55800362D01*
X291059887Y-83108139D02*
X291059887Y-79208139D01*
X291059887Y-83108139D02*
X289059887Y-83108139D01*
X289059887Y-83108139D02*
X289059887Y-79208139D01*
X243393750Y-64148508D02*
X243393750Y-60248508D01*
X243393750Y-64148508D02*
X241393750Y-64148508D01*
X241393750Y-64148508D02*
X241393750Y-60248508D01*
X288668218Y-140274488D02*
X286668218Y-140274488D01*
X288668218Y-140274488D02*
X288668218Y-136374488D01*
X286668218Y-140274488D02*
X286668218Y-136374488D01*
X327144363Y-64090206D02*
X327144363Y-60190206D01*
X329144363Y-64090206D02*
X327144363Y-64090206D01*
X329144363Y-64090206D02*
X329144363Y-60190206D01*
X324762185Y-102140773D02*
X324762185Y-98240773D01*
X326762185Y-102140773D02*
X324762185Y-102140773D01*
X326762185Y-102140773D02*
X326762185Y-98240773D01*
X317627947Y-140311482D02*
X317627947Y-136411482D01*
X319627947Y-140311482D02*
X317627947Y-140311482D01*
X319627947Y-140311482D02*
X319627947Y-136411482D01*
X193421075Y-140290052D02*
X191421075Y-140290052D01*
X193421075Y-140290052D02*
X193421075Y-136390052D01*
X191421075Y-140290052D02*
X191421075Y-136390052D01*
X155689261Y-83143578D02*
X155689261Y-79243578D01*
X157689261Y-83143578D02*
X155689261Y-83143578D01*
X157689261Y-83143578D02*
X157689261Y-79243578D01*
X226020661Y-135213624D02*
X226543165Y-135213624D01*
X226020661Y-133743624D02*
X226543165Y-133743624D01*
X203367401Y-138602733D02*
X202913273Y-138602733D01*
X203367401Y-140072733D02*
X202913273Y-140072733D01*
X193557821Y-64066304D02*
X191557821Y-64066304D01*
X193557821Y-64066304D02*
X193557821Y-60166304D01*
X191557821Y-64066304D02*
X191557821Y-60166304D01*
X233904074Y-83132383D02*
X233904074Y-79232383D01*
X231904074Y-83132383D02*
X231904074Y-79232383D01*
X233904074Y-83132383D02*
X231904074Y-83132383D01*
X214266672Y-113427268D02*
X214266672Y-113881396D01*
X212796672Y-113427268D02*
X212796672Y-113881396D01*
X272035605Y-83075849D02*
X270035605Y-83075849D01*
X270035605Y-83075849D02*
X270035605Y-79175849D01*
X272035605Y-83075849D02*
X272035605Y-79175849D01*
X141439817Y-102123749D02*
X141439817Y-98223749D01*
X143439817Y-102123749D02*
X141439817Y-102123749D01*
X143439817Y-102123749D02*
X143439817Y-98223749D01*
X248166863Y-121221909D02*
X248166863Y-117321909D01*
X248166863Y-121221909D02*
X246166863Y-121221909D01*
X246166863Y-121221909D02*
X246166863Y-117321909D01*
X129237500Y-64162500D02*
X129237500Y-60262500D01*
X129237500Y-64162500D02*
X127237500Y-64162500D01*
X127237500Y-64162500D02*
X127237500Y-60262500D01*
X198969503Y-135095459D02*
X198969503Y-134572955D01*
X200439503Y-135095459D02*
X200439503Y-134572955D01*
X72337272Y-140238265D02*
X72337272Y-136338265D01*
X74337272Y-140238265D02*
X72337272Y-140238265D01*
X74337272Y-140238265D02*
X74337272Y-136338265D01*
X257705378Y-102231290D02*
X255705378Y-102231290D01*
X257705378Y-102231290D02*
X257705378Y-98331290D01*
X255705378Y-102231290D02*
X255705378Y-98331290D01*
X222437500Y-64162500D02*
X222437500Y-60262500D01*
X224437500Y-64162500D02*
X224437500Y-60262500D01*
X224437500Y-64162500D02*
X222437500Y-64162500D01*
X176743242Y-83143963D02*
X174743242Y-83143963D01*
X174743242Y-83143963D02*
X174743242Y-79243963D01*
X176743242Y-83143963D02*
X176743242Y-79243963D01*
X279510254Y-64130872D02*
X279510254Y-60230872D01*
X281510254Y-64130872D02*
X281510254Y-60230872D01*
X281510254Y-64130872D02*
X279510254Y-64130872D01*
X122353982Y-102194891D02*
X122353982Y-98294891D01*
X124353982Y-102194891D02*
X122353982Y-102194891D01*
X124353982Y-102194891D02*
X124353982Y-98294891D01*
X195764424Y-83121863D02*
X193764424Y-83121863D01*
X195764424Y-83121863D02*
X195764424Y-79221863D01*
X193764424Y-83121863D02*
X193764424Y-79221863D01*
X167293750Y-64162500D02*
X167293750Y-60262500D01*
X167293750Y-64162500D02*
X165293750Y-64162500D01*
X165293750Y-64162500D02*
X165293750Y-60262500D01*
%LPC*%
D17*
X260667500Y-57150000D03*
D18*
X255587500Y-57150000D03*
D17*
X250507500Y-57150000D03*
D19*
X251777500Y-54610000D03*
X258127500Y-52070000D03*
D20*
X254317500Y-62230000D03*
D21*
X256857500Y-62230000D03*
D17*
X221932500Y-76200000D03*
D18*
X227012500Y-76200000D03*
D17*
X232092500Y-76200000D03*
D19*
X223202500Y-73660000D03*
X229552500Y-71120000D03*
D20*
X225742500Y-81280000D03*
D21*
X228282500Y-81280000D03*
D18*
X72231250Y-95250000D03*
D17*
X67151250Y-95250000D03*
X77311250Y-95250000D03*
D19*
X68421250Y-92710000D03*
X74771250Y-90170000D03*
D20*
X70961250Y-100330000D03*
D21*
X73501250Y-100330000D03*
D17*
X252888750Y-133350000D03*
X263048750Y-133350000D03*
D18*
X257968750Y-133350000D03*
D19*
X254158750Y-130810000D03*
X260508750Y-128270000D03*
D20*
X256698750Y-138430000D03*
D21*
X259238750Y-138430000D03*
D18*
X303212500Y-76200000D03*
D17*
X308292500Y-76200000D03*
X298132500Y-76200000D03*
D19*
X299402500Y-73660000D03*
X305752500Y-71120000D03*
D20*
X301942500Y-81280000D03*
D21*
X304482500Y-81280000D03*
D17*
X110013750Y-133350000D03*
D18*
X115093750Y-133350000D03*
D17*
X120173750Y-133350000D03*
D19*
X111283750Y-130810000D03*
X117633750Y-128270000D03*
D20*
X113823750Y-138430000D03*
D21*
X116363750Y-138430000D03*
D18*
X250825000Y-95250000D03*
D17*
X255905000Y-95250000D03*
X245745000Y-95250000D03*
D19*
X247015000Y-92710000D03*
X253365000Y-90170000D03*
D20*
X249555000Y-100330000D03*
D21*
X252095000Y-100330000D03*
D17*
X170180000Y-114300000D03*
X160020000Y-114300000D03*
D18*
X165100000Y-114300000D03*
D19*
X161290000Y-111760000D03*
X167640000Y-109220000D03*
D20*
X163830000Y-119380000D03*
D21*
X166370000Y-119380000D03*
D18*
X146050000Y-114300000D03*
D17*
X140970000Y-114300000D03*
X151130000Y-114300000D03*
D19*
X142240000Y-111760000D03*
X148590000Y-109220000D03*
D20*
X144780000Y-119380000D03*
D21*
X147320000Y-119380000D03*
D17*
X217805000Y-95250000D03*
D18*
X212725000Y-95250000D03*
D17*
X207645000Y-95250000D03*
D19*
X208915000Y-92710000D03*
X215265000Y-90170000D03*
D20*
X211455000Y-100330000D03*
D21*
X213995000Y-100330000D03*
D18*
X91281250Y-133350000D03*
D17*
X86201250Y-133350000D03*
X96361250Y-133350000D03*
D19*
X87471250Y-130810000D03*
X93821250Y-128270000D03*
D20*
X90011250Y-138430000D03*
D21*
X92551250Y-138430000D03*
D18*
X279400000Y-114300000D03*
D17*
X274320000Y-114300000D03*
X284480000Y-114300000D03*
D19*
X275590000Y-111760000D03*
X281940000Y-109220000D03*
D20*
X278130000Y-119380000D03*
D21*
X280670000Y-119380000D03*
D17*
X307657500Y-133350000D03*
D18*
X312737500Y-133350000D03*
D17*
X317817500Y-133350000D03*
D19*
X308927500Y-130810000D03*
X315277500Y-128270000D03*
D20*
X311467500Y-138430000D03*
D21*
X314007500Y-138430000D03*
D18*
X112712500Y-76200000D03*
D17*
X107632500Y-76200000D03*
X117792500Y-76200000D03*
D19*
X108902500Y-73660000D03*
X115252500Y-71120000D03*
D20*
X111442500Y-81280000D03*
D21*
X113982500Y-81280000D03*
D17*
X112395000Y-95250000D03*
D18*
X117475000Y-95250000D03*
D17*
X122555000Y-95250000D03*
D19*
X113665000Y-92710000D03*
X120015000Y-90170000D03*
D20*
X116205000Y-100330000D03*
D21*
X118745000Y-100330000D03*
D18*
X67468750Y-133350000D03*
D17*
X62388750Y-133350000D03*
X72548750Y-133350000D03*
D19*
X63658750Y-130810000D03*
X70008750Y-128270000D03*
D20*
X66198750Y-138430000D03*
D21*
X68738750Y-138430000D03*
D18*
X231775000Y-95250000D03*
D17*
X226695000Y-95250000D03*
X236855000Y-95250000D03*
D19*
X227965000Y-92710000D03*
X234315000Y-90170000D03*
D20*
X230505000Y-100330000D03*
D21*
X233045000Y-100330000D03*
D17*
X64770000Y-76200000D03*
D18*
X69850000Y-76200000D03*
D17*
X74930000Y-76200000D03*
D19*
X66040000Y-73660000D03*
X72390000Y-71120000D03*
D20*
X68580000Y-81280000D03*
D21*
X71120000Y-81280000D03*
D17*
X269557500Y-57150000D03*
X279717500Y-57150000D03*
D18*
X274637500Y-57150000D03*
D19*
X270827500Y-54610000D03*
X277177500Y-52070000D03*
D20*
X273367500Y-62230000D03*
D21*
X275907500Y-62230000D03*
D17*
X164782500Y-76200000D03*
X174942500Y-76200000D03*
D18*
X169862500Y-76200000D03*
D19*
X166052500Y-73660000D03*
X172402500Y-71120000D03*
D20*
X168592500Y-81280000D03*
D21*
X171132500Y-81280000D03*
D17*
X136842500Y-76200000D03*
X126682500Y-76200000D03*
D18*
X131762500Y-76200000D03*
D19*
X127952500Y-73660000D03*
X134302500Y-71120000D03*
D20*
X130492500Y-81280000D03*
D21*
X133032500Y-81280000D03*
D17*
X217170000Y-114300000D03*
X227330000Y-114300000D03*
D18*
X222250000Y-114300000D03*
D19*
X218440000Y-111760000D03*
X224790000Y-109220000D03*
D20*
X220980000Y-119380000D03*
D21*
X223520000Y-119380000D03*
D17*
X98107500Y-57150000D03*
X108267500Y-57150000D03*
D18*
X103187500Y-57150000D03*
D19*
X99377500Y-54610000D03*
X105727500Y-52070000D03*
D20*
X101917500Y-62230000D03*
D21*
X104457500Y-62230000D03*
D18*
X174625000Y-95250000D03*
D17*
X169545000Y-95250000D03*
X179705000Y-95250000D03*
D19*
X170815000Y-92710000D03*
X177165000Y-90170000D03*
D20*
X173355000Y-100330000D03*
D21*
X175895000Y-100330000D03*
D17*
X336867500Y-133350000D03*
D18*
X331787500Y-133350000D03*
D17*
X326707500Y-133350000D03*
D19*
X327977500Y-130810000D03*
X334327500Y-128270000D03*
D20*
X330517500Y-138430000D03*
D21*
X333057500Y-138430000D03*
D18*
X331787500Y-114300000D03*
D17*
X326707500Y-114300000D03*
X336867500Y-114300000D03*
D19*
X327977500Y-111760000D03*
X334327500Y-109220000D03*
D20*
X330517500Y-119380000D03*
D21*
X333057500Y-119380000D03*
D17*
X345757500Y-57150000D03*
X355917500Y-57150000D03*
D18*
X350837500Y-57150000D03*
D19*
X347027500Y-54610000D03*
X353377500Y-52070000D03*
D20*
X349567500Y-62230000D03*
D21*
X352107500Y-62230000D03*
D17*
X332105000Y-76200000D03*
D18*
X327025000Y-76200000D03*
D17*
X321945000Y-76200000D03*
D19*
X323215000Y-73660000D03*
X329565000Y-71120000D03*
D20*
X325755000Y-81280000D03*
D21*
X328295000Y-81280000D03*
D17*
X355917500Y-133350000D03*
X345757500Y-133350000D03*
D18*
X350837500Y-133350000D03*
D19*
X347027500Y-130810000D03*
X353377500Y-128270000D03*
D20*
X349567500Y-138430000D03*
D21*
X352107500Y-138430000D03*
D17*
X274955000Y-95250000D03*
D18*
X269875000Y-95250000D03*
D17*
X264795000Y-95250000D03*
D19*
X266065000Y-92710000D03*
X272415000Y-90170000D03*
D20*
X268605000Y-100330000D03*
D21*
X271145000Y-100330000D03*
D17*
X203517500Y-57150000D03*
D18*
X198437500Y-57150000D03*
D17*
X193357500Y-57150000D03*
D19*
X194627500Y-54610000D03*
X200977500Y-52070000D03*
D20*
X197167500Y-62230000D03*
D21*
X199707500Y-62230000D03*
D17*
X289242500Y-76200000D03*
D18*
X284162500Y-76200000D03*
D17*
X279082500Y-76200000D03*
D19*
X280352500Y-73660000D03*
X286702500Y-71120000D03*
D20*
X282892500Y-81280000D03*
D21*
X285432500Y-81280000D03*
D17*
X251142500Y-76200000D03*
D18*
X246062500Y-76200000D03*
D17*
X240982500Y-76200000D03*
D19*
X242252500Y-73660000D03*
X248602500Y-71120000D03*
D20*
X244792500Y-81280000D03*
D21*
X247332500Y-81280000D03*
D18*
X310324500Y-65405000D03*
X334200500Y-65405000D03*
D17*
X327342500Y-57150000D03*
D22*
X310324500Y-50165000D03*
D18*
X322262500Y-57150000D03*
D17*
X317182500Y-57150000D03*
D22*
X334200500Y-50165000D03*
D19*
X318452500Y-54610000D03*
X324802500Y-52070000D03*
D20*
X320992500Y-62230000D03*
D21*
X323532500Y-62230000D03*
D17*
X174307500Y-57150000D03*
D18*
X179387500Y-57150000D03*
D17*
X184467500Y-57150000D03*
D19*
X175577500Y-54610000D03*
X181927500Y-52070000D03*
D20*
X178117500Y-62230000D03*
D21*
X180657500Y-62230000D03*
D17*
X93345000Y-95250000D03*
X103505000Y-95250000D03*
D18*
X98425000Y-95250000D03*
D19*
X94615000Y-92710000D03*
X100965000Y-90170000D03*
D20*
X97155000Y-100330000D03*
D21*
X99695000Y-100330000D03*
D17*
X136207500Y-57150000D03*
D18*
X141287500Y-57150000D03*
D17*
X146367500Y-57150000D03*
D19*
X137477500Y-54610000D03*
X143827500Y-52070000D03*
D20*
X140017500Y-62230000D03*
D21*
X142557500Y-62230000D03*
D17*
X102870000Y-114300000D03*
X113030000Y-114300000D03*
D18*
X107950000Y-114300000D03*
D19*
X104140000Y-111760000D03*
X110490000Y-109220000D03*
D20*
X106680000Y-119380000D03*
D21*
X109220000Y-119380000D03*
D17*
X70167500Y-57150000D03*
D18*
X65087500Y-57150000D03*
D17*
X60007500Y-57150000D03*
D19*
X61277500Y-54610000D03*
X67627500Y-52070000D03*
D20*
X63817500Y-62230000D03*
D21*
X66357500Y-62230000D03*
D18*
X150812500Y-76200000D03*
D17*
X155892500Y-76200000D03*
X145732500Y-76200000D03*
D19*
X147002500Y-73660000D03*
X153352500Y-71120000D03*
D20*
X149542500Y-81280000D03*
D21*
X152082500Y-81280000D03*
D18*
X184150000Y-114300000D03*
D17*
X179070000Y-114300000D03*
X189230000Y-114300000D03*
D19*
X180340000Y-111760000D03*
X186690000Y-109220000D03*
D20*
X182880000Y-119380000D03*
D21*
X185420000Y-119380000D03*
D17*
X310673750Y-114300000D03*
D18*
X305593750Y-114300000D03*
D17*
X300513750Y-114300000D03*
D19*
X301783750Y-111760000D03*
X308133750Y-109220000D03*
D20*
X304323750Y-119380000D03*
D21*
X306863750Y-119380000D03*
D17*
X286861250Y-133350000D03*
X276701250Y-133350000D03*
D18*
X281781250Y-133350000D03*
D19*
X277971250Y-130810000D03*
X284321250Y-128270000D03*
D20*
X280511250Y-138430000D03*
D21*
X283051250Y-138430000D03*
D18*
X186531250Y-133350000D03*
D17*
X181451250Y-133350000D03*
D18*
X136531350Y-125095000D03*
D22*
X236531150Y-140335000D03*
D17*
X191611250Y-133350000D03*
D18*
X236531150Y-125095000D03*
D22*
X136531350Y-140335000D03*
D19*
X182721250Y-130810000D03*
X189071250Y-128270000D03*
D20*
X185261250Y-138430000D03*
D21*
X187801250Y-138430000D03*
D18*
X236537500Y-57150000D03*
D17*
X241617500Y-57150000D03*
X231457500Y-57150000D03*
D19*
X232727500Y-54610000D03*
X239077500Y-52070000D03*
D20*
X235267500Y-62230000D03*
D21*
X237807500Y-62230000D03*
D17*
X213042500Y-76200000D03*
D18*
X207962500Y-76200000D03*
D17*
X202882500Y-76200000D03*
D19*
X204152500Y-73660000D03*
X210502500Y-71120000D03*
D20*
X206692500Y-81280000D03*
D21*
X209232500Y-81280000D03*
D17*
X88582500Y-76200000D03*
D18*
X93662500Y-76200000D03*
D17*
X98742500Y-76200000D03*
D19*
X89852500Y-73660000D03*
X96202500Y-71120000D03*
D20*
X92392500Y-81280000D03*
D21*
X94932500Y-81280000D03*
D17*
X255270000Y-114300000D03*
X265430000Y-114300000D03*
D18*
X260350000Y-114300000D03*
D19*
X256540000Y-111760000D03*
X262890000Y-109220000D03*
D20*
X259080000Y-119380000D03*
D21*
X261620000Y-119380000D03*
D17*
X298767500Y-57150000D03*
D18*
X293687500Y-57150000D03*
D17*
X288607500Y-57150000D03*
D19*
X289877500Y-54610000D03*
X296227500Y-52070000D03*
D20*
X292417500Y-62230000D03*
D21*
X294957500Y-62230000D03*
D18*
X127000000Y-114300000D03*
D17*
X121920000Y-114300000D03*
X132080000Y-114300000D03*
D19*
X123190000Y-111760000D03*
X129540000Y-109220000D03*
D20*
X125730000Y-119380000D03*
D21*
X128270000Y-119380000D03*
D17*
X212407500Y-57150000D03*
X222567500Y-57150000D03*
D18*
X217487500Y-57150000D03*
D19*
X213677500Y-54610000D03*
X220027500Y-52070000D03*
D20*
X216217500Y-62230000D03*
D21*
X218757500Y-62230000D03*
D17*
X150495000Y-95250000D03*
X160655000Y-95250000D03*
D18*
X155575000Y-95250000D03*
D19*
X151765000Y-92710000D03*
X158115000Y-90170000D03*
D20*
X154305000Y-100330000D03*
D21*
X156845000Y-100330000D03*
D17*
X208280000Y-114300000D03*
D18*
X203200000Y-114300000D03*
D17*
X198120000Y-114300000D03*
D19*
X199390000Y-111760000D03*
X205740000Y-109220000D03*
D20*
X201930000Y-119380000D03*
D21*
X204470000Y-119380000D03*
D17*
X188595000Y-95250000D03*
D18*
X193675000Y-95250000D03*
D17*
X198755000Y-95250000D03*
D19*
X189865000Y-92710000D03*
X196215000Y-90170000D03*
D20*
X192405000Y-100330000D03*
D21*
X194945000Y-100330000D03*
D17*
X314801250Y-95250000D03*
D18*
X331819250Y-103505000D03*
X307943250Y-103505000D03*
D22*
X307943250Y-88265000D03*
X331819250Y-88265000D03*
D17*
X324961250Y-95250000D03*
D18*
X319881250Y-95250000D03*
D19*
X316071250Y-92710000D03*
X322421250Y-90170000D03*
D20*
X318611250Y-100330000D03*
D21*
X321151250Y-100330000D03*
D18*
X136525000Y-95250000D03*
D17*
X131445000Y-95250000D03*
X141605000Y-95250000D03*
D19*
X132715000Y-92710000D03*
X139065000Y-90170000D03*
D20*
X135255000Y-100330000D03*
D21*
X137795000Y-100330000D03*
D17*
X283845000Y-95250000D03*
X294005000Y-95250000D03*
D18*
X288925000Y-95250000D03*
D19*
X285115000Y-92710000D03*
X291465000Y-90170000D03*
D20*
X287655000Y-100330000D03*
D21*
X290195000Y-100330000D03*
D17*
X270192500Y-76200000D03*
D18*
X265112500Y-76200000D03*
D17*
X260032500Y-76200000D03*
D19*
X261302500Y-73660000D03*
X267652500Y-71120000D03*
D20*
X263842500Y-81280000D03*
D21*
X266382500Y-81280000D03*
D17*
X183832500Y-76200000D03*
D18*
X188912500Y-76200000D03*
D17*
X193992500Y-76200000D03*
D19*
X185102500Y-73660000D03*
X191452500Y-71120000D03*
D20*
X187642500Y-81280000D03*
D21*
X190182500Y-81280000D03*
D17*
X127317500Y-57150000D03*
D18*
X122237500Y-57150000D03*
D17*
X117157500Y-57150000D03*
D19*
X118427500Y-54610000D03*
X124777500Y-52070000D03*
D20*
X120967500Y-62230000D03*
D21*
X123507500Y-62230000D03*
D17*
X165417500Y-57150000D03*
D18*
X160337500Y-57150000D03*
D17*
X155257500Y-57150000D03*
D19*
X156527500Y-54610000D03*
X162877500Y-52070000D03*
D20*
X159067500Y-62230000D03*
D21*
X161607500Y-62230000D03*
D17*
X79057500Y-57150000D03*
X89217500Y-57150000D03*
D18*
X84137500Y-57150000D03*
D19*
X80327500Y-54610000D03*
X86677500Y-52070000D03*
D20*
X82867500Y-62230000D03*
D21*
X85407500Y-62230000D03*
D17*
X345757500Y-76200000D03*
D18*
X350837500Y-76200000D03*
D17*
X355917500Y-76200000D03*
D19*
X347027500Y-73660000D03*
X353377500Y-71120000D03*
D20*
X349567500Y-81280000D03*
D21*
X352107500Y-81280000D03*
D17*
X236220000Y-114300000D03*
D18*
X241300000Y-114300000D03*
D17*
X246380000Y-114300000D03*
D19*
X237490000Y-111760000D03*
X243840000Y-109220000D03*
D20*
X240030000Y-119380000D03*
D21*
X242570000Y-119380000D03*
D18*
X88931750Y-122555000D03*
D17*
X71913750Y-114300000D03*
D18*
X76993750Y-114300000D03*
D22*
X88931750Y-107315000D03*
X65055750Y-107315000D03*
D17*
X82073750Y-114300000D03*
D18*
X65055750Y-122555000D03*
D19*
X73183750Y-111760000D03*
X79533750Y-109220000D03*
D20*
X75723750Y-119380000D03*
D21*
X78263750Y-119380000D03*
D23*
X263896220Y-139739590D03*
X263896220Y-136439590D03*
X120985050Y-139679968D03*
X120985050Y-136379968D03*
X137635040Y-82519921D03*
X137635040Y-79219921D03*
X99565183Y-82518709D03*
X99565183Y-79218709D03*
X275762226Y-101565732D03*
X275762226Y-98265732D03*
D24*
X201314191Y-123608059D03*
X199239191Y-123608059D03*
D23*
X261496938Y-63425118D03*
X261496938Y-60125118D03*
X309119393Y-82485757D03*
X309119393Y-79185757D03*
X337672962Y-120703915D03*
X337672962Y-117403915D03*
D25*
X218151046Y-118526985D03*
X218151046Y-116451985D03*
D23*
X190042796Y-120610931D03*
X190042796Y-117310931D03*
X206768750Y-119839433D03*
X206768750Y-116539433D03*
X213829592Y-82625706D03*
X213829592Y-79325706D03*
X294803937Y-101578797D03*
X294803937Y-98278797D03*
X356734925Y-82485233D03*
X356734925Y-79185233D03*
X266240103Y-120648038D03*
X266240103Y-117348038D03*
D26*
X240953123Y-129543252D03*
X243493123Y-129543252D03*
X240953123Y-127003252D03*
X243493123Y-127003252D03*
X240953123Y-124463252D03*
D27*
X243493123Y-124463252D03*
D23*
X90093750Y-63662500D03*
X90093750Y-60362500D03*
X185343750Y-63712500D03*
X185343750Y-60412500D03*
D28*
X225244413Y-131303624D03*
X227319413Y-131303624D03*
D29*
X208962500Y-59575000D03*
D30*
X208962500Y-61275000D03*
X206962500Y-61275000D03*
X206962500Y-59375000D03*
D23*
X237655378Y-101601434D03*
X237655378Y-98301434D03*
X82867591Y-120622553D03*
X82867591Y-117322553D03*
X251982936Y-82646221D03*
X251982936Y-79346221D03*
X109143750Y-63662500D03*
X109143750Y-60362500D03*
X113830769Y-120680899D03*
X113830769Y-117380899D03*
X118565736Y-82501915D03*
X118565736Y-79201915D03*
X218605573Y-101601043D03*
X218605573Y-98301043D03*
X171133465Y-120688120D03*
X171133465Y-117388120D03*
D31*
X211150422Y-112654332D03*
X211150422Y-114654332D03*
D23*
X311500508Y-120660917D03*
X311500508Y-117360917D03*
X71037500Y-63650000D03*
X71037500Y-60350000D03*
X147243750Y-63712500D03*
X147243750Y-60412500D03*
D24*
X233017598Y-127151485D03*
X230942598Y-127151485D03*
D32*
X204993750Y-55261263D03*
X202993750Y-55261263D03*
D33*
X217560000Y-49784000D03*
X215510000Y-49784000D03*
D23*
X75752308Y-82594908D03*
X75752308Y-79294908D03*
X356738050Y-63517854D03*
X356738050Y-60217854D03*
X161482546Y-101606480D03*
X161482546Y-98306480D03*
D34*
X204435753Y-125961707D03*
X205235753Y-125961707D03*
X206035753Y-125961707D03*
X206835753Y-125961707D03*
X207635753Y-125961707D03*
X208435753Y-125961707D03*
X209235753Y-125961707D03*
X210035753Y-125961707D03*
X210835753Y-125961707D03*
X211635753Y-125961707D03*
X212435753Y-125961707D03*
D35*
X214135753Y-127661707D03*
X214135753Y-128461707D03*
X214135753Y-129261707D03*
X214135753Y-130061707D03*
X214135753Y-130861707D03*
X214135753Y-131661707D03*
X214135753Y-132461707D03*
X214135753Y-133261707D03*
X214135753Y-134061707D03*
X214135753Y-134861707D03*
X214135753Y-135661707D03*
D34*
X212435753Y-137361707D03*
X211635753Y-137361707D03*
X210835753Y-137361707D03*
X210035753Y-137361707D03*
X209235753Y-137361707D03*
X208435753Y-137361707D03*
X207635753Y-137361707D03*
X206835753Y-137361707D03*
X206035753Y-137361707D03*
X205235753Y-137361707D03*
X204435753Y-137361707D03*
D35*
X202735753Y-135661707D03*
X202735753Y-134861707D03*
X202735753Y-134061707D03*
X202735753Y-133261707D03*
X202735753Y-132461707D03*
X202735753Y-131661707D03*
X202735753Y-130861707D03*
X202735753Y-130061707D03*
X202735753Y-129261707D03*
X202735753Y-128461707D03*
X202735753Y-127661707D03*
D36*
X247166900Y-128056250D03*
X253366900Y-128056250D03*
X253366900Y-124356250D03*
X247166900Y-124356250D03*
D37*
X204356967Y-60244428D03*
X204356967Y-63219428D03*
D23*
X151937360Y-120609126D03*
X151937360Y-117309126D03*
D38*
X217167003Y-126652957D03*
X217167003Y-128727957D03*
D39*
X219575663Y-134343624D03*
X219575663Y-131443624D03*
X221875663Y-131443624D03*
X221875663Y-134343624D03*
D23*
X97177278Y-139704695D03*
X97177278Y-136404695D03*
X228197588Y-120709086D03*
X228197588Y-117409086D03*
X199527272Y-101539145D03*
X199527272Y-98239145D03*
D40*
X233950000Y-134143750D03*
X235950000Y-134143750D03*
D23*
X78124810Y-101562584D03*
X78124810Y-98262584D03*
D28*
X212683415Y-139891260D03*
X214758415Y-139891260D03*
D23*
X356710703Y-139690665D03*
X356710703Y-136390665D03*
X337692378Y-139660722D03*
X337692378Y-136360722D03*
X132892080Y-120651238D03*
X132892080Y-117351238D03*
X299621537Y-63515858D03*
X299621537Y-60215858D03*
X285294428Y-120653962D03*
X285294428Y-117353962D03*
X332920697Y-82553627D03*
X332920697Y-79253627D03*
X104326708Y-101653683D03*
X104326708Y-98353683D03*
X180509065Y-101614167D03*
X180509065Y-98314167D03*
D31*
X210434025Y-54573298D03*
X210434025Y-56573298D03*
D23*
X290059887Y-82508139D03*
X290059887Y-79208139D03*
X242393750Y-63548508D03*
X242393750Y-60248508D03*
X287668218Y-139674488D03*
X287668218Y-136374488D03*
X328144363Y-63490206D03*
X328144363Y-60190206D03*
X325762185Y-101540773D03*
X325762185Y-98240773D03*
X318627947Y-139711482D03*
X318627947Y-136411482D03*
D41*
X205072500Y-49112500D03*
X210852500Y-49112500D03*
D42*
X204737500Y-51057500D03*
X205512500Y-51057500D03*
D43*
X206212500Y-51057500D03*
X206712500Y-51057500D03*
X207212500Y-51057500D03*
X207712500Y-51057500D03*
X208212500Y-51057500D03*
X208712500Y-51057500D03*
X209212500Y-51057500D03*
X209712500Y-51057500D03*
D42*
X210412500Y-51057500D03*
X211187500Y-51057500D03*
D23*
X192421075Y-139690052D03*
X192421075Y-136390052D03*
X156689261Y-82543578D03*
X156689261Y-79243578D03*
D28*
X225244413Y-134478624D03*
X227319413Y-134478624D03*
D32*
X204140337Y-139337733D03*
X202140337Y-139337733D03*
D23*
X192557821Y-63466304D03*
X192557821Y-60166304D03*
X232904074Y-82532383D03*
X232904074Y-79232383D03*
D31*
X213531672Y-112654332D03*
X213531672Y-114654332D03*
D23*
X271035605Y-82475849D03*
X271035605Y-79175849D03*
X142439817Y-101523749D03*
X142439817Y-98223749D03*
X247166863Y-120621909D03*
X247166863Y-117321909D03*
X128237500Y-63562500D03*
X128237500Y-60262500D03*
D25*
X199704503Y-135871707D03*
X199704503Y-133796707D03*
D23*
X73337272Y-139638265D03*
X73337272Y-136338265D03*
X256705378Y-101631290D03*
X256705378Y-98331290D03*
X223437500Y-63562500D03*
X223437500Y-60262500D03*
X175743242Y-82543963D03*
X175743242Y-79243963D03*
X280510254Y-63530872D03*
X280510254Y-60230872D03*
X123353982Y-101594891D03*
X123353982Y-98294891D03*
X194764424Y-82521863D03*
X194764424Y-79221863D03*
X166293750Y-63562500D03*
X166293750Y-60262500D03*
M02*
