M48
; DRILL file {KiCad (6.0.10)} date Sat Feb 18 23:00:29 2023
; FORMAT={-:-/ absolute / metric / decimal}
; #@! TF.CreationDate,2023-02-18T23:00:29-08:00
; #@! TF.GenerationSoftware,Kicad,Pcbnew,(6.0.10)
; #@! TF.FileFunction,Plated,1,2,PTH
FMAT,2
METRIC
; #@! TA.AperFunction,Plated,PTH,ViaDrill
T1C0.400
; #@! TA.AperFunction,Plated,PTH,ComponentDrill
T2C0.600
; #@! TA.AperFunction,Plated,PTH,ComponentDrill
T3C1.000
; #@! TA.AperFunction,Plated,PTH,ComponentDrill
T4C1.040
; #@! TA.AperFunction,Plated,PTH,ComponentDrill
T5C1.470
%
G90
G05
T1
X76.8Y-66.64
X76.8Y-92.64
X79.868Y-72.436
X84.384Y-91.235
X91.587Y-120.956
X93.662Y-120.911
X94.861Y-104.848
X96.044Y-120.955
X102.8Y-66.64
X102.8Y-92.64
X102.8Y-118.64
X128.8Y-66.64
X128.8Y-92.64
X154.781Y-138.906
X154.8Y-66.64
X154.8Y-92.64
X154.8Y-118.64
X157.162Y-138.906
X159.544Y-138.906
X161.925Y-138.906
X164.306Y-138.906
X180.8Y-66.64
X180.8Y-92.64
X192.087Y-130.969
X192.881Y-129.381
X195.018Y-121.83
X197.017Y-135.882
X197.432Y-84.138
X198.57Y-83.344
X198.57Y-84.931
X199.136Y-50.038
X200.025Y-139.7
X201.176Y-103.188
X201.314Y-122.154
X201.416Y-65.087
X201.422Y-48.768
X201.985Y-103.985
X202.01Y-102.389
X202.406Y-83.344
X202.406Y-84.964
X202.645Y-65.848
X202.669Y-64.252
X203.2Y-52.324
X203.2Y-84.138
X203.334Y-124.514
X203.502Y-106.134
X204.402Y-123.233
X204.933Y-107.564
X204.989Y-105.178
X205.247Y-103.938
X205.271Y-102.342
X205.281Y-123.86
X205.486Y-44.704
X205.636Y-58.049
X205.811Y-53.214
X205.873Y-65.848
X206.171Y-122.114
X206.629Y-56.632
X206.647Y-64.117
X206.72Y-106.909
X206.8Y-92.64
X206.8Y-118.64
X207.043Y-54.343
X207.33Y-102.354
X207.338Y-103.912
X207.68Y-121.296
X207.962Y-46.736
X208.001Y-105.063
X208.663Y-119.062
X208.771Y-65.836
X208.782Y-103.926
X208.807Y-102.33
X209.032Y-54.354
X209.081Y-57.938
X209.329Y-64.002
X209.55Y-103.188
X209.654Y-106.807
X209.814Y-105.951
X210.273Y-124.059
X210.292Y-122.922
X210.292Y-53.197
X210.312Y-44.704
X210.566Y-104.903
X210.642Y-107.747
X211.14Y-65.823
X211.164Y-64.227
X211.306Y-119.898
X211.388Y-118.087
X211.56Y-139.012
X211.596Y-122.445
X212.207Y-65.087
X212.626Y-119.958
X213.614Y-52.324
X213.91Y-48.619
X214.841Y-118.246
X215.37Y-120.538
X215.831Y-117.298
X216.466Y-119.368
X216.694Y-120.65
X217.167Y-125.237
X217.17Y-52.07
X217.482Y-131.765
X217.497Y-121.434
X218.703Y-119.985
X219.71Y-49.53
X229.113Y-132.411
X229.142Y-134.519
X229.958Y-125.291
X232.8Y-66.64
X232.8Y-92.64
X232.8Y-118.64
X232.833Y-124.723
X235.943Y-132.402
X236.681Y-121.442
X240.165Y-122.384
X250.031Y-134.144
X250.825Y-134.938
X251.619Y-135.731
X252.412Y-136.525
X253.206Y-137.319
X254.0Y-138.112
X254.794Y-138.906
X258.8Y-66.64
X258.8Y-92.64
X261.938Y-141.287
X284.8Y-66.64
X284.8Y-118.64
X310.8Y-92.64
X310.8Y-118.64
X336.8Y-66.64
X336.8Y-92.64
X336.8Y-118.64
T3
X240.953Y-124.463
X240.953Y-127.003
X240.953Y-129.543
X243.493Y-124.463
X243.493Y-127.003
X243.493Y-129.543
T4
X63.817Y-62.23
X66.199Y-138.43
X66.358Y-62.23
X68.58Y-81.28
X68.739Y-138.43
X70.961Y-100.33
X71.12Y-81.28
X73.501Y-100.33
X75.724Y-119.38
X78.264Y-119.38
X82.867Y-62.23
X85.407Y-62.23
X90.011Y-138.43
X92.392Y-81.28
X92.551Y-138.43
X94.932Y-81.28
X97.155Y-100.33
X99.695Y-100.33
X101.917Y-62.23
X104.457Y-62.23
X106.68Y-119.38
X109.22Y-119.38
X111.442Y-81.28
X113.824Y-138.43
X113.983Y-81.28
X116.205Y-100.33
X116.364Y-138.43
X118.745Y-100.33
X120.968Y-62.23
X123.507Y-62.23
X125.73Y-119.38
X128.27Y-119.38
X130.493Y-81.28
X133.032Y-81.28
X135.255Y-100.33
X137.795Y-100.33
X140.017Y-62.23
X142.558Y-62.23
X144.78Y-119.38
X147.32Y-119.38
X149.542Y-81.28
X152.082Y-81.28
X154.305Y-100.33
X156.845Y-100.33
X159.067Y-62.23
X161.607Y-62.23
X163.83Y-119.38
X166.37Y-119.38
X168.593Y-81.28
X171.132Y-81.28
X173.355Y-100.33
X175.895Y-100.33
X178.117Y-62.23
X180.657Y-62.23
X182.88Y-119.38
X185.261Y-138.43
X185.42Y-119.38
X187.642Y-81.28
X187.801Y-138.43
X190.183Y-81.28
X192.405Y-100.33
X194.945Y-100.33
X197.167Y-62.23
X199.707Y-62.23
X201.93Y-119.38
X204.47Y-119.38
X206.692Y-81.28
X209.232Y-81.28
X211.455Y-100.33
X213.995Y-100.33
X216.218Y-62.23
X218.757Y-62.23
X220.98Y-119.38
X223.52Y-119.38
X225.742Y-81.28
X228.282Y-81.28
X230.505Y-100.33
X233.045Y-100.33
X235.267Y-62.23
X237.807Y-62.23
X240.03Y-119.38
X242.57Y-119.38
X244.792Y-81.28
X247.332Y-81.28
X249.555Y-100.33
X252.095Y-100.33
X254.317Y-62.23
X256.699Y-138.43
X256.858Y-62.23
X259.08Y-119.38
X259.239Y-138.43
X261.62Y-119.38
X263.842Y-81.28
X266.382Y-81.28
X268.605Y-100.33
X271.145Y-100.33
X273.368Y-62.23
X275.907Y-62.23
X278.13Y-119.38
X280.511Y-138.43
X280.67Y-119.38
X282.892Y-81.28
X283.051Y-138.43
X285.433Y-81.28
X287.655Y-100.33
X290.195Y-100.33
X292.417Y-62.23
X294.957Y-62.23
X301.942Y-81.28
X304.324Y-119.38
X304.482Y-81.28
X306.864Y-119.38
X311.467Y-138.43
X314.007Y-138.43
X318.611Y-100.33
X320.993Y-62.23
X321.151Y-100.33
X323.532Y-62.23
X325.755Y-81.28
X328.295Y-81.28
X330.517Y-119.38
X330.517Y-138.43
X333.058Y-119.38
X333.058Y-138.43
X349.567Y-62.23
X349.567Y-81.28
X349.567Y-138.43
X352.107Y-62.23
X352.107Y-81.28
X352.107Y-138.43
T5
X61.277Y-54.61
X63.659Y-130.81
X66.04Y-73.66
X67.627Y-52.07
X68.421Y-92.71
X70.009Y-128.27
X72.39Y-71.12
X73.184Y-111.76
X74.771Y-90.17
X79.534Y-109.22
X80.328Y-54.61
X86.677Y-52.07
X87.471Y-130.81
X89.852Y-73.66
X93.821Y-128.27
X94.615Y-92.71
X96.203Y-71.12
X99.377Y-54.61
X100.965Y-90.17
X104.14Y-111.76
X105.727Y-52.07
X108.902Y-73.66
X110.49Y-109.22
X111.284Y-130.81
X113.665Y-92.71
X115.252Y-71.12
X117.634Y-128.27
X118.427Y-54.61
X120.015Y-90.17
X123.19Y-111.76
X124.777Y-52.07
X127.953Y-73.66
X129.54Y-109.22
X132.715Y-92.71
X134.302Y-71.12
X137.477Y-54.61
X139.065Y-90.17
X142.24Y-111.76
X143.827Y-52.07
X147.002Y-73.66
X148.59Y-109.22
X151.765Y-92.71
X153.352Y-71.12
X156.528Y-54.61
X158.115Y-90.17
X161.29Y-111.76
X162.877Y-52.07
X166.052Y-73.66
X167.64Y-109.22
X170.815Y-92.71
X172.403Y-71.12
X175.577Y-54.61
X177.165Y-90.17
X180.34Y-111.76
X181.927Y-52.07
X182.721Y-130.81
X185.102Y-73.66
X186.69Y-109.22
X189.071Y-128.27
X189.865Y-92.71
X191.452Y-71.12
X194.627Y-54.61
X196.215Y-90.17
X199.39Y-111.76
X200.977Y-52.07
X204.153Y-73.66
X205.74Y-109.22
X208.915Y-92.71
X210.502Y-71.12
X213.677Y-54.61
X215.265Y-90.17
X218.44Y-111.76
X220.028Y-52.07
X223.202Y-73.66
X224.79Y-109.22
X227.965Y-92.71
X229.552Y-71.12
X232.727Y-54.61
X234.315Y-90.17
X237.49Y-111.76
X239.077Y-52.07
X242.252Y-73.66
X243.84Y-109.22
X247.015Y-92.71
X248.602Y-71.12
X251.777Y-54.61
X253.365Y-90.17
X254.159Y-130.81
X256.54Y-111.76
X258.127Y-52.07
X260.509Y-128.27
X261.303Y-73.66
X262.89Y-109.22
X266.065Y-92.71
X267.652Y-71.12
X270.827Y-54.61
X272.415Y-90.17
X275.59Y-111.76
X277.178Y-52.07
X277.971Y-130.81
X280.352Y-73.66
X281.94Y-109.22
X284.321Y-128.27
X285.115Y-92.71
X286.702Y-71.12
X289.877Y-54.61
X291.465Y-90.17
X296.227Y-52.07
X299.402Y-73.66
X301.784Y-111.76
X305.752Y-71.12
X308.134Y-109.22
X308.928Y-130.81
X315.277Y-128.27
X316.071Y-92.71
X318.452Y-54.61
X322.421Y-90.17
X323.215Y-73.66
X324.803Y-52.07
X327.977Y-111.76
X327.977Y-130.81
X329.565Y-71.12
X334.327Y-109.22
X334.327Y-128.27
X347.027Y-54.61
X347.027Y-73.66
X347.027Y-130.81
X353.377Y-52.07
X353.377Y-71.12
X353.377Y-128.27
T2
X203.642Y-45.163G85X203.642Y-45.762
G05
X203.642Y-49.093G85X203.642Y-50.192
G05
X212.282Y-45.163G85X212.282Y-45.762
G05
X212.282Y-49.093G85X212.282Y-50.192
G05
T0
M30
